<?xml version="1.0" standalone="no"?>
<!DOCTYPE svg PUBLIC "-//W3C//DTD SVG 1.1//EN" "http://www.w3.org/Graphics/SVG/1.1/DTD/svg11.dtd" >
<svg>
<metadata>
Created by FontForge 20090622 at Sat Jul 25 04:06:42 2020
 By deploy user
Copyright (c) 2016 by Lucas Le Bihan. All rights reserved.
</metadata>
<defs>
<font id="SelfModern-Italic" horiz-adv-x="500" >
  <font-face 
    font-family="Self Modern Italic"
    font-weight="400"
    font-style="italic"
    font-stretch="normal"
    units-per-em="1000"
    panose-1="0 0 0 0 0 0 0 0 0 0"
    ascent="780"
    descent="-220"
    x-height="500"
    cap-height="780"
    bbox="-240 -250 1081 1081"
    underline-thickness="0"
    underline-position="0"
    unicode-range="U+0020-U+FB04"
  />
<missing-glyph horiz-adv-x="400" 
 />
    <glyph glyph-name="ff" unicode="ff" horiz-adv-x="700" 
d="M57 450l11 50h89l13 70q10 54 41.5 98.5t70 69.5t75 38.5t63.5 13.5q30 0 45 -11.5t15 -28.5q0 -28 -15.5 -44t-35.5 -16q-25 0 -44.5 25t-44.5 25q-30 0 -52.5 -38.5t-44.5 -125.5l-19 -76h243l13 70q10 51 39.5 94.5t67.5 70t76.5 41t69.5 14.5q28 0 42.5 -11.5
t14.5 -28.5q0 -28 -15.5 -44t-35.5 -16q-25 0 -44.5 25t-44.5 25q-30 0 -52.5 -38.5t-44.5 -125.5l-19 -76h163l-10 -50h-166l-81 -320q-83 -360 -310 -360q-40 0 -40 30q0 23 32 50h98q35 0 61.5 13.5t43 32t29.5 54.5t20 64t16 76l68 360h-247l-81 -320
q-83 -360 -310 -360q-40 0 -40 30q0 23 32 50h98q35 0 61.5 13.5t43 32t29.5 54.5t20 64t16 76l68 360h-91z" />
    <glyph glyph-name="fi" unicode="fi" horiz-adv-x="600" 
d="M57 450l11 50h89l13 70q22 118 106.5 169t226.5 51q28 0 42.5 -11.5t14.5 -28.5q0 -28 -15.5 -44t-35.5 -16q-1 0 -73 25t-96 25q-30 0 -52.5 -38.5t-44.5 -125.5l-19 -76h316l-130 -370q-12 -29 -4 -44.5t17 -20.5t17 -5t35 29t55 71l20 -10q-120 -150 -130 -150h-20
q-20 0 -35.5 24.5t-4.5 65.5l90 360h-239l-81 -320q-83 -360 -310 -360q-40 0 -40 30q0 23 32 50h98q35 0 61.5 13.5t43 32t29.5 54.5t20 64t16 76l68 360h-91z" />
    <glyph glyph-name="fl" unicode="fl" horiz-adv-x="600" 
d="M350 90l120 593q2 22 -27.5 39.5t-72.5 17.5q-63 0 -88 -41q-14 -25 -39 -123l-19 -76h123l-10 -50h-126l-81 -320q-83 -360 -310 -360q-40 0 -40 30q0 23 32 50h98q35 0 61.5 13.5t43 32t29.5 54.5t20 64t16 76l68 360h-91l11 50h89l13 70q13 71 65 124t106 74.5
t99 21.5q31 0 58 -10h72l-170 -651q-4 -23 -3 -36.5t8.5 -21t13.5 -9.5t11 -2q17 0 110 130l20 -10q-135 -180 -150 -180h-20q-19 0 -34 24t-6 66z" />
    <glyph glyph-name="ffi" unicode="ffi" horiz-adv-x="900" 
d="M57 450l11 50h89l13 70q10 54 41.5 98.5t70 69.5t75 38.5t63.5 13.5q30 0 45 -11.5t15 -28.5q0 -28 -15.5 -44t-35.5 -16q-25 0 -44.5 25t-44.5 25q-30 0 -52.5 -38.5t-44.5 -125.5l-19 -76h243l13 70q22 118 106.5 169t226.5 51q28 0 42.5 -11.5t14.5 -28.5
q0 -28 -15.5 -44t-35.5 -16q-1 0 -73 25t-96 25q-30 0 -52.5 -38.5t-44.5 -125.5l-19 -76h316l-130 -370q-12 -29 -4 -44.5t17 -20.5t17 -5t35 29t55 71l20 -10q-120 -150 -130 -150h-20q-20 0 -35.5 24.5t-4.5 65.5l90 360h-239l-81 -320q-83 -360 -310 -360q-40 0 -40 30
q0 23 32 50h98q35 0 61.5 13.5t43 32t29.5 54.5t20 64t16 76l68 360h-247l-81 -320q-83 -360 -310 -360q-40 0 -40 30q0 23 32 50h98q35 0 61.5 13.5t43 32t29.5 54.5t20 64t16 76l68 360h-91z" />
    <glyph glyph-name="ffl" unicode="ffl" horiz-adv-x="900" 
d="M57 450l11 50h89l13 70q10 54 41.5 98.5t70 69.5t75 38.5t63.5 13.5q30 0 45 -11.5t15 -28.5q0 -28 -15.5 -44t-35.5 -16q-25 0 -44.5 25t-44.5 25q-30 0 -52.5 -38.5t-44.5 -125.5l-19 -76h233l13 70q13 71 65 124t106 74.5t99 21.5q31 0 58 -10h72l-170 -651
q-4 -23 -3 -36.5t8.5 -21t13.5 -9.5t11 -2q17 0 110 130l20 -10q-135 -180 -150 -180h-20q-19 0 -34 24t-6 66l120 593q2 22 -27.5 39.5t-72.5 17.5q-63 0 -88 -41q-14 -25 -39 -123l-19 -76h123l-10 -50h-126l-81 -320q-83 -360 -310 -360q-40 0 -40 30q0 23 32 50h98
q35 0 61.5 13.5t43 32t29.5 54.5t20 64t16 76l68 360h-237l-81 -320q-83 -360 -310 -360q-40 0 -40 30q0 23 32 50h98q35 0 61.5 13.5t43 32t29.5 54.5t20 64t16 76l68 360h-91z" />
    <glyph glyph-name=".notdef" horiz-adv-x="400" 
 />
    <glyph glyph-name=".null" 
 />
    <glyph glyph-name="nonmarkingreturn" horiz-adv-x="333" 
 />
    <glyph glyph-name="space" unicode=" " horiz-adv-x="400" 
 />
    <glyph glyph-name="exclam" unicode="!" horiz-adv-x="200" 
d="M230 780q-60 -161 -150 -560h-30q27 178 52 318t36 191l12 51h80zM-20 50q0 28 18 44t42 16t42 -16t18 -44t-18 -44t-42 -16t-42 16t-18 44z" />
    <glyph glyph-name="quotedbl" unicode="&#x22;" horiz-adv-x="300" 
d="M55 520l60 260h30l-60 -260h-30zM155 520l60 260h30l-60 -260h-30z" />
    <glyph glyph-name="numbersign" unicode="#" horiz-adv-x="600" 
d="M75 -110l64 280h-139l6 30h140l63 270h-141l6 30h142l64 280h30l-64 -280h200l64 280h30l-64 -280h124l-6 -30h-125l-63 -270h126l-6 -30h-127l-64 -280h-30l64 280h-200l-64 -280h-30zM176 200h200l63 270h-200z" />
    <glyph glyph-name="dollar" unicode="$" horiz-adv-x="600" 
d="M185 -110l26 107q-33 7 -60.5 20.5t-38.5 22.5l-12 10l-40 -60l-40 250l20 10q12 -86 60.5 -143t118.5 -77l81 338q-30 15 -42.5 22t-38 23t-37 29t-26 32.5t-20.5 43.5t-6 52q0 102 65 161t165 59q16 0 40 -2l25 102h30l-26 -107q32 -7 57 -20.5t34 -22.5l10 -10l40 60
l30 -230l-20 -10q-12 71 -54 126t-104 75l-77 -320q43 -23 65.5 -38t52.5 -42t43.5 -61.5t13.5 -79.5q0 -58 -22.5 -102.5t-59 -69t-76.5 -36.5t-82 -12q-16 0 -40 2l-25 -102h-30zM190 610q0 -58 33 -94t95 -71l75 313q-20 2 -31 2q-70 0 -121 -41.5t-51 -108.5zM460 170
q0 68 -35 109t-99 75l-79 -330q19 -4 43 -4q74 0 122 36.5t48 113.5z" />
    <glyph glyph-name="percent" unicode="%" horiz-adv-x="800" 
d="M680 790l20 -20l-590 -780l-20 20zM473 610q-18 -81 -75 -130.5t-125 -49.5q-76 0 -116.5 52.5t-23.5 127.5q19 81 76 130.5t126 49.5q75 0 115 -52.5t23 -127.5zM423 610q16 71 -10 110.5t-75 39.5q-48 0 -93.5 -39.5t-61.5 -110.5q-14 -65 12.5 -107t73.5 -42
q49 0 93.5 39t60.5 110zM662 170q-19 -81 -76 -130.5t-126 -49.5q-75 0 -115 52.5t-23 127.5q18 81 75 130.5t127 49.5q75 0 115 -52.5t23 -127.5zM612 170q16 71 -10.5 110.5t-75.5 39.5t-93.5 -39.5t-60.5 -110.5q-15 -65 11.5 -107.5t73.5 -42.5q49 0 94 39.5t61 110.5z
" />
    <glyph glyph-name="ampersand" unicode="&#x26;" horiz-adv-x="700" 
d="M404 275l-9 25l335 150l9 -25l-130 -58l-1 -37q-2 -44 -14 -88.5t-38.5 -90.5t-64 -81t-95 -57.5t-126.5 -22.5q-112 0 -181 53.5t-69 136.5q0 56 27 99t62.5 65t77 35.5t64 17t29.5 3.5q5 0 7 2t0 4.5t-7 3.5q-66 22 -95 45q-55 44 -55 115q0 90 79 155t191 65
q53 0 98 -12.5t63 -25.5l18 -12l42 40l29 -220l-20 -10q-4 25 -12 49t-25 54.5t-40 53t-60 38t-83 15.5q-53 0 -94 -18t-63 -46t-32.5 -57.5t-10.5 -58.5q0 -57 31.5 -95t70 -51.5t78.5 -13.5h20l-10 -30h-20q-39 0 -75.5 -5t-74.5 -18.5t-66 -34.5t-46 -55t-18 -77
q0 -69 55.5 -114.5t144.5 -45.5q72 0 126 26t84.5 70.5t47 93.5t20.5 105l1 19z" />
    <glyph glyph-name="quotesingle" unicode="'" horiz-adv-x="200" 
d="M55 520l60 260h30l-60 -260h-30z" />
    <glyph glyph-name="parenleft" unicode="(" 
d="M560 770q-70 -8 -140.5 -47.5t-131.5 -104.5t-99.5 -164t-38.5 -214q0 -141 82.5 -235.5t227.5 -94.5l-10 -20q-161 0 -255.5 96.5t-94.5 243.5q0 101 29.5 190.5t77 152.5t107.5 111.5t120 74t116 31.5z" />
    <glyph glyph-name="parenright" unicode=")" 
d="M-60 -90q70 8 140.5 47.5t131.5 104.5t99.5 164t38.5 214q0 141 -82.5 235.5t-227.5 94.5l10 20q161 0 255.5 -96.5t94.5 -243.5q0 -101 -29.5 -190.5t-77 -152.5t-107.5 -111.5t-120 -74t-116 -31.5z" />
    <glyph glyph-name="asterisk" unicode="*" 
d="M95 617q-14 10 -16 29t14 39q15 19 37 24t35 -5q27 -19 11 -55l69 -59l17 102q-32 11 -25 48q5 20 23 35t40 15t32 -15t5 -35q-3 -16 -15.5 -29.5t-29.5 -18.5l-31 -102l94 59q0 34 38 55q18 10 37.5 5t25.5 -24q7 -19 -3.5 -38.5t-29.5 -29.5q-38 -20 -58 6l-100 -43
l80 -43q31 23 61 6q14 -9 16 -28.5t-14 -39.5q-15 -19 -37 -23.5t-35 6.5q-12 7 -16 21.5t3 31.5l-68 59l-16 -102q15 -4 21.5 -18t3.5 -30q-5 -20 -22.5 -35t-39.5 -15t-32.5 15t-5.5 35q3 16 15.5 30t29.5 18l31 102l-96 -59q0 -17 -10 -32.5t-26 -22.5q-18 -10 -37.5 -5
t-26.5 24q-6 19 4.5 39t28.5 29q38 18 59 -6l99 43l-79 43q-34 -26 -61 -6z" />
    <glyph glyph-name="plus" unicode="+" 
d="M216 105h-30l45 195h-191l6 30h192l45 196h29l-45 -196h193l-6 -30h-194z" />
    <glyph glyph-name="comma" unicode="," horiz-adv-x="300" 
d="M90 50q0 28 18 44t42 16t42 -16t18 -44q0 -23 -11 -36l-139 -174l-10 20l130 160q-20 -20 -40 -20q-19 0 -34.5 11.5t-15.5 38.5z" />
    <glyph glyph-name="hyphen" unicode="-" horiz-adv-x="400" 
d="M30 300l10 30h330l-10 -30h-330z" />
    <glyph glyph-name="period" unicode="." horiz-adv-x="300" 
d="M70 50q0 28 18 44t42 16t42 -16t18 -44t-18 -44t-42 -16t-42 16t-18 44z" />
    <glyph glyph-name="slash" unicode="/" horiz-adv-x="700" 
d="M670 790l20 -20l-660 -880l-20 20z" />
    <glyph glyph-name="zero" unicode="0" horiz-adv-x="600" 
d="M360 790q110 0 163.5 -80.5t53.5 -209.5q0 -84 -23 -172.5t-64.5 -164.5t-107 -124.5t-142.5 -48.5q-110 0 -163.5 80.5t-53.5 209.5q0 84 23 172.5t64.5 164.5t107 124.5t142.5 48.5zM360 760q-61 0 -111.5 -49.5t-80.5 -126t-46.5 -161.5t-16.5 -163q0 -120 30 -180
t105 -60q61 0 111.5 49.5t80.5 126t46.5 161.5t16.5 163q0 120 -30 180t-105 60z" />
    <glyph glyph-name="one" unicode="1" 
d="M70 580l169.5 101.5l128.5 80.5l44 28l-159 -700q-5 -22 12 -36.5t45.5 -19t57 -6t49.5 -0.5l21 2l-6 -30h-460l6 30q8 -1 21.5 -1.5t48.5 0.5t62.5 5.5t52.5 19t30 36.5l127 570q4 16 -2.5 22.5t-27.5 -2.5l-210 -120z" />
    <glyph glyph-name="two" unicode="2" horiz-adv-x="600" 
d="M360 790q93 0 141.5 -53t48.5 -127q0 -49 -18.5 -98.5t-46.5 -91t-71 -85t-82.5 -75.5t-89.5 -67t-84 -55.5l-75 -45t-53 -32.5q-11 -6 9 -9q5 -1 11 -1h231q40 0 75 13t57 28.5t46 46t33.5 45.5t27.5 47l20 -10l-113 -230l-47 10h-430l20 50q21 14 74 46.5l92 58.5
l93 64.5t92.5 77t74.5 83.5t55 96t19 104q0 73 -39.5 126.5t-110.5 53.5q-68 0 -114 -34t-46 -86q0 -90 -50 -90q-40 0 -40 40q0 24 20.5 57t56 65.5t93 55t120.5 22.5z" />
    <glyph glyph-name="three" unicode="3" horiz-adv-x="600" 
d="M500 230q0 -99 -81 -169.5t-199 -70.5q-52 0 -92 15t-64.5 36.5t-42 55t-25.5 61t-15 63.5l21 9q0 -8 2 -20.5t13.5 -45.5t30.5 -58t59 -45.5t93 -20.5q97 0 158.5 59.5t61.5 150.5q0 83 -43 111.5t-147 28.5h-60l10 30h50q103 0 176.5 55t73.5 155q0 130 -130 130
q-69 0 -114.5 -33.5t-45.5 -86.5q0 -90 -50 -90q-40 0 -40 40q0 54 85.5 127t194.5 73q91 0 135.5 -46.5t44.5 -113.5q0 -52 -30.5 -96t-73 -69.5t-72.5 -38.5t-44 -16q-5 -1 -7 -3.5t0 -4.5t7 -2t11 -0.5t23 -3.5t32 -9t33 -19t30.5 -30t21.5 -45t9 -63z" />
    <glyph glyph-name="four" unicode="4" horiz-adv-x="600" 
d="M-22 210l10 40l511 540l-122 -536l194 6l-12 -50h-192l-27 -120q-7 -31 27 -46t71 -14h38l-6 -30h-360l7 30q6 0 16 -0.5t36 1.5t47 7.5t40.5 18.5t23.5 33l27 120h-329zM378 620l-356 -370q42 0 294 3l82 367q4 15 -5 12q-6 -2 -15 -12z" />
    <glyph glyph-name="five" unicode="5" horiz-adv-x="600" 
d="M270 470q-37 0 -69.5 -10.5t-53 -25t-35 -29t-20.5 -25.5l-7 -10h-30l115 410h320l50 10l17 -189l-20 -10q-15 54 -32 81.5t-52 43t-95 15.5h-100q-66 0 -79 -41l-78 -250v-1q80 61 194 61q94 0 154.5 -53t60.5 -147q0 -134 -88.5 -222t-221.5 -88q-57 0 -101.5 21.5
t-69 56.5t-36.5 74t-12 79l21 9q0 -8 1 -20.5t11 -45.5t27.5 -58t56.5 -45.5t92 -20.5q112 0 176 73.5t64 196.5q0 68 -39 114t-121 46z" />
    <glyph glyph-name="six" unicode="6" horiz-adv-x="600" 
d="M420 760q-104 0 -190 -115.5t-111 -295.5q86 161 241 161q92 0 136 -54t44 -136q0 -71 -31 -135t-77.5 -105.5t-98 -65.5t-93.5 -24q-49 0 -87 17t-60.5 43t-37 61.5t-20 69t-5.5 69.5q0 146 56 271.5t148 197t196 71.5q87 0 133.5 -45t46.5 -115q0 -80 -50 -80
q-40 0 -40 41q0 14 5 39t5 40q0 37 -24.5 63.5t-85.5 26.5zM110 220q0 -94 32.5 -147t97.5 -53q81 0 150.5 87.5t69.5 222.5q0 34 -11 66t-41.5 58t-77.5 26q-46 0 -85.5 -20.5t-65 -54t-41 -62.5t-26.5 -61q-2 -40 -2 -62z" />
    <glyph glyph-name="seven" unicode="7" horiz-adv-x="600" 
d="M250 60q0 -31 -14 -50.5t-36 -19.5q-40 0 -40 50q0 70 61 186t133 213l138 181t69 91q5 13 2 16.5t-13 3.5h-212q-47 0 -85 -14.5t-58 -35.5t-33.5 -41.5t-17.5 -35.5l-4 -14l-20 10l62 190l48 -10h459q-72 -61 -145 -141t-141 -176t-110.5 -203t-42.5 -200z" />
    <glyph glyph-name="eight" unicode="8" horiz-adv-x="600" 
d="M550 260q0 -111 -95.5 -190.5t-224.5 -79.5q-103 0 -161.5 47t-58.5 123q0 84 66.5 151.5t156.5 94.5q-54 24 -83.5 57t-29.5 87q0 103 82.5 171.5t197.5 68.5q94 0 142 -38.5t48 -101.5q0 -84 -50.5 -143.5t-128.5 -83.5q65 -26 102 -62.5t37 -100.5zM190 590
q0 -18 5 -33.5t11.5 -27t21.5 -23.5t24.5 -18.5t31.5 -16l31.5 -13.5t36 -13.5t35.5 -12.5q64 22 108.5 77t44.5 131q0 54 -37 87t-103 33q-79 0 -144.5 -44t-65.5 -126zM60 170q0 -73 46 -111.5t124 -38.5q59 0 114 20t95.5 67t40.5 113q0 28 -10.5 51t-24 38t-40.5 29.5
t-45.5 21.5l-53.5 19.5l-51 18.5q-78 -26 -136.5 -86.5t-58.5 -141.5z" />
    <glyph glyph-name="nine" unicode="9" horiz-adv-x="600" 
d="M180 40q99 0 186 108.5t114 281.5q-86 -160 -240 -160q-92 0 -136 54t-44 136q0 95 49 173t119 117.5t142 39.5q57 0 98.5 -24.5t62 -65t30 -82.5t9.5 -88q0 -145 -55.5 -271t-143 -197.5t-181.5 -71.5q-86 0 -132 67.5t-38 162.5l20 10q0 -190 140 -190zM140 450
q0 -34 11 -66t41.5 -58t77.5 -26q38 0 71 14.5t55.5 35t42 49.5t30 51.5t19.5 47.5q2 40 2 62q0 94 -32.5 147t-97.5 53q-87 0 -153.5 -86.5t-66.5 -223.5z" />
    <glyph glyph-name="colon" unicode=":" horiz-adv-x="300" 
d="M120 450q0 28 18 44t42 16t42 -16t18 -44t-18 -44t-42 -16t-42 16t-18 44zM50 50q0 28 18 44t42 16t42 -16t18 -44t-18 -44t-42 -16t-42 16t-18 44z" />
    <glyph glyph-name="semicolon" unicode=";" horiz-adv-x="300" 
d="M120 450q0 28 18 44t42 16t42 -16t18 -44t-18 -44t-42 -16t-42 16t-18 44zM50 50q0 28 18 44t42 16t42 -16t18 -44q0 -23 -11 -36l-139 -174l-10 20l130 160q-20 -20 -40 -20q-19 0 -34.5 11.5t-15.5 38.5z" />
    <glyph glyph-name="less" unicode="&#x3c;" horiz-adv-x="400" 
d="M248 75l-23 -20l-165 240l4 20l5 20l275 240l16 -20l-276 -240z" />
    <glyph glyph-name="equal" unicode="=" 
d="M61 390l7 30h412l-7 -30h-412zM20 210l6 30h412l-6 -30h-412z" />
    <glyph glyph-name="greater" unicode="&#x3e;" horiz-adv-x="400" 
d="M55 55l-15 20l276 240l-165 240l24 20l165 -240l-5 -20l-4 -20z" />
    <glyph glyph-name="question" unicode="?" horiz-adv-x="600" 
d="M340 760q-82 0 -131 -33.5t-49 -86.5q0 -90 -50 -90q-40 0 -40 40q0 24 20.5 57t56 65.5t93 55t120.5 22.5q100 0 155 -55t55 -135q0 -169 -177 -227q-26 -8 -93 -23q-20 -4 -26 -30l-24 -100h-30l25 120q12 59 85 72q190 35 190 178q0 66 -48 118t-132 52zM140 50
q0 28 18 44t42 16t42 -16t18 -44t-18 -44t-42 -16t-42 16t-18 44z" />
    <glyph glyph-name="at" unicode="@" horiz-adv-x="900" 
d="M690 -20l30 -20l-11 -11.5t-32 -26.5t-53.5 -33.5t-75.5 -26.5t-97 -12q-166 0 -283.5 117t-117.5 283t117 283t283 117t283 -117t117 -283q0 -93 -66 -161.5t-143 -68.5q-58 0 -89.5 38t-33.5 88q-85 -126 -178 -126q-59 0 -94 47t-35 123q0 119 98 219.5t211 100.5
q41 0 73 -20t43 -48l55 68l-121 -340q-10 -43 8 -81.5t72 -38.5q61 0 106 59t45 141q0 155 -100 262.5t-251 107.5t-250.5 -107.5t-99.5 -262.5t99.5 -263t251.5 -108q67 0 126.5 25.5t86.5 50.5zM281 210q0 -57 25 -93.5t75 -36.5q95 0 171 179l58 151q4 29 -35 49.5
t-85 20.5q-66 0 -115 -43.5t-71.5 -103.5t-22.5 -123z" />
    <glyph glyph-name="A" unicode="A" horiz-adv-x="800" 
d="M220 0h-280l4 30q66 -4 90.5 8t52.5 62l368 660l46 30l133 -710q5 -29 33 -41.5t53 -10.5l25 2l-4 -30h-321l4 30q6 -1 15.5 -1.5t34 1t42.5 6.5t31 19t9 35l-33 190h-298l-98 -180q-25 -47 -1 -60.5t98 -9.5zM241 310h277l-66 389z" />
    <glyph glyph-name="B" unicode="B" horiz-adv-x="700" 
d="M692 620q0 -76 -65 -130t-163 -77q91 -21 134.5 -67t43.5 -106q0 -115 -94.5 -177.5t-239.5 -62.5h-356l4 30q6 0 16 -0.5t36 1.5t46.5 7.5t39 18.5t22.5 33l106 600q5 31 -29 46t-71 14h-37l5 30h316q144 0 215 -41.5t71 -118.5zM240 430h104q51 0 94.5 9t82 28.5t60 56
t21.5 86.5q0 69 -50 104.5t-160 35.5q-89 0 -105 -54zM309 400h-75l-55 -310q-6 -31 15 -44.5t51 -15.5h37q55 0 103.5 12t89 36.5t64 66t23.5 95.5q0 83 -59.5 121.5t-193.5 38.5z" />
    <glyph glyph-name="C" unicode="C" horiz-adv-x="700" 
d="M450 790q49 0 91.5 -12.5t60.5 -25.5l18 -12l51 50l21 -240l-21 -10q-5 30 -19.5 63t-41 67.5t-73.5 57t-107 22.5q-144 0 -240.5 -109.5t-96.5 -280.5q0 -128 68 -219t189 -91q62 0 115 22.5t85 55t55 65t33 55.5l9 22l19 -10q-4 -11 -12 -29t-39 -64.5t-68.5 -82.5
t-101 -65t-135.5 -29q-59 0 -107 18t-79.5 47.5t-53 68.5t-31 80.5t-9.5 85.5q0 109 36 204t95 159t134.5 100.5t154.5 36.5z" />
    <glyph glyph-name="D" unicode="D" horiz-adv-x="800" 
d="M90 780h371q82 0 144 -26t97 -70.5t51.5 -95.5t16.5 -108q0 -203 -132.5 -341.5t-327.5 -138.5h-358l4 30q6 0 16 -0.5t36 2t46.5 7.5t39 18.5t22.5 32.5l106 600q6 31 -28.5 46t-71.5 14h-37zM393 750q-91 0 -106 -54l-108 -606q-4 -21 5.5 -34.5t33 -18.5t40.5 -6
t48 -1q74 0 137.5 26.5t108 72t76.5 104.5t47 124.5t15 132.5q0 38 -5 69.5t-22 69t-45.5 62.5t-80.5 42t-122 17h-22z" />
    <glyph glyph-name="E" unicode="E" horiz-adv-x="700" 
d="M409 380h-179l-52 -290q-3 -17 1 -29t10.5 -18t23 -9t27.5 -3.5t35 -0.5h121q42 0 81 16.5t64.5 40t45.5 47t29 40.5l9 16l17 -10l-80 -180h-611l4 30q6 0 16 -0.5t36 2t46.5 7.5t39 18.5t22.5 32.5l106 600q5 31 -29 46t-71 14h-37l5 30h581l17 -179l-20 -11
q-1 7 -3.5 17.5t-14.5 38t-29 48.5t-50.5 38.5t-75.5 17.5h-102q-92 0 -106 -55l-51 -285h178q44 0 75.5 35t41.5 70l9 35h20l-59 -329h-20q1 6 2.5 17t1 38.5t-6 48.5t-23 38t-45.5 17z" />
    <glyph glyph-name="F" unicode="F" horiz-adv-x="700" 
d="M460 380h-229l-52 -290q-6 -31 28.5 -46t71.5 -14h37l-4 -30h-360l4 30q6 0 16 -0.5t36 1.5t47 7.5t39.5 18.5t21.5 33l106 600q5 31 -29 46t-71 14h-37l5 30h610l18 -179l-21 -11q-1 7 -3.5 17.5t-14 38t-28.5 48.5t-50.5 38.5t-75.5 17.5h-132q-92 0 -106 -55l-51 -285
h228q44 0 75.5 35t40.5 70l10 35h20l-59 -329h-20q1 6 2.5 17t1 38.5t-6 48.5t-23 38t-45.5 17z" />
    <glyph glyph-name="G" unicode="G" horiz-adv-x="700" 
d="M300 -10q-59 0 -106 18t-77 47t-50 69t-28.5 81t-8.5 85q0 109 34.5 204t91.5 159t131 100.5t153 36.5q46 0 86 -12.5t57 -25.5l17 -12l51 50l21 -240l-21 -10q-5 34 -19 67.5t-40 67t-70.5 54.5t-101.5 21q-142 0 -234.5 -112t-92.5 -278q0 -130 63.5 -220t183.5 -90
q98 0 158.5 67t81.5 164l11 59h-341l4 30h390l-4 -30l-60 -340h-20v164q-37 -76 -102 -125t-158 -49z" />
    <glyph glyph-name="H" unicode="H" horiz-adv-x="900" 
d="M116 90l106 600q5 31 -29 46t-71 14h-37l5 30h371l-5 -30q-6 0 -17 0.5t-39 -1.5t-50 -7.5t-41.5 -18.5t-22.5 -33l-50 -280h437l49 280q5 31 -31.5 46t-76.5 14h-39l5 30h370l-5 -30q-6 0 -16 0.5t-36 -1.5t-46.5 -7.5t-39 -18.5t-21.5 -33l-106 -600q-5 -31 29 -46
t71 -14h36l-4 -30h-370l4 30q6 0 17 -0.5t39 1.5t50 7.5t41.5 18.5t22.5 33l51 290h-436l-52 -290q-5 -31 32 -46t77 -14h39l-4 -30h-371l4 30q6 0 16 -0.5t36 1.5t47 7.5t39.5 18.5t21.5 33z" />
    <glyph glyph-name="I" unicode="I" horiz-adv-x="400" 
d="M220 690q5 31 -29 46t-71 14h-37l5 30h361l-6 -30q-6 0 -16 0.5t-36 -1.5t-46.5 -7.5t-39 -18.5t-21.5 -33l-107 -600q-5 -31 29 -46t71 -14h37l-4 -30h-360l4 30q6 0 16 -0.5t36 1.5t47 7.5t39.5 18.5t21.5 33z" />
    <glyph glyph-name="J" unicode="J" 
d="M100 40q57 0 89 47.5t49 142.5l82 460q6 31 -28.5 46t-71.5 14h-37l5 30h360l-5 -30q-6 0 -16 0.5t-36 -1.5t-46.5 -7.5t-39 -18.5t-21.5 -33l-80 -450q-44 -250 -194 -250q-42 0 -73 20.5t-45 50t-22 59t-9 50.5l-1 20l20 10q0 -7 0.5 -17.5t7 -38t18 -48.5t36 -38.5
t58.5 -17.5z" />
    <glyph glyph-name="K" unicode="K" horiz-adv-x="800" 
d="M116 90l106 600q5 31 -29 46t-71 14h-37l5 30h361l-6 -30q-6 0 -16 0.5t-36 -1.5t-46.5 -7.5t-39 -18.5t-21.5 -33l-58 -327l365 317q43 38 31.5 56t-79.5 14l5 30h281l-5 -30q-62 3 -97.5 -12t-85.5 -58l-231 -196l194 -404q13 -27 45.5 -39.5t58.5 -11.5l27 1l-4 -30
h-321l4 30h50q71 5 67 42q0 8 -5 18l-169 350l-139 -118l-41 -232q-5 -31 29 -46t71 -14h37l-4 -30h-360l4 30q6 0 16 -0.5t36 1.5t47 7.5t39.5 18.5t21.5 33z" />
    <glyph glyph-name="L" unicode="L" horiz-adv-x="700" 
d="M451 780l-6 -30q-6 0 -16 0.5t-36 -1.5t-46 -7.5t-38.5 -18.5t-22.5 -33l-107 -600q-3 -14 4.5 -25t24.5 -17t33 -10t41.5 -5.5t39 -2t35.5 -0.5h19q48 0 92 16.5t73 40t51.5 47t32.5 40.5l10 16l19 -10l-82 -180h-620l4 30q6 0 16 -0.5t36 2t46.5 7.5t39 18.5t22.5 32.5
l106 600q6 31 -28.5 46t-71.5 14h-37l5 30h361z" />
    <glyph glyph-name="M" unicode="M" horiz-adv-x="1000" 
d="M95 90l106 600q5 31 -24 46t-61 14h-32l6 30h210l138 -668l391 668h221l-5 -30q-6 0 -16 0.5t-36 -1.5t-47 -7.5t-39.5 -18.5t-21.5 -33l-106 -600q-5 -31 29 -46t71 -14h37l-4 -30h-361l4 30q6 0 16 -0.5t36 1.5t47 7.5t39.5 18.5t21.5 33l109 612l-425 -712l-161 715
l-109 -615q-5 -31 24 -46t61 -14h31l-4 -30h-290l4 30q5 0 14 -0.5t31.5 1.5t40.5 7.5t34.5 18.5t19.5 33z" />
    <glyph glyph-name="N" unicode="N" horiz-adv-x="800" 
d="M96 90l106 600q5 31 -24 46t-61 14h-32l5 30h191l310 -662l101 572q5 31 -24 46t-61 14h-32l5 30h291l-5 -30q-5 0 -14 0.5t-31.5 -1.5t-40.5 -7.5t-34.5 -18.5t-19.5 -33l-122 -690h-34l-331 707l-109 -617q-5 -31 24 -46t60 -14h32l-4 -30h-290l4 30q5 0 14 -0.5
t31.5 1.5t40.5 7.5t34.5 18.5t19.5 33z" />
    <glyph glyph-name="O" unicode="O" horiz-adv-x="800" 
d="M330 -10q-143 0 -221.5 88.5t-78.5 211.5q0 109 38 204t99.5 159t141 100.5t161.5 36.5q143 0 221.5 -88.5t78.5 -211.5q0 -109 -38 -204t-99.5 -159t-141 -100.5t-161.5 -36.5zM380 50q140 0 235 101t95 269q0 83 -30 151.5t-97 113.5t-163 45q-140 0 -235 -101
t-95 -269q0 -128 77 -219t213 -91z" />
    <glyph glyph-name="P" unicode="P" horiz-adv-x="700" 
d="M401 361h-174l-48 -271q-6 -31 28.5 -46t71.5 -14h37l-4 -30h-360l4 30q6 0 16 -0.5t36 1.5t47 7.5t39.5 18.5t21.5 33l106 600q5 31 -29 46t-71 14h-37l5 30h367q283 0 283 -170q0 -65 -30 -114.5t-80 -78t-108 -42.5t-121 -14zM393 750q-91 0 -106 -54l-54 -305h144
q52 0 98 10.5t86.5 33.5t64.5 65.5t24 99.5q0 81 -50.5 115.5t-158.5 34.5h-48z" />
    <glyph glyph-name="Q" unicode="Q" horiz-adv-x="800" 
d="M330 -10q-73 0 -132 27t-94.5 71t-54.5 96t-19 106q0 109 38 204t99.5 159t141 100.5t161.5 36.5q73 0 132 -27t94.5 -71t54.5 -96t19 -106q0 -120 -44 -220t-120 -168l96 -142l-24 -20l-96 141q-116 -91 -252 -91zM380 50q102 0 184 57l-112 163l26 21l111 -164
q118 105 118 293q0 126 -78.5 218t-208.5 92q-139 0 -233 -101t-94 -269q0 -126 78.5 -218t208.5 -92z" />
    <glyph glyph-name="R" unicode="R" horiz-adv-x="700" 
d="M516 110q16 -28 23.5 -39t22.5 -24t33.5 -16t48.5 -1l-4 -30h-136l-203 361h-74l-48 -271q-6 -31 28.5 -46t71.5 -14h37l-4 -30h-360l4 30q6 0 16 -0.5t36 1.5t47 7.5t39.5 18.5t21.5 33l106 600q5 31 -29 46t-71 14h-37l5 30h367q283 0 283 -170q0 -63 -28.5 -112
t-76.5 -77.5t-104.5 -43.5t-118.5 -16h-41zM393 750q-91 0 -106 -54l-54 -305h144q52 0 98 10.5t86.5 33.5t64.5 65.5t24 99.5q0 81 -50.5 115.5t-158.5 34.5h-48z" />
    <glyph glyph-name="S" unicode="S" horiz-adv-x="600" 
d="M280 -10q-53 0 -98 15t-64 30l-18 15l-40 -60l-40 250l20 10q14 -108 85 -169t165 -61q74 0 122 36.5t48 113.5q0 63 -34 106.5t-82.5 68.5l-97 50t-82.5 68.5t-34 106.5q0 102 65 161t165 59q53 0 95.5 -15t58.5 -30l16 -15l40 60l30 -230l-20 -10q-16 88 -74 149
t-144 61q-70 0 -121 -41.5t-51 -108.5q0 -47 24.5 -82.5t61 -56.5l79.5 -46t79.5 -49t61 -67t24.5 -99q0 -58 -22.5 -102.5t-59 -69t-76.5 -36.5t-82 -12z" />
    <glyph glyph-name="T" unicode="T" horiz-adv-x="800" 
d="M328 750h-30q-42 0 -81 -16.5t-64.5 -40t-45 -47t-28.5 -40.5l-9 -16l-20 11l83 179h640l18 -179l-22 -11q-1 7 -3 17.5t-14 38t-29 48.5t-50.5 38.5t-75.5 17.5h-22q-91 0 -106 -54l-108 -606q-6 -31 28.5 -46t71.5 -14h37l-4 -30h-359l4 30q6 0 16 -0.5t35.5 1.5
t46 7.5t38.5 18.5t22 33l109 608q3 27 -15.5 39.5t-62.5 12.5z" />
    <glyph glyph-name="U" unicode="U" horiz-adv-x="800" 
d="M680 690q6 31 -23.5 46t-61.5 14h-32l5 30h291l-6 -30q-5 0 -13.5 0.5t-31 -1.5t-40.5 -7.5t-34 -18.5t-20 -33l-82 -460q-8 -48 -28.5 -89t-54.5 -76t-88.5 -55t-123.5 -20q-130 0 -179.5 66t-28.5 184l80 450q5 31 -29 46t-70 14h-37l6 30h359l-5 -30q-6 0 -16 0.5
t-36 -1.5t-46.5 -7.5t-39 -18.5t-21.5 -33l-80 -450q-18 -104 17.5 -157t143.5 -53q65 0 111 16.5t72 47t39 62t21 74.5z" />
    <glyph glyph-name="V" unicode="V" horiz-adv-x="800" 
d="M327 -10l-125 700q-5 31 -35 46t-57 14h-27l5 30h320l-5 -30q-6 1 -15.5 1.5t-33.5 -1t-42 -6.5t-31 -19t-9 -35l96 -562l293 552q25 47 1 60.5t-99 9.5l5 30h280l-5 -30q-66 4 -90.5 -8t-51.5 -62z" />
    <glyph glyph-name="W" unicode="W" horiz-adv-x="1000" 
d="M239 -10l-83 711q-4 29 -31.5 41.5t-52.5 9.5l-26 -2l5 30h319l-5 -30q-6 1 -16 1.5t-35.5 -0.5t-44 -6t-33 -19t-12.5 -36l58 -547l249 513l-5 45q-4 29 -31.5 41.5t-53.5 9.5l-26 -2l6 30h319l-5 -30q-6 1 -16 1.5t-35.5 -0.5t-44 -6t-33 -19t-12.5 -36l54 -550
l245 540q22 48 -1 61t-96 9l5 30h280l-5 -30q-69 4 -94.5 -8.5t-48.5 -61.5l-324 -690l-70 601z" />
    <glyph glyph-name="X" unicode="X" horiz-adv-x="800" 
d="M302 690l111 -240l198 230q34 43 14 58.5t-92 11.5l5 30h280l-5 -30q-63 4 -92.5 -10t-69.5 -60l-225 -260l157 -340q12 -27 45 -39.5t60 -11.5l26 1l-4 -30h-319l4 30l48 -1q73 6 68 45q-1 8 -5 16l-127 275l-220 -255q-36 -43 -15.5 -63.5t90.5 -16.5l-4 -30h-280l4 30
q52 -4 86.5 12.5t78.5 67.5l246 285l-141 306q-12 28 -42.5 40t-54.5 11l-24 -2l5 30h321l-5 -30l-53 1q-78 -5 -74 -45q1 -7 5 -16z" />
    <glyph glyph-name="Y" unicode="Y" horiz-adv-x="800" 
d="M321 90l37 210l-157 401q-11 28 -41.5 40.5t-55.5 10.5l-24 -2l5 30h320l-5 -30l-50 2q-80 -4 -76 -47q1 -7 4 -15l136 -355l244 345q24 31 17 47t-31.5 21t-73.5 2l5 30h281l-6 -30q-64 4 -90.5 -9t-61.5 -61l-276 -380l-37 -210q-5 -31 29 -46t71 -14h37l-5 -30h-360
l4 30q6 0 16 -0.5t36 1.5t47 7.5t39.5 18.5t21.5 33z" />
    <glyph glyph-name="Z" unicode="Z" horiz-adv-x="600" 
d="M550 750h-239q-36 0 -71.5 -16.5t-59.5 -40t-43 -47t-28 -40.5l-9 -16l-20 10l69 190l50 -10h461l-620 -750h281q36 0 71 16.5t59 40t42.5 47t27.5 40.5l9 16l20 -10l-70 -190l-50 10h-489z" />
    <glyph glyph-name="bracketleft" unicode="[" horiz-adv-x="300" 
d="M25 -110l205 890h130l-7 -30h-100l-192 -830h100l-6 -30h-130z" />
    <glyph glyph-name="backslash" unicode="\" horiz-adv-x="300" 
d="M10 771l25 9l255 -871l-25 -9z" />
    <glyph glyph-name="bracketright" unicode="]" horiz-adv-x="300" 
d="M275 780l-205 -890h-130l5 30h101l193 830h-101l6 30h131z" />
    <glyph glyph-name="underscore" unicode="_" horiz-adv-x="600" 
d="M20 -110l5 30h555l-7 -30h-553z" />
    <glyph glyph-name="grave" unicode="`" horiz-adv-x="834" 
d="M810 610l-10 -20l-220 180l10 20z" />
    <glyph glyph-name="a" unicode="a" horiz-adv-x="600" 
d="M390 90l25 110q-13 -29 -32.5 -59.5t-51.5 -67t-77 -60t-94 -23.5q-61 0 -100.5 35.5t-39.5 94.5q0 83 62 118.5t180 46.5q105 10 154 37t49 78q0 35 -31.5 62.5t-93.5 27.5q-52 0 -85 -11t-45 -28t-19 -36t-8.5 -36t-11.5 -28t-31 -11q-40 0 -40 40q0 57 71 93.5
t159 36.5q117 0 164.5 -46t20.5 -122l-75 -212q-12 -29 -4 -44.5t17 -20.5t17 -5t35 29t55 71l20 -10q-120 -150 -130 -150h-20q-19 0 -34 24.5t-6 65.5zM263 262q-90 -11 -131.5 -38t-41.5 -84q0 -44 27 -67t73 -23q31 0 60.5 11t50.5 26t43.5 40.5t34.5 43t27.5 46
t19 36.5l12.5 28l22 49q-35 -47 -197 -68z" />
    <glyph glyph-name="b" unicode="b" horiz-adv-x="600" 
d="M57 -10l153 740h-110l9 50h191l-150 -510q90 240 261 240q61 0 100.5 -45t39.5 -124q0 -134 -98.5 -242.5t-212.5 -108.5q-44 0 -74 22.5t-38 45.5l-8 22l-30 -90h-33zM161 180q0 -58 29.5 -104t90.5 -46q78 0 144 80.5t66 189.5q0 62 -36 106t-94 44q-81 0 -140.5 -82
t-59.5 -188z" />
    <glyph glyph-name="c" unicode="c" 
d="M470 370q0 -28 -15.5 -44t-34.5 -16q-40 0 -40 40q0 15 5 35t5 35q0 25 -17.5 42.5t-52.5 17.5q-96 0 -163 -75.5t-67 -174.5q0 -77 43.5 -128.5t116.5 -51.5q45 0 83 17.5t60.5 42.5t38.5 50t22 42l6 18l20 -10q-4 -9 -12 -24t-34 -52.5t-55.5 -66.5t-75 -53t-93.5 -24
q-82 0 -126 49.5t-44 140.5q0 127 87 228.5t193 101.5q42 0 73 -12.5t45 -27.5t22 -38.5t9 -35t1 -26.5z" />
    <glyph glyph-name="d" unicode="d" horiz-adv-x="600" 
d="M381 90l8 38q-44 -67 -100 -102.5t-109 -35.5q-68 0 -104 43.5t-36 125.5q0 133 102.5 242t217.5 109q73 0 100 -68l61 288h-100l10 50h180l-180 -650q-10 -29 -2 -44.5t16 -20.5t16 -5t35 29t55 71l20 -10q-120 -150 -130 -150h-20q-19 0 -33.5 24.5t-6.5 65.5zM430 320
q0 58 -29.5 104t-90.5 46q-78 0 -144 -80.5t-66 -189.5q0 -62 36 -106t94 -44q81 0 140.5 82t59.5 188z" />
    <glyph glyph-name="e" unicode="e" 
d="M480 210q-4 -9 -12 -24t-34 -52.5t-55.5 -66.5t-75 -53t-93.5 -24q-82 0 -126 49.5t-44 140.5q0 127 87 228.5t193 101.5q39 0 66.5 -15t38 -36t16 -43t-0.5 -36l-30 -120h-318q-2 -20 -2 -30q0 -77 43.5 -128.5t116.5 -51.5q45 0 83 17.5t60.5 42.5t38.5 50t22 42l6 18z
M390 310v30q0 110 -110 110q-62 0 -109.5 -39t-67.5 -101h287z" />
    <glyph glyph-name="f" unicode="f" horiz-adv-x="300" 
d="M57 450l11 50h89l13 70q10 51 39.5 94.5t67.5 70t76.5 41t69.5 14.5q28 0 42.5 -11.5t14.5 -28.5q0 -28 -15.5 -44t-35.5 -16q-25 0 -44 25t-45 25q-30 0 -52.5 -38.5t-44.5 -125.5l-19 -76h133l-10 -50h-136l-81 -320q-83 -360 -310 -360q-40 0 -40 30q0 23 32 50h98
q35 0 61.5 13.5t43 32t29.5 54.5t20 64t16 76l68 360h-91z" />
    <glyph glyph-name="g" unicode="g" 
d="M80 300q0 98 64 154t146 56q31 0 61 -10h179l-10 -50h-99q29 -38 29 -90q0 -80 -41 -130.5t-103 -69.5q-42 -15 -101.5 -21.5t-92 -11t-32.5 -17.5q0 -12 30 -20l180 -40q26 -7 34 -9.5t30 -12.5t30.5 -19.5t17 -27.5t8.5 -41q0 -47 -25 -81.5t-67 -53t-89 -27t-99 -8.5
q-37 0 -63.5 1.5t-56 8.5t-48 18t-30.5 32t-12 50q0 21 7 37.5t18 28.5t33 25.5t42 23l56 25.5q12 5 18 8l-14 2q-31 6 -50.5 22.5t-19.5 37.5q0 9 3 17t10 13.5t14.5 9.5t20.5 7.5t23 5.5t27.5 3.5l28.5 2.5t31.5 2.5t31.5 2.5q-54 11 -87 50.5t-33 95.5zM120 350
q0 -58 46 -104t124 -46q50 0 85 27t35 83q0 61 -48.5 105.5t-121.5 44.5q-54 0 -87 -29.5t-33 -80.5zM230 10l-108 14q-73 -28 -102.5 -55t-29.5 -69q0 -80 190 -80q88 0 144 25t56 75q0 11 -3 21t-10.5 17.5l-14 13.5t-19 11.5t-20 8.5t-23 6.5t-21 4.5l-21.5 4t-18 3z" />
    <glyph glyph-name="h" unicode="h" horiz-adv-x="600" 
d="M380 90l60 220q18 67 -6 103.5t-84 36.5q-56 0 -99.5 -42.5t-80.5 -157.5l-80 -250h-60l150 730h-100l10 50h180l-160 -600h14l46 130q71 200 230 200q43 0 71 -15.5t38.5 -40t10.5 -51t-10 -53.5l-80 -220q-12 -29 -4 -44.5t17 -20.5t17 -5t35 29t55 71l20 -10
q-120 -150 -130 -150h-20q-20 0 -35.5 24.5t-4.5 65.5z" />
    <glyph glyph-name="i" unicode="i" horiz-adv-x="300" 
d="M150 680q0 28 18 44t42 16t42 -16t18 -44t-18 -44t-42 -16t-42 16t-18 44zM240 500l-130 -370q-12 -29 -4 -44.5t17 -20.5t17 -5t35 29t55 71l20 -10q-120 -150 -130 -150h-20q-20 0 -35.5 24.5t-4.5 65.5l90 360h-110l10 50h190z" />
    <glyph glyph-name="j" unicode="j" horiz-adv-x="300" 
d="M180 680q0 28 18 44t42 16t42 -16t18 -44t-18 -44t-42 -16t-42 16t-18 44zM90 90l80 360h-100l10 50h180l-100 -360q-44 -158 -138.5 -264t-221.5 -106q-40 0 -40 30q0 23 32 50h98q47 0 81 16.5t56.5 51.5t35.5 73.5t27 98.5z" />
    <glyph glyph-name="k" unicode="k" horiz-adv-x="600" 
d="M310 40l-130 160h-20l-10 -20l-50 -180h-60l150 730h-100l10 50h180l-160 -600h10q72 174 145.5 252t164.5 78q62 0 91 -33t29 -77q0 -76 -87 -125t-223 -75l110 -120q19 -20 50 -20q15 0 42.5 27.5t57.5 72.5l20 -10q-120 -150 -130 -150h-20q-37 0 -70 40zM420 450
q-137 0 -250 -230h70q114 24 187 66t73 94q0 27 -19.5 48.5t-60.5 21.5z" />
    <glyph glyph-name="l" unicode="l" horiz-adv-x="300" 
d="M50 90l130 640h-100l10 50h180l-170 -651q-4 -23 -3 -36.5t8.5 -21t13.5 -9.5t11 -2q17 0 110 130l20 -10q-135 -180 -150 -180h-20q-19 0 -34 24t-6 66z" />
    <glyph glyph-name="m" unicode="m" horiz-adv-x="900" 
d="M696 90l60 220q18 67 -6 103.5t-84 36.5q-54 0 -93 -42t-77 -158l-80 -250h-61l75 310q34 140 -80 140q-106 0 -170 -200l-80 -250h-60l110 450h-100l10 50h160l-100 -320h14l46 130q37 103 95.5 151.5t124.5 48.5q51 0 77 -26.5t24 -62t-11 -71.5l-54 -170h14l40 120
q70 210 226 210q43 0 71 -15.5t38.5 -40t10.5 -51t-10 -53.5l-80 -220q-12 -29 -4 -44.5t17 -20.5t17 -5t35 29t55 71l20 -10q-120 -150 -130 -150h-20q-20 0 -35.5 24.5t-4.5 65.5z" />
    <glyph glyph-name="n" unicode="n" horiz-adv-x="600" 
d="M470 60q8 0 35 29t55 71l20 -10q-120 -150 -130 -150h-20q-20 0 -35.5 24.5t-4.5 65.5l60 220q18 67 -6 103.5t-84 36.5q-56 0 -99.5 -42.5t-80.5 -157.5l-80 -250h-60l110 450h-110l10 50h170l-100 -320h14l46 130q71 200 230 200q43 0 71 -15.5t38.5 -40t10.5 -51
t-10 -53.5l-80 -220q-12 -29 -4 -44.5t17 -20.5t17 -5z" />
    <glyph glyph-name="o" unicode="o" 
d="M195 -10q-78 0 -124 48t-46 142q0 127 87 228.5t193 101.5q78 0 124 -48t46 -142q0 -127 -87 -228.5t-193 -101.5zM235 50q81 0 135.5 64.5t54.5 155.5q0 77 -43.5 128.5t-116.5 51.5q-81 0 -135.5 -64.5t-54.5 -155.5q0 -77 43.5 -128.5t116.5 -51.5z" />
    <glyph glyph-name="p" unicode="p" horiz-adv-x="600" 
d="M140 60l-59 -190q-11 -35 15 -50t58 -12l31 2l-7 -30h-260l7 30q4 -1 11 -2t25 0t32.5 6t28.5 19.5t19 36.5l120 580h-110l10 50h170l-71 -230q42 120 114 180t147 60q68 0 104 -43.5t36 -125.5q0 -134 -97.5 -242.5t-208.5 -108.5q-38 0 -66.5 17.5t-38.5 34.5zM171 180
q0 -58 29.5 -104t90.5 -46q78 0 144 80.5t66 189.5q0 62 -36 106t-94 44q-82 0 -141 -81.5t-59 -188.5z" />
    <glyph glyph-name="q" unicode="q" horiz-adv-x="600" 
d="M353 -130l57 275q-45 -78 -103.5 -116.5t-116.5 -38.5q-68 0 -104 43.5t-36 125.5q0 133 102.5 242t217.5 109q75 0 107 -72l3 62h80l-168 -630q-8 -31 18 -46t56 -14h31l-7 -30h-260l7 30q4 0 11 -0.5t25.5 1.5t33 7.5t28.5 18.5t18 33zM440 320q0 58 -29.5 104
t-90.5 46q-78 0 -144 -80.5t-66 -189.5q0 -62 36 -106t94 -44q63 0 114.5 51.5t73.5 129.5l9 43q3 22 3 46z" />
    <glyph glyph-name="r" unicode="r" horiz-adv-x="400" 
d="M210 500l-100 -320h14l46 130q34 96 85 148t105 52q50 0 50 -30q0 -60 -50 -60q-10 0 -25 5t-25 5q-38 0 -69 -29t-61 -121l-90 -280h-60l110 450h-100l10 50h160z" />
    <glyph glyph-name="s" unicode="s" 
d="M260 -10q-43 0 -78.5 15t-49.5 30l-14 15l-55 -60l-30 220l22 10q2 -8 6.5 -21.5t21.5 -48t38.5 -61t59.5 -48t83 -21.5q52 0 81 21t29 59q0 36 -28 61t-67.5 42l-79 35.5t-67.5 51.5t-28 80q0 64 47.5 102t108.5 38q41 0 71 -12t39 -24l10 -13l54 49l33 -200l-23 -10
q-2 7 -6 19.5t-19.5 43.5t-33.5 54.5t-49 43t-66 19.5q-44 0 -70 -23t-26 -67q0 -36 26 -62t62.5 -43l73 -35t62.5 -48.5t26 -71.5q0 -64 -48.5 -102t-115.5 -38z" />
    <glyph glyph-name="t" unicode="t" horiz-adv-x="400" 
d="M170 50q86 0 170 180l20 -10q-32 -54 -54 -88t-52 -70.5t-61 -54t-63 -17.5q-13 0 -24.5 2t-27.5 11t-24.5 25t-8 47.5t14.5 74.5l100 300h-130l11 50h130l9 230h80l-57 -230h157l-10 -50h-160l-70 -280q-14 -57 2 -88.5t48 -31.5z" />
    <glyph glyph-name="u" unicode="u" horiz-adv-x="600" 
d="M390 90l60 230h-14l-26 -70q-54 -144 -111 -202t-129 -58q-67 0 -93.5 49.5t-6.5 130.5l70 280h-110l10 50h190l-110 -310q-23 -63 1.5 -101.5t78.5 -38.5q27 0 49 7t39.5 24t29.5 31.5t25 43.5t19 44.5t18 49.5l90 250h60l-90 -371q-9 -30 -1 -45t15.5 -19.5t15.5 -4.5
t35 29t55 71l20 -10q-120 -150 -130 -150h-20q-19 0 -35 24.5t-5 65.5z" />
    <glyph glyph-name="v" unicode="v" 
d="M220 410l-40 -360q4 0 70.5 87.5l130.5 174.5l64 88q11 16 15 28.5t2 17.5l-2 4h-95l10 50h145l10 -10q0 -43 -35 -90q-325 -410 -335 -410h-27l2 90l10 310q1 27 -11 38.5t-24 11.5q-8 0 -35 -29t-55 -71l-20 10q120 150 130 150h20q24 0 49.5 -22t20.5 -68z" />
    <glyph glyph-name="w" unicode="w" horiz-adv-x="700" 
d="M133 -10l12 400q1 27 -11 38.5t-24 11.5q-8 0 -35 -29t-55 -71l-20 10q120 150 130 150h20q24 0 49.5 -22t20.5 -68l-40 -350l194 326l6 114h70l-10 -90l-40 -357l235 347q11 16 15 28.5t2 17.5l-2 4h-95l10 50h145l10 -10q0 -43 -35 -90l-305 -410h-27l17 314l-210 -314
h-27z" />
    <glyph glyph-name="x" unicode="x" 
d="M240 440l39 -146l171 216l70 -10l-236 -226l36 -134q9 -32 22 -51.5t22 -24t16 -4.5q8 0 35 29t55 71l20 -10q-120 -150 -130 -150h-20q-15 0 -29 13.5t-21 36.5l-55 169l-195 -229l-70 10l258 241l-38 119q-10 31 -23 50.5t-21.5 24.5t-15.5 5q-8 0 -35 -29t-55 -71
l-20 10q120 150 130 150h20q20 0 40.5 -13.5t29.5 -46.5z" />
    <glyph glyph-name="y" unicode="y" 
d="M209 410l-40 -360l266 350q9 12 13 24t3 19t-6 7h-90l10 50h144l10 -10q0 -47 -35 -90l-230 -286q-109 -135 -234.5 -239.5t-214.5 -104.5q-40 0 -40 30q0 23 32 50h128q16 0 69.5 35.5t89.5 71.5q12 12 19.5 22.5t14 34t7.5 56.5l9 320q1 27 -14.5 38.5t-29.5 11.5
q-8 0 -35 -29t-55 -71l-20 10q120 150 130 150h20q25 0 54.5 -22.5t24.5 -67.5z" />
    <glyph glyph-name="z" unicode="z" 
d="M500 490l-390 -440q-28 -30 0 -30h90q91 0 138 43.5t72 126.5l20 -10l-60 -190l-40 10h-330v10l390 440q5 6 8.5 11t4 9.5t-2.5 7t-10 2.5h-110q-77 0 -122 -43t-78 -127l-20 10l62 190l48 -10h330v-10z" />
    <glyph glyph-name="braceleft" unicode="{" horiz-adv-x="400" 
d="M164 221q4 20 -1.5 39.5t-17 33t-24 24.5t-21.5 16l-9 6q4 2 12 5t27.5 14.5t36 24t32 33.5t20.5 44q5 22 -3 74t2 97q17 72 84.5 115t152.5 43l5 -19q-68 0 -122.5 -40.5t-68.5 -99.5q-11 -44 -2.5 -96.5t3.5 -73.5q-10 -40 -42 -70.5t-59 -40.5l-27 -10q2 -1 5 -2
t13 -6t17 -11t17.5 -16t14.5 -21.5t7.5 -28t-2.5 -34.5q-5 -23 -37 -75.5t-42 -95.5q-14 -60 22 -100t104 -40l-14 -20q-85 0 -132.5 43.5t-30.5 115.5q10 44 42 96.5t38 75.5z" />
    <glyph glyph-name="bar" unicode="|" horiz-adv-x="200" 
d="M-20 -110l214 890l26 -5l-214 -890z" />
    <glyph glyph-name="braceright" unicode="}" horiz-adv-x="400" 
d="M182 221q-5 -23 3 -75.5t-2 -96.5q-17 -73 -84 -116t-153 -43l-6 20q70 0 125 40t69 100q10 44 1.5 95.5t-2.5 75.5q9 40 41 69.5t60 39.5l27 10q-2 1 -5 2t-13 6t-17.5 11t-17.5 16t-14.5 22t-8 28.5t2.5 35.5q5 22 37.5 74t42.5 96q14 60 -23 100t-106 40l15 19
q86 0 133 -43t30 -115q-10 -45 -42 -97t-37 -74q-5 -23 0.5 -43.5t17 -34t23.5 -24t21 -15.5l10 -4q-5 -2 -12.5 -5.5t-27.5 -16t-36 -25.5t-31.5 -32.5t-20.5 -39.5z" />
    <glyph glyph-name="exclamdown" unicode="&#xa1;" horiz-adv-x="200" 
d="M160 620q0 -28 -18 -44t-42 -16t-42 16t-18 44t18 44t42 16t42 -16t18 -44zM-90 -110q60 161 150 560h30q-27 -178 -52 -318t-36 -191l-12 -51h-80z" />
    <glyph glyph-name="cent" unicode="&#xa2;" 
d="M134 -110l42 182q-66 10 -101 59t-35 129q0 119 78 217t178 111l44 192l26 -5l-43 -185q42 -1 71.5 -13.5t44 -27.5t22 -38t8.5 -34.5t1 -26.5q0 -28 -15.5 -44t-34.5 -16q-40 0 -40 40q0 15 5 35t5 35q0 25 -17.5 42.5t-52.5 17.5h-4l-99 -427q17 -3 33 -3q45 0 83 17.5
t60.5 42.5t38.5 50t22 42l6 18l20 -10q-4 -9 -12 -24t-34 -52.5t-55.5 -66.5t-75 -53t-93.5 -24h-7l-43 -185zM90 310q0 -60 27 -105.5t75 -64.5l97 418q-85 -13 -142 -85.5t-57 -162.5z" />
    <glyph glyph-name="sterling" unicode="&#xa3;" horiz-adv-x="600" 
d="M4 370l18 30h120l41 180q21 92 84.5 151t145.5 59q53 0 92.5 -19.5t58.5 -48t26.5 -56t2.5 -46.5q-4 -20 -19 -30t-31 -10q-51 0 -28 90q10 48 -17.5 69t-72.5 21q-137 0 -180 -192l-39 -168h246l-18 -30h-235l-23 -100q-17 -73 -33 -109t-52 -71q-10 -10 2 -10
q1 0 35 15t76 15q47 0 106.5 -35t98.5 -35q32 0 62 22.5t45 45.5l14 22l19 -9q-3 -5 -9.5 -14t-27 -31.5t-42.5 -40t-55.5 -31.5t-67.5 -14q-40 0 -68.5 11t-42 24t-40 24t-63.5 11q-80 0 -166 -70l-5 20q58 41 90.5 92.5t57.5 157.5l25 110h-131z" />
    <glyph glyph-name="yen" unicode="&#xa5;" horiz-adv-x="800" 
d="M150 130l6 30h177l13 70h-179l7 30h177l7 40l-157 401q-11 28 -41.5 40.5t-55.5 10.5l-24 -2l5 30h320l-5 -30l-50 2q-80 -4 -76 -47q1 -7 4 -15l136 -355l244 345q24 31 17 47t-31.5 21t-73.5 2l5 30h281l-6 -30q-64 4 -90.5 -9t-61.5 -61l-276 -380l-7 -40h171l-7 -30
h-169l-13 -70h171l-6 -30h-170l-7 -40q-5 -31 29 -46t71 -14h37l-5 -30h-360l4 30q6 0 16 -0.5t36 1.5t47 7.5t39.5 18.5t21.5 33l7 40h-178z" />
    <glyph glyph-name="brokenbar" unicode="&#xa6;" horiz-adv-x="200" 
d="M86 780h29v-350h-29v350zM86 240h29v-350h-29v350z" />
    <glyph glyph-name="section" unicode="&#xa7;" 
d="M0 30l25 20v-8t2.5 -19.5t6.5 -28t14 -29.5t24 -27.5t36.5 -19.5t51.5 -8q52 0 88.5 27.5t47.5 72.5q7 32 0 58t-25 43t-42.5 33.5t-50.5 29.5t-49.5 31t-41 37.5t-24 50t2.5 68.5q13 51 60 91.5t112 47.5q-2 1 -5.5 3t-15 9.5t-20 16t-20 22.5t-16 29.5t-8.5 36.5t3 44
q12 54 64.5 91.5t123.5 37.5q44 0 76 -15.5t46.5 -37.5t23 -44t9.5 -37l1 -16l-24 -20q0 6 -0.5 15.5t-7 33.5t-18 42.5t-38 33.5t-62.5 15q-59 0 -96 -26.5t-49 -72.5q-8 -37 2.5 -65.5t33.5 -46.5t52.5 -36t58.5 -33.5t51.5 -39.5t32 -53.5t-0.5 -76.5q-12 -54 -60 -97
t-112 -43l6 -3t15 -9.5t19.5 -15.5t20.5 -22t17 -29.5t8.5 -36.5t-3.5 -44q-13 -55 -60 -92.5t-116 -37.5q-48 0 -83 15.5t-51 37.5t-25 44t-10 37zM386 310q15 70 -25.5 115t-98.5 45q-55 0 -95.5 -34t-49.5 -75q-16 -71 24 -116t98 -45q57 0 97 34t50 76z" />
    <glyph glyph-name="dieresis" unicode="&#xa8;" horiz-adv-x="834" 
d="M240 680q0 28 18 44t42 16t42 -16t18 -44t-18 -44t-42 -16t-42 16t-18 44zM440 680q0 28 18 44t42 16t42 -16t18 -44t-18 -44t-42 -16t-42 16t-18 44z" />
    <glyph glyph-name="copyright" unicode="&#xa9;" horiz-adv-x="900" 
d="M50 391q38 165 182.5 282t310.5 117q108 0 187.5 -53.5t112 -145.5t7.5 -200q-39 -167 -183 -284t-310 -117q-109 0 -188.5 53.5t-111.5 146t-7 201.5zM80 391q-35 -153 48 -262t236 -109t286.5 109t169.5 262q35 153 -48 261t-237 108q-153 0 -286.5 -108t-168.5 -261z
M508 652q43 0 74 -12t40 -24l10 -11l32 32l17 -144l-16 -7q-3 21 -11 41t-23.5 43.5t-46 37.5t-70.5 14q-86 0 -151.5 -64t-89.5 -166q-22 -97 19 -154.5t120 -57.5q47 0 89 17t68.5 41t46.5 48t28 41l9 17l10 -7q-3 -8 -9.5 -22t-30.5 -50t-52 -63t-76 -49.5t-101 -22.5
q-108 0 -159 74.5t-25 187.5q26 110 110.5 185t187.5 75z" />
    <glyph glyph-name="guillemotleft" unicode="&#xab;" 
d="M209 10l-25 -20l-164 240l5 20l4 20l275 240l16 -20l-276 -240zM390 10l-26 -20l-164 240l5 20l4 20l275 240l16 -20l-275 -240z" />
    <glyph glyph-name="registered" unicode="&#xae;" horiz-adv-x="900" 
d="M50 391q38 165 182.5 282t310.5 117q108 0 187.5 -53.5t112 -145.5t7.5 -200q-39 -167 -183 -284t-310 -117q-109 0 -188.5 53.5t-111.5 146t-7 201.5zM80 391q-35 -153 48 -262t236 -109q159 0 298 118l-239 237h-57l-41 -177q-4 -17 19 -25t48 -8h25l-5 -25h-250l6 25
q11 -1 27.5 -0.5t46.5 8.5t34 25l90 393q4 19 -18.5 27.5t-47.5 7.5l-25 -1l5 25h240q97 0 145.5 -32t32.5 -103q-14 -65 -72.5 -100t-132.5 -39l187 -221q109 102 140 236q35 153 -48 261t-237 108q-153 0 -286.5 -108t-168.5 -261zM424 625l-52 -225h88q63 0 111 27t62 88
q13 57 -20 83.5t-98 26.5h-91z" />
    <glyph glyph-name="degree" unicode="&#xb0;" horiz-adv-x="400" 
d="M65 655q14 52 65 93.5t112 41.5q56 0 82 -38.5t11 -96.5q-14 -52 -64.5 -93.5t-112.5 -41.5q-55 0 -81.5 39.5t-11.5 95.5zM95 655q-12 -43 8.5 -74t63.5 -31q53 0 90 32t48 73q12 44 -7.5 74.5t-62.5 30.5q-54 0 -91 -32t-49 -73z" />
    <glyph glyph-name="plusminus" unicode="&#xb1;" 
d="M226 105h-30l45 195h-191l6 30h192l45 196h29l-45 -196h193l-6 -30h-194zM0 0l6 30h421l-6 -30h-421z" />
    <glyph glyph-name="acute" unicode="&#xb4;" horiz-adv-x="834" 
d="M850 790l10 -20l-240 -200l-10 20z" />
    <glyph glyph-name="paragraph" unicode="&#xb6;" horiz-adv-x="600" 
d="M401 440l73 310h-91l-72 -310l-127 -550h-30l120 520h-85q-71 0 -110 45.5t-39 104.5q0 98 75 159t160 61h365l-6 -30h-131l-198 -860h-30z" />
    <glyph glyph-name="periodcentered" unicode="&#xb7;" horiz-adv-x="300" 
d="M90 320q0 28 18 44t42 16t42 -16t18 -44t-18 -44t-42 -16t-42 16t-18 44z" />
    <glyph glyph-name="cedilla" unicode="&#xb8;" horiz-adv-x="846" 
d="M82 -180l24 19q1 -2 2 -6t7.5 -14.5t15 -18t24 -14t35.5 -6.5q22 0 41 11.5t19 38.5q0 30 -23 48.5t-53 11.5l-5 20l181 160l20 -10l-170 -150q26 17 63 -2.5t37 -67.5q0 -43 -31 -66.5t-79 -23.5q-25 0 -45.5 7t-31.5 17.5t-18.5 21t-10.5 17.5z" />
    <glyph glyph-name="guillemotright" unicode="&#xbb;" 
d="M15 -10l-15 20l275 240l-164 240l24 20l165 -240l-4 -20l-5 -20zM195 -10l-14 20l275 240l-165 240l25 20l164 -240l-4 -20l-5 -20z" />
    <glyph glyph-name="onequarter" unicode="&#xbc;" 
d="M500 795l20 -15l-520 -795l-20 15zM86 710l134 80l-80 -345q-2 -10 6.5 -16.5t22.5 -9t28.5 -4t24.5 -1.5l11 1l-3 -15h-230l3 15q11 -1 27.5 -0.5t46 7.5t33.5 23l58 250q6 25 -5 29.5t-35 -9.5l-40 -20zM139 105l4 20l273 270l-62 -268l106 3l-6 -25h-105l-14 -60
q-4 -16 13 -23.5t36 -7.5l19 1l-3 -15h-180l3 15q8 -1 20.5 -0.5t35 7.5t26.5 23l14 60h-180zM355 307l-189 -182q66 0 158 2l41 180q2 6 0 6q-3 1 -10 -6z" />
    <glyph glyph-name="onehalf" unicode="&#xbd;" 
d="M500 795l20 -15l-520 -795l-20 15zM86 710l134 80l-80 -345q-2 -10 6.5 -16.5t22.5 -9t28.5 -4t24.5 -1.5l11 1l-3 -15h-230l3 15q11 -1 27.5 -0.5t46 7.5t33.5 23l58 250q6 25 -5 29.5t-35 -9.5l-40 -20zM392 395q62 0 89 -30t15 -81q-9 -41 -43 -77t-71.5 -58
l-84.5 -51.5t-71 -52.5q-10 -9 -10.5 -14.5t10.5 -5.5h80q27 0 52 9.5t42.5 22.5t30.5 26t19 23l7 9l9 -5l-57 -115l-23 5h-215q9 26 52.5 61t90.5 65t90 73.5t52 85.5q22 95 -73 95q-75 0 -90 -65q-9 -45 -35 -45q-20 0 -16 20q7 29 50.5 67t99.5 38z" />
    <glyph glyph-name="threequarters" unicode="&#xbe;" 
d="M500 795l20 -15l-520 -795l-20 15zM251 495q-12 -46 -53.5 -75.5t-100.5 -29.5q-44 0 -69 20t-26.5 45.5t1.5 49.5l11 5q-1 -4 -2 -10.5t1 -22.5t9 -28.5t26.5 -23t48.5 -10.5q42 0 73.5 21.5t40.5 58.5q12 49 -13.5 72t-74.5 23h-30l3 15h30q100 0 120 85q8 37 -4.5 61
t-51.5 24q-64 0 -78 -60q-11 -45 -36 -45q-20 0 -15 20q6 29 45.5 64.5t92.5 35.5t75 -27.5t13 -67.5q-5 -22 -18.5 -40t-28.5 -27.5t-30.5 -16t-24 -8.5t-10.5 -2q-3 -1 -4 -2q1 -2 3 -3q3 0 11.5 -2t23.5 -8t25.5 -17t17.5 -29t-1 -45zM159 105l4 20l273 270l-62 -268
l106 3l-6 -25h-105l-14 -60q-4 -16 13 -23.5t36 -7.5l19 1l-3 -15h-180l3 15q8 -1 20.5 -0.5t35 7.5t26.5 23l14 60h-180zM375 307l-189 -182q66 0 158 2l41 180q2 6 0 6q-3 1 -10 -6z" />
    <glyph glyph-name="questiondown" unicode="&#xbf;" horiz-adv-x="600" 
d="M500 630q0 -28 -18 -44t-42 -16t-42 16t-18 44t18 44t42 16t42 -16t18 -44zM300 -80q82 0 131 33.5t49 86.5q0 90 50 90q40 0 40 -40q0 -24 -20.5 -57t-56 -65.5t-93 -55t-120.5 -22.5q-100 0 -155 55t-55 135q0 169 177 227q26 8 93 23q20 4 26 30l24 100h30l-25 -120
q-12 -59 -85 -72q-190 -35 -190 -178q0 -66 48 -118t132 -52z" />
    <glyph glyph-name="Agrave" unicode="&#xc0;" horiz-adv-x="800" 
d="M603 840l-10 -20l-220 180l10 20zM240 0h-280l4 30q66 -4 90.5 8t52.5 62l368 660l46 30l133 -710q5 -29 33 -41.5t53 -10.5l25 2l-4 -30h-321l4 30q6 -1 15.5 -1.5t34 1t42.5 6.5t31 19t9 35l-33 190h-298l-98 -180q-25 -47 -1 -60.5t98 -9.5zM261 310h277l-66 389z" />
    <glyph glyph-name="Aacute" unicode="&#xc1;" horiz-adv-x="800" 
d="M665 1030l10 -20l-240 -200l-10 20zM240 0h-280l4 30q66 -4 90.5 8t52.5 62l368 660l46 30l133 -710q5 -29 33 -41.5t53 -10.5l25 2l-4 -30h-321l4 30q6 -1 15.5 -1.5t34 1t42.5 6.5t31 19t9 35l-33 190h-298l-98 -180q-25 -47 -1 -60.5t98 -9.5zM261 310h277l-66 389z
" />
    <glyph glyph-name="Acircumflex" unicode="&#xc2;" horiz-adv-x="800" 
d="M373 841l215 189l127 -189l-26 -21l-111 170l-189 -170zM280 0h-280l4 30q66 -4 90.5 8t52.5 62l368 660l46 30l133 -710q5 -29 33 -41.5t53 -10.5l25 2l-4 -30h-321l4 30q6 -1 15.5 -1.5t34 1t42.5 6.5t31 19t9 35l-33 190h-298l-98 -180q-25 -47 -1 -60.5t98 -9.5z
M301 310h277l-66 389z" />
    <glyph glyph-name="Atilde" unicode="&#xc3;" horiz-adv-x="800" 
d="M382 941l15 19q1 0 0 -6t2 -15t8 -17.5t17 -14.5t29 -6q35 0 95 29.5t89 29.5q31 0 47 -17.5t16 -34.5v-18l-13 -19q0 7 -1 17t-15 26.5t-41 16.5q-30 0 -89 -30t-94 -30q-32 0 -48 17.5t-17 35.5v17zM280 0h-280l4 30q66 -4 90.5 8t52.5 62l368 660l46 30l133 -710
q5 -29 33 -41.5t53 -10.5l25 2l-4 -30h-321l4 30q6 -1 15.5 -1.5t34 1t42.5 6.5t31 19t9 35l-33 190h-298l-98 -180q-25 -47 -1 -60.5t98 -9.5zM301 310h277l-66 389z" />
    <glyph glyph-name="Adieresis" unicode="&#xc4;" horiz-adv-x="800" 
d="M320 940q0 28 18 44t42 16t42 -16t18 -44t-18 -44t-42 -16t-42 16t-18 44zM520 940q0 28 18 44t42 16t42 -16t18 -44t-18 -44t-42 -16t-42 16t-18 44zM220 0h-280l4 30q66 -4 90.5 8t52.5 62l368 660l46 30l133 -710q5 -29 33 -41.5t53 -10.5l25 2l-4 -30h-321l4 30
q6 -1 15.5 -1.5t34 1t42.5 6.5t31 19t9 35l-33 190h-298l-98 -180q-25 -47 -1 -60.5t98 -9.5zM241 310h277l-66 389z" />
    <glyph glyph-name="Aring" unicode="&#xc5;" horiz-adv-x="800" 
d="M664 931q-9 -45 -47.5 -72.5t-85.5 -27.5q-46 0 -71.5 27.5t-15.5 72.5t48.5 72.5t85.5 27.5t72 -27.5t14 -72.5zM624 931q8 34 -5.5 56.5t-45.5 22.5q-33 0 -57 -22.5t-32 -56.5q-7 -35 6 -58t46 -23q32 0 56.5 23t31.5 58zM280 0h-280l4 30q66 -4 90.5 8t52.5 62
l368 660l46 30l133 -710q5 -29 33 -41.5t53 -10.5l25 2l-4 -30h-321l4 30q6 -1 15.5 -1.5t34 1t42.5 6.5t31 19t9 35l-33 190h-298l-98 -180q-25 -47 -1 -60.5t98 -9.5zM301 310h277l-66 389z" />
    <glyph glyph-name="AE" unicode="&#xc6;" horiz-adv-x="1000" 
d="M492 701l-359 -601q-15 -25 -15.5 -40t12.5 -22t37.5 -8.5t58.5 0.5l-6 -30h-280l6 30q67 -4 92 8t55 62l402 660l45 20h451l16 -179l-20 -11q-1 7 -3.5 17.5t-14.5 38t-29.5 48.5t-50.5 38.5t-75 17.5h-271l48 -340h143q44 0 75 35t40 70l9 35h21l-59 -329h-20
q1 6 2.5 17t1 38.5t-6 48.5t-23 38t-45.5 17h-134l43 -300q4 -27 18 -38.5t50 -11.5q46 0 87.5 16.5t68 40t46.5 47t28 40.5l9 16l17 -10l-80 -180h-462l6 30q6 -1 15.5 -1.5t34 1t42.5 6.5t32 19t11 35l-36 290h-158l7 30h148z" />
    <glyph glyph-name="Ccedilla" unicode="&#xc7;" horiz-adv-x="700" 
d="M229 -180l24 19q1 -2 2 -6t7.5 -14.5t15 -18t24 -14t35.5 -6.5q22 0 41 11.5t19 38.5q0 30 -23 48.5t-53 11.5l-5 20l117 107q-60 -27 -123 -27q-59 0 -107 18t-79.5 47.5t-53 68.5t-31 80.5t-9.5 85.5q0 109 36 204t95 159t134.5 100.5t154.5 36.5q49 0 91.5 -12.5
t60.5 -25.5l18 -12l51 50l21 -240l-21 -10q-5 30 -19.5 63t-41 67.5t-73.5 57t-107 22.5q-144 0 -240.5 -109.5t-96.5 -280.5q0 -128 68 -219t189 -91q41 0 77.5 10t62 23.5t56.5 41.5t49 47t52 58l19 -10q-70 -82 -117 -124l-202 -186q26 17 63 -2.5t37 -67.5
q0 -43 -31.5 -66.5t-78.5 -23.5q-25 0 -45.5 7t-31.5 17.5t-18.5 21t-9.5 17.5z" />
    <glyph glyph-name="Egrave" unicode="&#xc8;" horiz-adv-x="700" 
d="M470 850l-10 -20l-220 180l10 20zM409 380h-179l-52 -290q-3 -17 1 -29t10.5 -18t23 -9t27.5 -3.5t35 -0.5h121q42 0 81 16.5t64.5 40t45.5 47t29 40.5l9 16l17 -10l-80 -180h-611l4 30q6 0 16 -0.5t36 2t46.5 7.5t39 18.5t22.5 32.5l106 600q5 31 -29 46t-71 14h-37
l5 30h581l17 -179l-20 -11q-1 7 -3.5 17.5t-14.5 38t-29 48.5t-50.5 38.5t-75.5 17.5h-102q-92 0 -106 -55l-51 -285h178q44 0 75.5 35t41.5 70l9 35h20l-59 -329h-20q1 6 2.5 17t1 38.5t-6 48.5t-23 38t-45.5 17z" />
    <glyph glyph-name="Eacute" unicode="&#xc9;" horiz-adv-x="700" 
d="M570 1030l10 -20l-240 -200l-10 20zM409 380h-179l-52 -290q-3 -17 1 -29t10.5 -18t23 -9t27.5 -3.5t35 -0.5h121q42 0 81 16.5t64.5 40t45.5 47t29 40.5l9 16l17 -10l-80 -180h-611l4 30q6 0 16 -0.5t36 2t46.5 7.5t39 18.5t22.5 32.5l106 600q5 31 -29 46t-71 14h-37
l5 30h581l17 -179l-20 -11q-1 7 -3.5 17.5t-14.5 38t-29 48.5t-50.5 38.5t-75.5 17.5h-102q-92 0 -106 -55l-51 -285h178q44 0 75.5 35t41.5 70l9 35h20l-59 -329h-20q1 6 2.5 17t1 38.5t-6 48.5t-23 38t-45.5 17z" />
    <glyph glyph-name="Ecircumflex" unicode="&#xca;" horiz-adv-x="700" 
d="M249 841l215 189l127 -189l-26 -21l-111 170l-189 -170zM409 380h-179l-52 -290q-3 -17 1 -29t10.5 -18t23 -9t27.5 -3.5t35 -0.5h121q42 0 81 16.5t64.5 40t45.5 47t29 40.5l9 16l17 -10l-80 -180h-611l4 30q6 0 16 -0.5t36 2t46.5 7.5t39 18.5t22.5 32.5l106 600
q5 31 -29 46t-71 14h-37l5 30h581l17 -179l-20 -11q-1 7 -3.5 17.5t-14.5 38t-29 48.5t-50.5 38.5t-75.5 17.5h-102q-92 0 -106 -55l-51 -285h178q44 0 75.5 35t41.5 70l9 35h20l-59 -329h-20q1 6 2.5 17t1 38.5t-6 48.5t-23 38t-45.5 17z" />
    <glyph glyph-name="Edieresis" unicode="&#xcb;" horiz-adv-x="700" 
d="M270 940q0 28 18 44t42 16t42 -16t18 -44t-18 -44t-42 -16t-42 16t-18 44zM470 940q0 28 18 44t42 16t42 -16t18 -44t-18 -44t-42 -16t-42 16t-18 44zM409 380h-179l-52 -290q-3 -17 1 -29t10.5 -18t23 -9t27.5 -3.5t35 -0.5h121q42 0 81 16.5t64.5 40t45.5 47t29 40.5
l9 16l17 -10l-80 -180h-611l4 30q6 0 16 -0.5t36 2t46.5 7.5t39 18.5t22.5 32.5l106 600q5 31 -29 46t-71 14h-37l5 30h581l17 -179l-20 -11q-1 7 -3.5 17.5t-14.5 38t-29 48.5t-50.5 38.5t-75.5 17.5h-102q-92 0 -106 -55l-51 -285h178q44 0 75.5 35t41.5 70l9 35h20
l-59 -329h-20q1 6 2.5 17t1 38.5t-6 48.5t-23 38t-45.5 17z" />
    <glyph glyph-name="Igrave" unicode="&#xcc;" horiz-adv-x="400" 
d="M375 840l-10 -20l-220 180l10 20zM220 690q5 31 -29 46t-71 14h-37l5 30h361l-6 -30q-6 0 -16 0.5t-36 -1.5t-46.5 -7.5t-39 -18.5t-21.5 -33l-107 -600q-5 -31 29 -46t71 -14h37l-4 -30h-360l4 30q6 0 16 -0.5t36 1.5t47 7.5t39.5 18.5t21.5 33z" />
    <glyph glyph-name="Iacute" unicode="&#xcd;" horiz-adv-x="400" 
d="M405 1040l10 -20l-240 -200l-10 20zM220 690q5 31 -29 46t-71 14h-37l5 30h361l-6 -30q-6 0 -16 0.5t-36 -1.5t-46.5 -7.5t-39 -18.5t-21.5 -33l-107 -600q-5 -31 29 -46t71 -14h37l-4 -30h-360l4 30q6 0 16 -0.5t36 1.5t47 7.5t39.5 18.5t21.5 33z" />
    <glyph glyph-name="Icircumflex" unicode="&#xce;" horiz-adv-x="400" 
d="M109 841l215 189l127 -189l-26 -21l-111 170l-189 -170zM220 690q5 31 -29 46t-71 14h-37l5 30h361l-6 -30q-6 0 -16 0.5t-36 -1.5t-46.5 -7.5t-39 -18.5t-21.5 -33l-107 -600q-5 -31 29 -46t71 -14h37l-4 -30h-360l4 30q6 0 16 -0.5t36 1.5t47 7.5t39.5 18.5t21.5 33z
" />
    <glyph glyph-name="Idieresis" unicode="&#xcf;" horiz-adv-x="400" 
d="M130 940q0 28 18 44t42 16t42 -16t18 -44t-18 -44t-42 -16t-42 16t-18 44zM330 940q0 28 18 44t42 16t42 -16t18 -44t-18 -44t-42 -16t-42 16t-18 44zM220 690q5 31 -29 46t-71 14h-37l5 30h361l-6 -30q-6 0 -16 0.5t-36 -1.5t-46.5 -7.5t-39 -18.5t-21.5 -33l-107 -600
q-5 -31 29 -46t71 -14h37l-4 -30h-360l4 30q6 0 16 -0.5t36 1.5t47 7.5t39.5 18.5t21.5 33z" />
    <glyph glyph-name="Ntilde" unicode="&#xd1;" horiz-adv-x="800" 
d="M321 941l15 19q1 0 0 -6t2 -15t8 -17.5t17 -14.5t29 -6q36 0 95 29.5t89 29.5q31 0 47 -17.5t16 -34.5v-18l-13 -19q0 7 -1 17t-15 26.5t-41 16.5q-30 0 -88.5 -30t-94.5 -30q-32 0 -48 17.5t-16 35.5zM96 90l106 600q5 31 -24 46t-61 14h-32l5 30h191l310 -662l101 572
q5 31 -24 46t-61 14h-32l5 30h291l-5 -30q-5 0 -14 0.5t-31.5 -1.5t-40.5 -7.5t-34.5 -18.5t-19.5 -33l-122 -690h-34l-331 707l-109 -617q-5 -31 24 -46t60 -14h32l-4 -30h-290l4 30q5 0 14 -0.5t31.5 1.5t40.5 7.5t34.5 18.5t19.5 33z" />
    <glyph glyph-name="Ograve" unicode="&#xd2;" horiz-adv-x="800" 
d="M577 850l-10 -20l-220 180l10 20zM330 -10q-143 0 -221.5 88.5t-78.5 211.5q0 109 38 204t99.5 159t141 100.5t161.5 36.5q143 0 221.5 -88.5t78.5 -211.5q0 -109 -38 -204t-99.5 -159t-141 -100.5t-161.5 -36.5zM380 50q140 0 235 101t95 269q0 83 -30 151.5t-97 113.5
t-163 45q-140 0 -235 -101t-95 -269q0 -128 77 -219t213 -91z" />
    <glyph glyph-name="Oacute" unicode="&#xd3;" horiz-adv-x="800" 
d="M561 1030l10 -20l-240 -200l-10 20zM330 -10q-143 0 -221.5 88.5t-78.5 211.5q0 109 38 204t99.5 159t141 100.5t161.5 36.5q143 0 221.5 -88.5t78.5 -211.5q0 -109 -38 -204t-99.5 -159t-141 -100.5t-161.5 -36.5zM380 50q140 0 235 101t95 269q0 83 -30 151.5
t-97 113.5t-163 45q-140 0 -235 -101t-95 -269q0 -128 77 -219t213 -91z" />
    <glyph glyph-name="Ocircumflex" unicode="&#xd4;" horiz-adv-x="800" 
d="M363 841l215 189l127 -189l-26 -21l-111 170l-189 -170zM398 -10q-143 0 -221.5 88.5t-78.5 211.5q0 109 38 204t99.5 159t141 100.5t161.5 36.5q143 0 221.5 -88.5t78.5 -211.5q0 -109 -38 -204t-99.5 -159t-141 -100.5t-161.5 -36.5zM448 50q140 0 235 101t95 269
q0 83 -30 151.5t-97 113.5t-163 45q-140 0 -235 -101t-95 -269q0 -128 77 -219t213 -91z" />
    <glyph glyph-name="Otilde" unicode="&#xd5;" horiz-adv-x="800" 
d="M291 941l15 19q1 0 0 -6t2 -15t8 -17.5t17 -14.5t29 -6q36 0 95 29.5t89 29.5q31 0 47 -17.5t16 -34.5v-18l-13 -19q0 7 -1 17t-15 26.5t-41 16.5q-29 0 -88 -30t-95 -30q-32 0 -48 17.5t-16 35.5zM330 -10q-143 0 -221.5 88.5t-78.5 211.5q0 109 38 204t99.5 159
t141 100.5t161.5 36.5q143 0 221.5 -88.5t78.5 -211.5q0 -109 -38 -204t-99.5 -159t-141 -100.5t-161.5 -36.5zM380 50q140 0 235 101t95 269q0 83 -30 151.5t-97 113.5t-163 45q-140 0 -235 -101t-95 -269q0 -128 77 -219t213 -91z" />
    <glyph glyph-name="Odieresis" unicode="&#xd6;" horiz-adv-x="800" 
d="M291 941q6 28 28 44t46 16t38 -16t7 -44q-6 -28 -27.5 -44.5t-45.5 -16.5t-38.5 16.5t-7.5 44.5zM491 941q6 28 28 44t46 16t37.5 -16t7.5 -44t-27.5 -44.5t-45.5 -16.5t-38.5 16.5t-7.5 44.5zM330 -10q-143 0 -221.5 88.5t-78.5 211.5q0 109 38 204t99.5 159t141 100.5
t161.5 36.5q143 0 221.5 -88.5t78.5 -211.5q0 -109 -38 -204t-99.5 -159t-141 -100.5t-161.5 -36.5zM380 50q140 0 235 101t95 269q0 83 -30 151.5t-97 113.5t-163 45q-140 0 -235 -101t-95 -269q0 -128 77 -219t213 -91z" />
    <glyph glyph-name="multiply" unicode="&#xd7;" 
d="M92 136l-21 21l158 158l-158 158l21 22l158 -158l158 158l22 -22l-158 -158l158 -158l-22 -21l-158 158z" />
    <glyph glyph-name="Oslash" unicode="&#xd8;" horiz-adv-x="800" 
d="M330 -10q-93 0 -162 41l-68 -91l-20 20l65 86q-56 41 -85.5 106.5t-29.5 137.5q0 109 38 204t99.5 159t141 100.5t161.5 36.5q112 0 189 -59l81 109l20 -20l-80 -107q90 -85 90 -223q0 -109 -38 -204t-99.5 -159t-141 -100.5t-161.5 -36.5zM90 360q0 -73 27 -138t78 -108
l415 552q-75 64 -190 64q-140 0 -235 -101t-95 -269zM380 50q140 0 235 101t95 269q0 140 -80 227l-412 -550q67 -47 162 -47z" />
    <glyph glyph-name="Ugrave" unicode="&#xd9;" horiz-adv-x="800" 
d="M590 850l-10 -20l-220 180l10 20zM680 690q6 31 -23.5 46t-61.5 14h-32l5 30h291l-6 -30q-5 0 -13.5 0.5t-31 -1.5t-40.5 -7.5t-34 -18.5t-20 -33l-82 -460q-8 -48 -28.5 -89t-54.5 -76t-88.5 -55t-123.5 -20q-130 0 -179.5 66t-28.5 184l80 450q5 31 -29 46t-70 14h-37
l6 30h359l-5 -30q-6 0 -16 0.5t-36 -1.5t-46.5 -7.5t-39 -18.5t-21.5 -33l-80 -450q-18 -104 17.5 -157t143.5 -53q65 0 111 16.5t72 47t39 62t21 74.5z" />
    <glyph glyph-name="Uacute" unicode="&#xda;" horiz-adv-x="800" 
d="M627 1030l10 -20l-240 -200l-10 20zM680 690q6 31 -23.5 46t-61.5 14h-32l5 30h291l-6 -30q-5 0 -13.5 0.5t-31 -1.5t-40.5 -7.5t-34 -18.5t-20 -33l-82 -460q-8 -48 -28.5 -89t-54.5 -76t-88.5 -55t-123.5 -20q-130 0 -179.5 66t-28.5 184l80 450q5 31 -29 46t-70 14
h-37l6 30h359l-5 -30q-6 0 -16 0.5t-36 -1.5t-46.5 -7.5t-39 -18.5t-21.5 -33l-80 -450q-18 -104 17.5 -157t143.5 -53q65 0 111 16.5t72 47t39 62t21 74.5z" />
    <glyph glyph-name="Ucircumflex" unicode="&#xdb;" horiz-adv-x="800" 
d="M339 841l215 189l127 -189l-26 -21l-111 170l-189 -170zM680 690q6 31 -23.5 46t-61.5 14h-32l5 30h291l-6 -30q-5 0 -13.5 0.5t-31 -1.5t-40.5 -7.5t-34 -18.5t-20 -33l-82 -460q-8 -48 -28.5 -89t-54.5 -76t-88.5 -55t-123.5 -20q-130 0 -179.5 66t-28.5 184l80 450
q5 31 -29 46t-70 14h-37l6 30h359l-5 -30q-6 0 -16 0.5t-36 -1.5t-46.5 -7.5t-39 -18.5t-21.5 -33l-80 -450q-18 -104 17.5 -157t143.5 -53q65 0 111 16.5t72 47t39 62t21 74.5z" />
    <glyph glyph-name="Udieresis" unicode="&#xdc;" horiz-adv-x="800" 
d="M342 940q0 28 18 44t42 16t42 -16t18 -44t-18 -44t-42 -16t-42 16t-18 44zM542 940q0 28 18 44t42 16t42 -16t18 -44t-18 -44t-42 -16t-42 16t-18 44zM680 690q6 31 -23.5 46t-61.5 14h-32l5 30h291l-6 -30q-5 0 -13.5 0.5t-31 -1.5t-40.5 -7.5t-34 -18.5t-20 -33
l-82 -460q-8 -48 -28.5 -89t-54.5 -76t-88.5 -55t-123.5 -20q-130 0 -179.5 66t-28.5 184l80 450q5 31 -29 46t-70 14h-37l6 30h359l-5 -30q-6 0 -16 0.5t-36 -1.5t-46.5 -7.5t-39 -18.5t-21.5 -33l-80 -450q-18 -104 17.5 -157t143.5 -53q65 0 111 16.5t72 47t39 62
t21 74.5z" />
    <glyph glyph-name="Yacute" unicode="&#xdd;" horiz-adv-x="800" 
d="M625 1040l10 -20l-240 -200l-10 20zM321 90l37 210l-157 401q-11 28 -41.5 40.5t-55.5 10.5l-24 -2l5 30h320l-5 -30l-50 2q-80 -4 -76 -47q1 -7 4 -15l136 -355l244 345q24 31 17 47t-31.5 21t-73.5 2l5 30h281l-6 -30q-64 4 -90.5 -9t-61.5 -61l-276 -380l-37 -210
q-5 -31 29 -46t71 -14h37l-5 -30h-360l4 30q6 0 16 -0.5t36 1.5t47 7.5t39.5 18.5t21.5 33z" />
    <glyph glyph-name="germandbls" unicode="&#xdf;" horiz-adv-x="700" 
d="M420 -10q-43 0 -78.5 15t-49.5 30l-14 15l-55 -60l-30 220l22 10q2 -8 6.5 -21.5t21.5 -48t38.5 -61t59.5 -48t83 -21.5q52 0 81 21t29 59q0 36 -28 61t-67.5 42l-79 35.5t-67.5 51.5t-28 80q0 64 47.5 102t108.5 38q53 0 93 -21q35 116 11 183.5t-104 67.5
q-60 0 -109 -45.5t-68 -118.5l-113 -446q-85 -370 -310 -370q-40 0 -40 30q0 23 32 50h98q35 0 61.5 14.5t42.5 34.5t30 58t20 65.5t16 77.5l68 360h-91l11 50h89l13 70q2 14 30 49t67 73.5t90 68t93 29.5q68 0 101 -45.5t31.5 -118.5t-32.5 -165l-10 -21q-3 4 -10.5 11
t-35.5 18t-64 11q-44 0 -70 -23t-26 -67q0 -36 26 -62t62.5 -43l73 -35t62.5 -48.5t26 -71.5q0 -64 -48.5 -102t-115.5 -38z" />
    <glyph glyph-name="agrave" unicode="&#xe0;" horiz-adv-x="600" 
d="M486 610l-10 -20l-220 180l10 20zM390 90l25 110q-13 -29 -32.5 -59.5t-51.5 -67t-77 -60t-94 -23.5q-61 0 -100.5 35.5t-39.5 94.5q0 83 62 118.5t180 46.5q105 10 154 37t49 78q0 35 -31.5 62.5t-93.5 27.5q-52 0 -85 -11t-45 -28t-19 -36t-8.5 -36t-11.5 -28t-31 -11
q-40 0 -40 40q0 57 71 93.5t159 36.5q117 0 164.5 -46t20.5 -122l-75 -212q-12 -29 -4 -44.5t17 -20.5t17 -5t35 29t55 71l20 -10q-120 -150 -130 -150h-20q-19 0 -34 24.5t-6 65.5zM263 262q-90 -11 -131.5 -38t-41.5 -84q0 -44 27 -67t73 -23q31 0 60.5 11t50.5 26
t43.5 40.5t34.5 43t27.5 46t19 36.5l12.5 28l22 49q-35 -47 -197 -68z" />
    <glyph glyph-name="aacute" unicode="&#xe1;" horiz-adv-x="600" 
d="M536 790l10 -20l-240 -200l-10 20zM390 90l25 110q-13 -29 -32.5 -59.5t-51.5 -67t-77 -60t-94 -23.5q-61 0 -100.5 35.5t-39.5 94.5q0 83 62 118.5t180 46.5q105 10 154 37t49 78q0 35 -31.5 62.5t-93.5 27.5q-52 0 -85 -11t-45 -28t-19 -36t-8.5 -36t-11.5 -28t-31 -11
q-40 0 -40 40q0 57 71 93.5t159 36.5q117 0 164.5 -46t20.5 -122l-75 -212q-12 -29 -4 -44.5t17 -20.5t17 -5t35 29t55 71l20 -10q-120 -150 -130 -150h-20q-19 0 -34 24.5t-6 65.5zM263 262q-90 -11 -131.5 -38t-41.5 -84q0 -44 27 -67t73 -23q31 0 60.5 11t50.5 26
t43.5 40.5t34.5 43t27.5 46t19 36.5l12.5 28l22 49q-35 -47 -197 -68z" />
    <glyph glyph-name="acircumflex" unicode="&#xe2;" horiz-adv-x="600" 
d="M180 601l215 189l126 -189l-26 -21l-109 170l-191 -170zM390 90l25 110q-13 -29 -32.5 -59.5t-51.5 -67t-77 -60t-94 -23.5q-61 0 -100.5 35.5t-39.5 94.5q0 83 62 118.5t180 46.5q105 10 154 37t49 78q0 35 -31.5 62.5t-93.5 27.5q-52 0 -85 -11t-45 -28t-19 -36
t-8.5 -36t-11.5 -28t-31 -11q-40 0 -40 40q0 57 71 93.5t159 36.5q117 0 164.5 -46t20.5 -122l-75 -212q-12 -29 -4 -44.5t17 -20.5t17 -5t35 29t55 71l20 -10q-120 -150 -130 -150h-20q-19 0 -34 24.5t-6 65.5zM263 262q-90 -11 -131.5 -38t-41.5 -84q0 -44 27 -67t73 -23
q31 0 60.5 11t50.5 26t43.5 40.5t34.5 43t27.5 46t19 36.5l12.5 28l22 49q-35 -47 -197 -68z" />
    <glyph glyph-name="atilde" unicode="&#xe3;" horiz-adv-x="600" 
d="M200 701l15 19q1 0 0 -6t2 -15t8 -17.5t17 -14.5t29 -6q36 0 95.5 29.5t88.5 29.5q32 0 47.5 -17.5t15.5 -34.5v-18l-13 -19v6t-3 14.5t-8 18t-17 14t-29 6.5q-30 0 -89 -29.5t-94 -29.5q-31 0 -47.5 17.5t-17.5 35.5v17zM390 90l25 110q-13 -29 -32.5 -59.5t-51.5 -67
t-77 -60t-94 -23.5q-61 0 -100.5 35.5t-39.5 94.5q0 83 62 118.5t180 46.5q105 10 154 37t49 78q0 35 -31.5 62.5t-93.5 27.5q-52 0 -85 -11t-45 -28t-19 -36t-8.5 -36t-11.5 -28t-31 -11q-40 0 -40 40q0 57 71 93.5t159 36.5q117 0 164.5 -46t20.5 -122l-75 -212
q-12 -29 -4 -44.5t17 -20.5t17 -5t35 29t55 71l20 -10q-120 -150 -130 -150h-20q-19 0 -34 24.5t-6 65.5zM263 262q-90 -11 -131.5 -38t-41.5 -84q0 -44 27 -67t73 -23q31 0 60.5 11t50.5 26t43.5 40.5t34.5 43t27.5 46t19 36.5l12.5 28l22 49q-35 -47 -197 -68z" />
    <glyph glyph-name="adieresis" unicode="&#xe4;" horiz-adv-x="600" 
d="M213 680q0 28 18 44t42 16t42 -16t18 -44t-18 -44t-42 -16t-42 16t-18 44zM413 680q0 28 18 44t42 16t42 -16t18 -44t-18 -44t-42 -16t-42 16t-18 44zM390 90l25 110q-13 -29 -32.5 -59.5t-51.5 -67t-77 -60t-94 -23.5q-61 0 -100.5 35.5t-39.5 94.5q0 83 62 118.5
t180 46.5q105 10 154 37t49 78q0 35 -31.5 62.5t-93.5 27.5q-52 0 -85 -11t-45 -28t-19 -36t-8.5 -36t-11.5 -28t-31 -11q-40 0 -40 40q0 57 71 93.5t159 36.5q117 0 164.5 -46t20.5 -122l-75 -212q-12 -29 -4 -44.5t17 -20.5t17 -5t35 29t55 71l20 -10q-120 -150 -130 -150
h-20q-19 0 -34 24.5t-6 65.5zM263 262q-90 -11 -131.5 -38t-41.5 -84q0 -44 27 -67t73 -23q31 0 60.5 11t50.5 26t43.5 40.5t34.5 43t27.5 46t19 36.5l12.5 28l22 49q-35 -47 -197 -68z" />
    <glyph glyph-name="aring" unicode="&#xe5;" horiz-adv-x="600" 
d="M480 701q-9 -45 -47.5 -72.5t-85.5 -27.5q-46 0 -71.5 27.5t-15.5 72.5t48.5 72.5t85.5 27.5t72 -27.5t14 -72.5zM440 701q8 34 -5.5 56.5t-45.5 22.5q-33 0 -57 -22.5t-32 -56.5q-7 -35 6 -58t46 -23q32 0 56.5 23t31.5 58zM390 90l25 110q-13 -29 -32.5 -59.5
t-51.5 -67t-77 -60t-94 -23.5q-61 0 -100.5 35.5t-39.5 94.5q0 83 62 118.5t180 46.5q105 10 154 37t49 78q0 35 -31.5 62.5t-93.5 27.5q-52 0 -85 -11t-45 -28t-19 -36t-8.5 -36t-11.5 -28t-31 -11q-40 0 -40 40q0 57 71 93.5t159 36.5q117 0 164.5 -46t20.5 -122l-75 -212
q-12 -29 -4 -44.5t17 -20.5t17 -5t35 29t55 71l20 -10q-120 -150 -130 -150h-20q-19 0 -34 24.5t-6 65.5zM263 262q-90 -11 -131.5 -38t-41.5 -84q0 -44 27 -67t73 -23q31 0 60.5 11t50.5 26t43.5 40.5t34.5 43t27.5 46t19 36.5l12.5 28l22 49q-35 -47 -197 -68z" />
    <glyph glyph-name="ae" unicode="&#xe6;" horiz-adv-x="900" 
d="M880 210q-4 -9 -12 -24t-34 -52.5t-55.5 -66.5t-75 -53t-93.5 -24q-82 0 -126 49.5t-44 140.5q0 13 1 20h-11q-12 -27 -35 -59.5t-57 -68t-81.5 -59t-96.5 -23.5q-61 0 -100.5 35.5t-39.5 94.5q0 83 62 118.5t180 46.5q105 10 154 37t49 78q0 35 -31.5 62.5t-93.5 27.5
q-52 0 -85 -11t-45 -28t-19 -36t-8.5 -36t-11.5 -28t-31 -11q-40 0 -40 40q0 57 71 93.5t159 36.5q91 0 139 -29.5t51 -80.5q41 51 93.5 80.5t106.5 29.5q39 0 66.5 -15t38 -36t16 -43t-0.5 -36l-30 -120h-318q-2 -20 -2 -30q0 -77 43.5 -128.5t116.5 -51.5q45 0 83 17.5
t60.5 42.5t38.5 50t22 42l6 18zM790 310v30q0 110 -110 110q-62 0 -109.5 -39t-67.5 -101h287zM263 262q-90 -11 -131.5 -38t-41.5 -84q0 -44 27 -67t73 -23q31 0 60.5 11t50.5 26t43.5 40.5t34.5 43t27.5 46t19 36.5l12.5 28l22 49q-35 -47 -197 -68z" />
    <glyph glyph-name="ccedilla" unicode="&#xe7;" 
d="M82 -180l24 19q1 -2 2 -6t7.5 -14.5t15 -18t24 -14t35.5 -6.5q22 0 41 11.5t19 38.5q0 30 -23 48.5t-53 11.5l-5 20l98 87q-24 -7 -57 -7q-82 0 -126 49.5t-44 140.5q0 127 87 228.5t193 101.5q42 0 73 -12.5t45 -27.5t22 -38.5t9 -35t1 -26.5q0 -28 -15.5 -44t-34.5 -16
q-40 0 -40 40q0 15 5 35t5 35q0 25 -17.5 42.5t-52.5 17.5q-96 0 -163 -75.5t-67 -174.5q0 -77 43.5 -128.5t116.5 -51.5q53 0 93 28t137 132l20 -10q-23 -24 -60 -66t-59 -64t-42 -38l-139 -122q26 17 63 -2.5t37 -67.5q0 -43 -31 -66.5t-79 -23.5q-25 0 -45.5 7
t-31.5 17.5t-18.5 21t-10.5 17.5z" />
    <glyph glyph-name="egrave" unicode="&#xe8;" 
d="M421 610l-10 -20l-220 180l10 20zM480 210q-4 -9 -12 -24t-34 -52.5t-55.5 -66.5t-75 -53t-93.5 -24q-82 0 -126 49.5t-44 140.5q0 127 87 228.5t193 101.5q39 0 66.5 -15t38 -36t16 -43t-0.5 -36l-30 -120h-318q-2 -20 -2 -30q0 -77 43.5 -128.5t116.5 -51.5
q45 0 83 17.5t60.5 42.5t38.5 50t22 42l6 18zM390 310v30q0 110 -110 110q-62 0 -109.5 -39t-67.5 -101h287z" />
    <glyph glyph-name="eacute" unicode="&#xe9;" 
d="M459 790l10 -20l-240 -200l-10 20zM480 210q-4 -9 -12 -24t-34 -52.5t-55.5 -66.5t-75 -53t-93.5 -24q-82 0 -126 49.5t-44 140.5q0 127 87 228.5t193 101.5q39 0 66.5 -15t38 -36t16 -43t-0.5 -36l-30 -120h-318q-2 -20 -2 -30q0 -77 43.5 -128.5t116.5 -51.5
q45 0 83 17.5t60.5 42.5t38.5 50t22 42l6 18zM390 310v30q0 110 -110 110q-62 0 -109.5 -39t-67.5 -101h287z" />
    <glyph glyph-name="ecircumflex" unicode="&#xea;" 
d="M138 601l215 189l126 -189l-26 -21l-109 170l-191 -170zM470 210q-4 -9 -12 -24t-34 -52.5t-55.5 -66.5t-75 -53t-93.5 -24q-82 0 -126 49.5t-44 140.5q0 127 87 228.5t193 101.5q39 0 66.5 -15t38 -36t16 -43t-0.5 -36l-30 -120h-318q-2 -20 -2 -30q0 -77 43.5 -128.5
t116.5 -51.5q45 0 83 17.5t60.5 42.5t38.5 50t22 42l6 18zM380 310v30q0 110 -110 110q-62 0 -109.5 -39t-67.5 -101h287z" />
    <glyph glyph-name="edieresis" unicode="&#xeb;" 
d="M250 680q0 28 18 44t42 16t42 -16t18 -44t-18 -44t-42 -16t-42 16t-18 44zM450 680q0 28 18 44t42 16t42 -16t18 -44t-18 -44t-42 -16t-42 16t-18 44zM550 210q-4 -9 -12 -24t-34 -52.5t-55.5 -66.5t-75 -53t-93.5 -24q-82 0 -126 49.5t-44 140.5q0 127 87 228.5
t193 101.5q39 0 66.5 -15t38 -36t16 -43t-0.5 -36l-30 -120h-318q-2 -20 -2 -30q0 -77 43.5 -128.5t116.5 -51.5q45 0 83 17.5t60.5 42.5t38.5 50t22 42l6 18zM460 310v30q0 110 -110 110q-62 0 -109.5 -39t-67.5 -101h287z" />
    <glyph glyph-name="igrave" unicode="&#xec;" horiz-adv-x="300" 
d="M265 610l-10 -20l-220 180l10 20zM240 500l-130 -370q-12 -29 -4 -44.5t17 -20.5t17 -5t35 29t55 71l20 -10q-120 -150 -130 -150h-20q-20 0 -35.5 24.5t-4.5 65.5l90 360h-110l10 50h190z" />
    <glyph glyph-name="iacute" unicode="&#xed;" horiz-adv-x="300" 
d="M285 790l10 -20l-240 -200l-10 20zM240 500l-130 -370q-12 -29 -4 -44.5t17 -20.5t17 -5t35 29t55 71l20 -10q-120 -150 -130 -150h-20q-20 0 -35.5 24.5t-4.5 65.5l90 360h-110l10 50h190z" />
    <glyph glyph-name="icircumflex" unicode="&#xee;" horiz-adv-x="300" 
d="M10 601l215 189l126 -189l-26 -21l-109 170l-191 -170zM240 500l-130 -370q-12 -29 -4 -44.5t17 -20.5t17 -5t35 29t55 71l20 -10q-120 -150 -130 -150h-20q-20 0 -35.5 24.5t-4.5 65.5l90 360h-110l10 50h190z" />
    <glyph glyph-name="idieresis" unicode="&#xef;" horiz-adv-x="300" 
d="M53 680q0 28 18 44t42 16t42 -16t18 -44t-18 -44t-42 -16t-42 16t-18 44zM253 680q0 28 18 44t42 16t42 -16t18 -44t-18 -44t-42 -16t-42 16t-18 44zM240 500l-130 -370q-12 -29 -4 -44.5t17 -20.5t17 -5t35 29t55 71l20 -10q-120 -150 -130 -150h-20q-20 0 -35.5 24.5
t-4.5 65.5l90 360h-110l10 50h190z" />
    <glyph glyph-name="ntilde" unicode="&#xf1;" horiz-adv-x="600" 
d="M210 701l15 19q1 0 0 -6t2 -15t8 -17.5t17 -14.5t29 -6q36 0 95.5 29.5t88.5 29.5q32 0 47.5 -17.5t15.5 -34.5v-18l-13 -19v6t-3 14.5t-8 18t-17 14t-29 6.5q-30 0 -89 -29.5t-94 -29.5q-31 0 -47.5 17.5t-17.5 35.5v17zM470 60q8 0 35 29t55 71l20 -10
q-120 -150 -130 -150h-20q-20 0 -35.5 24.5t-4.5 65.5l60 220q18 67 -6 103.5t-84 36.5q-56 0 -99.5 -42.5t-80.5 -157.5l-80 -250h-60l110 450h-110l10 50h170l-100 -320h14l46 130q71 200 230 200q43 0 71 -15.5t38.5 -40t10.5 -51t-10 -53.5l-80 -220q-12 -29 -4 -44.5
t17 -20.5t17 -5z" />
    <glyph glyph-name="ograve" unicode="&#xf2;" 
d="M455 610l-10 -20l-220 180l10 20zM195 -10q-78 0 -124 48t-46 142q0 127 87 228.5t193 101.5q78 0 124 -48t46 -142q0 -127 -87 -228.5t-193 -101.5zM235 50q81 0 135.5 64.5t54.5 155.5q0 77 -43.5 128.5t-116.5 51.5q-81 0 -135.5 -64.5t-54.5 -155.5
q0 -77 43.5 -128.5t116.5 -51.5z" />
    <glyph glyph-name="oacute" unicode="&#xf3;" 
d="M469 790l10 -20l-240 -200l-10 20zM195 -10q-78 0 -124 48t-46 142q0 127 87 228.5t193 101.5q78 0 124 -48t46 -142q0 -127 -87 -228.5t-193 -101.5zM235 50q81 0 135.5 64.5t54.5 155.5q0 77 -43.5 128.5t-116.5 51.5q-81 0 -135.5 -64.5t-54.5 -155.5
q0 -77 43.5 -128.5t116.5 -51.5z" />
    <glyph glyph-name="ocircumflex" unicode="&#xf4;" 
d="M160 601l215 189l126 -189l-26 -21l-109 170l-191 -170zM195 -10q-78 0 -124 48t-46 142q0 127 87 228.5t193 101.5q78 0 124 -48t46 -142q0 -127 -87 -228.5t-193 -101.5zM235 50q81 0 135.5 64.5t54.5 155.5q0 77 -43.5 128.5t-116.5 51.5q-81 0 -135.5 -64.5
t-54.5 -155.5q0 -77 43.5 -128.5t116.5 -51.5z" />
    <glyph glyph-name="otilde" unicode="&#xf5;" 
d="M170 701l15 19q1 0 0 -6t2 -15t8 -17.5t17 -14.5t29 -6q36 0 95.5 29.5t88.5 29.5q32 0 47.5 -17.5t15.5 -34.5v-18l-13 -19v6t-3 14.5t-8 18t-17 14t-29 6.5q-30 0 -89 -29.5t-94 -29.5q-31 0 -47.5 17.5t-17.5 35.5v17zM195 -10q-78 0 -124 48t-46 142q0 127 87 228.5
t193 101.5q78 0 124 -48t46 -142q0 -127 -87 -228.5t-193 -101.5zM235 50q81 0 135.5 64.5t54.5 155.5q0 77 -43.5 128.5t-116.5 51.5q-81 0 -135.5 -64.5t-54.5 -155.5q0 -77 43.5 -128.5t116.5 -51.5z" />
    <glyph glyph-name="odieresis" unicode="&#xf6;" 
d="M173 680q0 28 18 44t42 16t42 -16t18 -44t-18 -44t-42 -16t-42 16t-18 44zM373 680q0 28 18 44t42 16t42 -16t18 -44t-18 -44t-42 -16t-42 16t-18 44zM195 -10q-78 0 -124 48t-46 142q0 127 87 228.5t193 101.5q78 0 124 -48t46 -142q0 -127 -87 -228.5t-193 -101.5z
M235 50q81 0 135.5 64.5t54.5 155.5q0 77 -43.5 128.5t-116.5 51.5q-81 0 -135.5 -64.5t-54.5 -155.5q0 -77 43.5 -128.5t116.5 -51.5z" />
    <glyph glyph-name="divide" unicode="&#xf7;" 
d="M230 480q0 28 18 44t42 16t42 -16t18 -44t-18 -44t-42 -16t-42 16t-18 44zM40 300l6 30h414l-6 -30h-414zM160 150q0 28 18 44t42 16t42 -16t18 -44t-18 -44t-42 -16t-42 16t-18 44z" />
    <glyph glyph-name="oslash" unicode="&#xf8;" 
d="M195 -10q-33 0 -61 9l-104 -199l-20 20l99 189q-84 44 -84 171t87 228.5t193 101.5q33 0 61 -9l104 199l20 -20l-99 -189q84 -44 84 -171t-87 -228.5t-193 -101.5zM75 230q0 -104 70 -152l187 358q-31 14 -67 14q-81 0 -135.5 -64.5t-54.5 -155.5zM235 50
q81 0 135.5 64.5t54.5 155.5q0 104 -70 152l-187 -358q31 -14 67 -14z" />
    <glyph glyph-name="ugrave" unicode="&#xf9;" horiz-adv-x="600" 
d="M420 610l-10 -20l-220 180l10 20zM390 90l60 230h-14l-26 -70q-54 -144 -111 -202t-129 -58q-67 0 -93.5 49.5t-6.5 130.5l70 280h-110l10 50h190l-110 -310q-23 -63 1.5 -101.5t78.5 -38.5q27 0 49 7t39.5 24t29.5 31.5t25 43.5t19 44.5t18 49.5l90 250h60l-90 -371
q-9 -30 -1 -45t15.5 -19.5t15.5 -4.5t35 29t55 71l20 -10q-120 -150 -130 -150h-20q-19 0 -35 24.5t-5 65.5z" />
    <glyph glyph-name="uacute" unicode="&#xfa;" horiz-adv-x="600" 
d="M500 790l10 -20l-240 -200l-10 20zM390 90l60 230h-14l-26 -70q-54 -144 -111 -202t-129 -58q-67 0 -93.5 49.5t-6.5 130.5l70 280h-110l10 50h190l-110 -310q-23 -63 1.5 -101.5t78.5 -38.5q27 0 49 7t39.5 24t29.5 31.5t25 43.5t19 44.5t18 49.5l90 250h60l-90 -371
q-9 -30 -1 -45t15.5 -19.5t15.5 -4.5t35 29t55 71l20 -10q-120 -150 -130 -150h-20q-19 0 -35 24.5t-5 65.5z" />
    <glyph glyph-name="ucircumflex" unicode="&#xfb;" horiz-adv-x="600" 
d="M160 601l215 189l126 -189l-26 -21l-109 170l-191 -170zM390 90l60 230h-14l-26 -70q-54 -144 -111 -202t-129 -58q-67 0 -93.5 49.5t-6.5 130.5l70 280h-110l10 50h190l-110 -310q-23 -63 1.5 -101.5t78.5 -38.5q27 0 49 7t39.5 24t29.5 31.5t25 43.5t19 44.5t18 49.5
l90 250h60l-90 -371q-9 -30 -1 -45t15.5 -19.5t15.5 -4.5t35 29t55 71l20 -10q-120 -150 -130 -150h-20q-19 0 -35 24.5t-5 65.5z" />
    <glyph glyph-name="udieresis" unicode="&#xfc;" horiz-adv-x="600" 
d="M173 680q0 28 18 44t42 16t42 -16t18 -44t-18 -44t-42 -16t-42 16t-18 44zM373 680q0 28 18 44t42 16t42 -16t18 -44t-18 -44t-42 -16t-42 16t-18 44zM390 90l60 230h-14l-26 -70q-54 -144 -111 -202t-129 -58q-67 0 -93.5 49.5t-6.5 130.5l70 280h-110l10 50h190
l-110 -310q-23 -63 1.5 -101.5t78.5 -38.5q27 0 49 7t39.5 24t29.5 31.5t25 43.5t19 44.5t18 49.5l90 250h60l-90 -371q-9 -30 -1 -45t15.5 -19.5t15.5 -4.5t35 29t55 71l20 -10q-120 -150 -130 -150h-20q-19 0 -35 24.5t-5 65.5z" />
    <glyph glyph-name="yacute" unicode="&#xfd;" 
d="M475 790l10 -20l-240 -200l-10 20zM209 410l-40 -360l266 350q9 12 13 24t3 19t-6 7h-90l10 50h144l10 -10q0 -47 -35 -90l-230 -286q-109 -135 -234.5 -239.5t-214.5 -104.5q-40 0 -40 30q0 23 32 50h128q16 0 69.5 35.5t89.5 71.5q12 12 19.5 22.5t14 34t7.5 56.5
l9 320q1 27 -14.5 38.5t-29.5 11.5q-8 0 -35 -29t-55 -71l-20 10q120 150 130 150h20q25 0 54.5 -22.5t24.5 -67.5z" />
    <glyph glyph-name="ydieresis" unicode="&#xff;" 
d="M173 680q0 28 18 44t42 16t42 -16t18 -44t-18 -44t-42 -16t-42 16t-18 44zM373 680q0 28 18 44t42 16t42 -16t18 -44t-18 -44t-42 -16t-42 16t-18 44zM209 410l-40 -360l266 350q9 12 13 24t3 19t-6 7h-90l10 50h144l10 -10q0 -47 -35 -90l-230 -286
q-109 -135 -234.5 -239.5t-214.5 -104.5q-40 0 -40 30q0 23 32 50h128q16 0 69.5 35.5t89.5 71.5q12 12 19.5 22.5t14 34t7.5 56.5l9 320q1 27 -14.5 38.5t-29.5 11.5q-8 0 -35 -29t-55 -71l-20 10q120 150 130 150h20q25 0 54.5 -22.5t24.5 -67.5z" />
    <glyph glyph-name="Amacron" unicode="&#x100;" horiz-adv-x="800" 
d="M316 870l7 30h321l-7 -30h-321zM220 0h-280l4 30q66 -4 90.5 8t52.5 62l368 660l46 30l133 -710q5 -29 33 -41.5t53 -10.5l25 2l-4 -30h-321l4 30q6 -1 15.5 -1.5t34 1t42.5 6.5t31 19t9 35l-33 190h-298l-98 -180q-25 -47 -1 -60.5t98 -9.5zM241 310h277l-66 389z" />
    <glyph glyph-name="amacron" unicode="&#x101;" horiz-adv-x="600" 
d="M218 660l7 30h321l-7 -30h-321zM390 90l25 110q-13 -29 -32.5 -59.5t-51.5 -67t-77 -60t-94 -23.5q-61 0 -100.5 35.5t-39.5 94.5q0 83 62 118.5t180 46.5q105 10 154 37t49 78q0 35 -31.5 62.5t-93.5 27.5q-52 0 -85 -11t-45 -28t-19 -36t-8.5 -36t-11.5 -28t-31 -11
q-40 0 -40 40q0 57 71 93.5t159 36.5q117 0 164.5 -46t20.5 -122l-75 -212q-12 -29 -4 -44.5t17 -20.5t17 -5t35 29t55 71l20 -10q-120 -150 -130 -150h-20q-19 0 -34 24.5t-6 65.5zM263 262q-90 -11 -131.5 -38t-41.5 -84q0 -44 27 -67t73 -23q31 0 60.5 11t50.5 26
t43.5 40.5t34.5 43t27.5 46t19 36.5l12.5 28l22 49q-35 -47 -197 -68z" />
    <glyph glyph-name="Abreve" unicode="&#x102;" horiz-adv-x="800" 
d="M410 1030q-12 -51 12 -85.5t81 -34.5t96 34t51 86h30q-15 -66 -65.5 -113t-121.5 -47t-99.5 47t-13.5 113h30zM220 0h-280l4 30q66 -4 90.5 8t52.5 62l368 660l46 30l133 -710q5 -29 33 -41.5t53 -10.5l25 2l-4 -30h-321l4 30q6 -1 15.5 -1.5t34 1t42.5 6.5t31 19t9 35
l-33 190h-298l-98 -180q-25 -47 -1 -60.5t98 -9.5zM241 310h277l-66 389z" />
    <glyph glyph-name="abreve" unicode="&#x103;" horiz-adv-x="600" 
d="M250 790q-12 -51 12 -85.5t81 -34.5t96 34t51 86h30q-15 -66 -65.5 -113t-121.5 -47t-99.5 47t-13.5 113h30zM390 90l25 110q-13 -29 -32.5 -59.5t-51.5 -67t-77 -60t-94 -23.5q-61 0 -100.5 35.5t-39.5 94.5q0 83 62 118.5t180 46.5q105 10 154 37t49 78
q0 35 -31.5 62.5t-93.5 27.5q-52 0 -85 -11t-45 -28t-19 -36t-8.5 -36t-11.5 -28t-31 -11q-40 0 -40 40q0 57 71 93.5t159 36.5q117 0 164.5 -46t20.5 -122l-75 -212q-12 -29 -4 -44.5t17 -20.5t17 -5t35 29t55 71l20 -10q-120 -150 -130 -150h-20q-19 0 -34 24.5t-6 65.5z
M263 262q-90 -11 -131.5 -38t-41.5 -84q0 -44 27 -67t73 -23q31 0 60.5 11t50.5 26t43.5 40.5t34.5 43t27.5 46t19 36.5l12.5 28l22 49q-35 -47 -197 -68z" />
    <glyph glyph-name="Cacute" unicode="&#x106;" horiz-adv-x="700" 
d="M595 1040l10 -20l-240 -200l-10 20zM450 790q49 0 91.5 -12.5t60.5 -25.5l18 -12l51 50l21 -240l-21 -10q-5 30 -19.5 63t-41 67.5t-73.5 57t-107 22.5q-144 0 -240.5 -109.5t-96.5 -280.5q0 -128 68 -219t189 -91q62 0 115 22.5t85 55t55 65t33 55.5l9 22l19 -10
q-4 -11 -12 -29t-39 -64.5t-68.5 -82.5t-101 -65t-135.5 -29q-59 0 -107 18t-79.5 47.5t-53 68.5t-31 80.5t-9.5 85.5q0 109 36 204t95 159t134.5 100.5t154.5 36.5z" />
    <glyph glyph-name="cacute" unicode="&#x107;" 
d="M465 790l10 -20l-240 -200l-10 20zM470 370q0 -28 -15.5 -44t-34.5 -16q-40 0 -40 40q0 15 5 35t5 35q0 25 -17.5 42.5t-52.5 17.5q-96 0 -163 -75.5t-67 -174.5q0 -77 43.5 -128.5t116.5 -51.5q45 0 83 17.5t60.5 42.5t38.5 50t22 42l6 18l20 -10q-4 -9 -12 -24
t-34 -52.5t-55.5 -66.5t-75 -53t-93.5 -24q-82 0 -126 49.5t-44 140.5q0 127 87 228.5t193 101.5q42 0 73 -12.5t45 -27.5t22 -38.5t9 -35t1 -26.5z" />
    <glyph glyph-name="Ccircumflex" unicode="&#x108;" horiz-adv-x="700" 
d="M279 841l215 189l127 -189l-26 -21l-111 170l-189 -170zM450 790q49 0 91.5 -12.5t60.5 -25.5l18 -12l51 50l21 -240l-21 -10q-5 30 -19.5 63t-41 67.5t-73.5 57t-107 22.5q-144 0 -240.5 -109.5t-96.5 -280.5q0 -128 68 -219t189 -91q62 0 115 22.5t85 55t55 65t33 55.5
l9 22l19 -10q-4 -11 -12 -29t-39 -64.5t-68.5 -82.5t-101 -65t-135.5 -29q-59 0 -107 18t-79.5 47.5t-53 68.5t-31 80.5t-9.5 85.5q0 109 36 204t95 159t134.5 100.5t154.5 36.5z" />
    <glyph glyph-name="ccircumflex" unicode="&#x109;" 
d="M160 601l215 189l126 -189l-26 -21l-109 170l-191 -170zM470 370q0 -28 -15.5 -44t-34.5 -16q-40 0 -40 40q0 15 5 35t5 35q0 25 -17.5 42.5t-52.5 17.5q-96 0 -163 -75.5t-67 -174.5q0 -77 43.5 -128.5t116.5 -51.5q45 0 83 17.5t60.5 42.5t38.5 50t22 42l6 18l20 -10
q-4 -9 -12 -24t-34 -52.5t-55.5 -66.5t-75 -53t-93.5 -24q-82 0 -126 49.5t-44 140.5q0 127 87 228.5t193 101.5q42 0 73 -12.5t45 -27.5t22 -38.5t9 -35t1 -26.5z" />
    <glyph glyph-name="Cdotaccent" unicode="&#x10a;" horiz-adv-x="700" 
d="M390 940q0 29 18 44.5t42 15.5q25 0 42.5 -15.5t17.5 -44.5q0 -28 -18 -44t-42 -16t-42 16t-18 44zM450 790q49 0 91.5 -12.5t60.5 -25.5l18 -12l51 50l21 -240l-21 -10q-5 30 -19.5 63t-41 67.5t-73.5 57t-107 22.5q-144 0 -240.5 -109.5t-96.5 -280.5q0 -128 68 -219
t189 -91q62 0 115 22.5t85 55t55 65t33 55.5l9 22l19 -10q-4 -11 -12 -29t-39 -64.5t-68.5 -82.5t-101 -65t-135.5 -29q-59 0 -107 18t-79.5 47.5t-53 68.5t-31 80.5t-9.5 85.5q0 109 36 204t95 159t134.5 100.5t154.5 36.5z" />
    <glyph glyph-name="cdotaccent" unicode="&#x10b;" 
d="M290 660q0 29 18 44.5t42 15.5q25 0 42.5 -15.5t17.5 -44.5q0 -28 -18 -44t-42 -16t-42 16t-18 44zM470 370q0 -28 -15.5 -44t-34.5 -16q-40 0 -40 40q0 15 5 35t5 35q0 25 -17.5 42.5t-52.5 17.5q-96 0 -163 -75.5t-67 -174.5q0 -77 43.5 -128.5t116.5 -51.5
q45 0 83 17.5t60.5 42.5t38.5 50t22 42l6 18l20 -10q-4 -9 -12 -24t-34 -52.5t-55.5 -66.5t-75 -53t-93.5 -24q-82 0 -126 49.5t-44 140.5q0 127 87 228.5t193 101.5q42 0 73 -12.5t45 -27.5t22 -38.5t9 -35t1 -26.5z" />
    <glyph glyph-name="Ccaron" unicode="&#x10c;" horiz-adv-x="700" 
d="M660 1009l-215 -189l-127 189l26 21l111 -170l189 170zM450 790q49 0 91.5 -12.5t60.5 -25.5l18 -12l51 50l21 -240l-21 -10q-5 30 -19.5 63t-41 67.5t-73.5 57t-107 22.5q-144 0 -240.5 -109.5t-96.5 -280.5q0 -128 68 -219t189 -91q62 0 115 22.5t85 55t55 65t33 55.5
l9 22l19 -10q-4 -11 -12 -29t-39 -64.5t-68.5 -82.5t-101 -65t-135.5 -29q-59 0 -107 18t-79.5 47.5t-53 68.5t-31 80.5t-9.5 85.5q0 109 36 204t95 159t134.5 100.5t154.5 36.5z" />
    <glyph glyph-name="ccaron" unicode="&#x10d;" 
d="M521 769l-215 -189l-127 189l26 21l111 -170l189 170zM470 370q0 -28 -15.5 -44t-34.5 -16q-40 0 -40 40q0 15 5 35t5 35q0 25 -17.5 42.5t-52.5 17.5q-96 0 -163 -75.5t-67 -174.5q0 -77 43.5 -128.5t116.5 -51.5q45 0 83 17.5t60.5 42.5t38.5 50t22 42l6 18l20 -10
q-4 -9 -12 -24t-34 -52.5t-55.5 -66.5t-75 -53t-93.5 -24q-82 0 -126 49.5t-44 140.5q0 127 87 228.5t193 101.5q42 0 73 -12.5t45 -27.5t22 -38.5t9 -35t1 -26.5z" />
    <glyph glyph-name="Dcaron" unicode="&#x10e;" horiz-adv-x="800" 
d="M615 1009l-215 -189l-127 189l26 21l111 -170l189 170zM90 780h371q82 0 144 -26t97 -70.5t51.5 -95.5t16.5 -108q0 -203 -132.5 -341.5t-327.5 -138.5h-358l4 30q6 0 16 -0.5t36 2t46.5 7.5t39 18.5t22.5 32.5l106 600q6 31 -28.5 46t-71.5 14h-37zM393 750
q-91 0 -106 -54l-108 -606q-4 -21 5.5 -34.5t33 -18.5t40.5 -6t48 -1q74 0 137.5 26.5t108 72t76.5 104.5t47 124.5t15 132.5q0 38 -5 69.5t-22 69t-45.5 62.5t-80.5 42t-122 17h-22z" />
    <glyph glyph-name="dcaron" unicode="&#x10f;" horiz-adv-x="800" 
d="M680 730q0 28 18 44t42 16t42 -16t18 -44q0 -23 -11 -36l-139 -174l-10 20l130 160q-20 -20 -40 -20q-19 0 -34.5 11.5t-15.5 38.5zM381 90l8 38q-44 -67 -100 -102.5t-109 -35.5q-68 0 -104 43.5t-36 125.5q0 133 102.5 242t217.5 109q73 0 100 -68l61 288h-100l10 50
h180l-180 -650q-10 -29 -2 -44.5t16 -20.5t16 -5t35 29t55 71l20 -10q-120 -150 -130 -150h-20q-19 0 -33.5 24.5t-6.5 65.5zM430 320q0 58 -29.5 104t-90.5 46q-78 0 -144 -80.5t-66 -189.5q0 -62 36 -106t94 -44q81 0 140.5 82t59.5 188z" />
    <glyph glyph-name="Emacron" unicode="&#x112;" horiz-adv-x="700" 
d="M256 870l7 30h321l-7 -30h-321zM409 380h-179l-52 -290q-3 -17 1 -29t10.5 -18t23 -9t27.5 -3.5t35 -0.5h121q42 0 81 16.5t64.5 40t45.5 47t29 40.5l9 16l17 -10l-80 -180h-611l4 30q6 0 16 -0.5t36 2t46.5 7.5t39 18.5t22.5 32.5l106 600q5 31 -29 46t-71 14h-37l5 30
h581l17 -179l-20 -11q-1 7 -3.5 17.5t-14.5 38t-29 48.5t-50.5 38.5t-75.5 17.5h-102q-92 0 -106 -55l-51 -285h178q44 0 75.5 35t41.5 70l9 35h20l-59 -329h-20q1 6 2.5 17t1 38.5t-6 48.5t-23 38t-45.5 17z" />
    <glyph glyph-name="emacron" unicode="&#x113;" 
d="M168 660l7 30h321l-7 -30h-321zM480 210q-4 -9 -12 -24t-34 -52.5t-55.5 -66.5t-75 -53t-93.5 -24q-82 0 -126 49.5t-44 140.5q0 127 87 228.5t193 101.5q39 0 66.5 -15t38 -36t16 -43t-0.5 -36l-30 -120h-318q-2 -20 -2 -30q0 -77 43.5 -128.5t116.5 -51.5q45 0 83 17.5
t60.5 42.5t38.5 50t22 42l6 18zM390 310v30q0 110 -110 110q-62 0 -109.5 -39t-67.5 -101h287z" />
    <glyph glyph-name="Ebreve" unicode="&#x114;" horiz-adv-x="700" 
d="M310 1030q-12 -51 12 -85.5t81 -34.5t96 34t51 86h30q-15 -66 -65.5 -113t-121.5 -47t-99.5 47t-13.5 113h30zM409 380h-179l-52 -290q-3 -17 1 -29t10.5 -18t23 -9t27.5 -3.5t35 -0.5h121q42 0 81 16.5t64.5 40t45.5 47t29 40.5l9 16l17 -10l-80 -180h-611l4 30
q6 0 16 -0.5t36 2t46.5 7.5t39 18.5t22.5 32.5l106 600q5 31 -29 46t-71 14h-37l5 30h581l17 -179l-20 -11q-1 7 -3.5 17.5t-14.5 38t-29 48.5t-50.5 38.5t-75.5 17.5h-102q-92 0 -106 -55l-51 -285h178q44 0 75.5 35t41.5 70l9 35h20l-59 -329h-20q1 6 2.5 17t1 38.5
t-6 48.5t-23 38t-45.5 17z" />
    <glyph glyph-name="ebreve" unicode="&#x115;" 
d="M220 790q-12 -51 12 -85.5t81 -34.5t96 34t51 86h30q-15 -66 -65.5 -113t-121.5 -47t-99.5 47t-13.5 113h30zM480 210q-4 -9 -12 -24t-34 -52.5t-55.5 -66.5t-75 -53t-93.5 -24q-82 0 -126 49.5t-44 140.5q0 127 87 228.5t193 101.5q39 0 66.5 -15t38 -36t16 -43
t-0.5 -36l-30 -120h-318q-2 -20 -2 -30q0 -77 43.5 -128.5t116.5 -51.5q45 0 83 17.5t60.5 42.5t38.5 50t22 42l6 18zM390 310v30q0 110 -110 110q-62 0 -109.5 -39t-67.5 -101h287z" />
    <glyph glyph-name="Edotaccent" unicode="&#x116;" horiz-adv-x="700" 
d="M330 940q0 29 18 44.5t42 15.5q25 0 42.5 -15.5t17.5 -44.5q0 -28 -18 -44t-42 -16t-42 16t-18 44zM409 380h-179l-52 -290q-3 -17 1 -29t10.5 -18t23 -9t27.5 -3.5t35 -0.5h121q42 0 81 16.5t64.5 40t45.5 47t29 40.5l9 16l17 -10l-80 -180h-611l4 30q6 0 16 -0.5t36 2
t46.5 7.5t39 18.5t22.5 32.5l106 600q5 31 -29 46t-71 14h-37l5 30h581l17 -179l-20 -11q-1 7 -3.5 17.5t-14.5 38t-29 48.5t-50.5 38.5t-75.5 17.5h-102q-92 0 -106 -55l-51 -285h178q44 0 75.5 35t41.5 70l9 35h20l-59 -329h-20q1 6 2.5 17t1 38.5t-6 48.5t-23 38
t-45.5 17z" />
    <glyph glyph-name="edotaccent" unicode="&#x117;" 
d="M270 660q0 29 18 44.5t42 15.5q25 0 42.5 -15.5t17.5 -44.5q0 -28 -18 -44t-42 -16t-42 16t-18 44zM480 210q-4 -9 -12 -24t-34 -52.5t-55.5 -66.5t-75 -53t-93.5 -24q-82 0 -126 49.5t-44 140.5q0 127 87 228.5t193 101.5q39 0 66.5 -15t38 -36t16 -43t-0.5 -36
l-30 -120h-318q-2 -20 -2 -30q0 -77 43.5 -128.5t116.5 -51.5q45 0 83 17.5t60.5 42.5t38.5 50t22 42l6 18zM390 310v30q0 110 -110 110q-62 0 -109.5 -39t-67.5 -101h287z" />
    <glyph glyph-name="Ecaron" unicode="&#x11a;" horiz-adv-x="700" 
d="M595 1009l-215 -189l-127 189l26 21l111 -170l189 170zM409 380h-179l-52 -290q-3 -17 1 -29t10.5 -18t23 -9t27.5 -3.5t35 -0.5h121q42 0 81 16.5t64.5 40t45.5 47t29 40.5l9 16l17 -10l-80 -180h-611l4 30q6 0 16 -0.5t36 2t46.5 7.5t39 18.5t22.5 32.5l106 600
q5 31 -29 46t-71 14h-37l5 30h581l17 -179l-20 -11q-1 7 -3.5 17.5t-14.5 38t-29 48.5t-50.5 38.5t-75.5 17.5h-102q-92 0 -106 -55l-51 -285h178q44 0 75.5 35t41.5 70l9 35h20l-59 -329h-20q1 6 2.5 17t1 38.5t-6 48.5t-23 38t-45.5 17z" />
    <glyph glyph-name="ecaron" unicode="&#x11b;" 
d="M521 769l-215 -189l-127 189l26 21l111 -170l189 170zM480 210q-4 -9 -12 -24t-34 -52.5t-55.5 -66.5t-75 -53t-93.5 -24q-82 0 -126 49.5t-44 140.5q0 127 87 228.5t193 101.5q39 0 66.5 -15t38 -36t16 -43t-0.5 -36l-30 -120h-318q-2 -20 -2 -30q0 -77 43.5 -128.5
t116.5 -51.5q45 0 83 17.5t60.5 42.5t38.5 50t22 42l6 18zM390 310v30q0 110 -110 110q-62 0 -109.5 -39t-67.5 -101h287z" />
    <glyph glyph-name="Gcircumflex" unicode="&#x11c;" horiz-adv-x="700" 
d="M279 841l215 189l127 -189l-26 -21l-111 170l-189 -170zM300 -10q-59 0 -106 18t-77 47t-50 69t-28.5 81t-8.5 85q0 109 34.5 204t91.5 159t131 100.5t153 36.5q46 0 86 -12.5t57 -25.5l17 -12l51 50l21 -240l-21 -10q-5 34 -19 67.5t-40 67t-70.5 54.5t-101.5 21
q-142 0 -234.5 -112t-92.5 -278q0 -130 63.5 -220t183.5 -90q98 0 158.5 67t81.5 164l11 59h-341l4 30h390l-4 -30l-60 -340h-20v164q-37 -76 -102 -125t-158 -49z" />
    <glyph glyph-name="gcircumflex" unicode="&#x11d;" 
d="M150 601l215 189l126 -189l-26 -21l-109 170l-191 -170zM80 300q0 98 64 154t146 56q31 0 61 -10h179l-10 -50h-99q29 -38 29 -90q0 -80 -41 -130.5t-103 -69.5q-42 -15 -101.5 -21.5t-92 -11t-32.5 -17.5q0 -12 30 -20l180 -40q26 -7 34 -9.5t30 -12.5t30.5 -19.5
t17 -27.5t8.5 -41q0 -47 -25 -81.5t-67 -53t-89 -27t-99 -8.5q-37 0 -63.5 1.5t-56 8.5t-48 18t-30.5 32t-12 50q0 21 7 37.5t18 28.5t33 25.5t42 23l56 25.5q12 5 18 8l-14 2q-31 6 -50.5 22.5t-19.5 37.5q0 9 3 17t10 13.5t14.5 9.5t20.5 7.5t23 5.5t27.5 3.5l28.5 2.5
t31.5 2.5t31.5 2.5q-54 11 -87 50.5t-33 95.5zM120 350q0 -58 46 -104t124 -46q50 0 85 27t35 83q0 61 -48.5 105.5t-121.5 44.5q-54 0 -87 -29.5t-33 -80.5zM230 10l-108 14q-73 -28 -102.5 -55t-29.5 -69q0 -80 190 -80q88 0 144 25t56 75q0 11 -3 21t-10.5 17.5l-14 13.5
t-19 11.5t-20 8.5t-23 6.5t-21 4.5l-21.5 4t-18 3z" />
    <glyph glyph-name="Gbreve" unicode="&#x11e;" horiz-adv-x="700" 
d="M400 1030q-12 -51 12 -85.5t81 -34.5t96 34t51 86h30q-15 -66 -65.5 -113t-121.5 -47t-99.5 47t-13.5 113h30zM300 -10q-59 0 -106 18t-77 47t-50 69t-28.5 81t-8.5 85q0 109 34.5 204t91.5 159t131 100.5t153 36.5q46 0 86 -12.5t57 -25.5l17 -12l51 50l21 -240l-21 -10
q-5 34 -19 67.5t-40 67t-70.5 54.5t-101.5 21q-142 0 -234.5 -112t-92.5 -278q0 -130 63.5 -220t183.5 -90q98 0 158.5 67t81.5 164l11 59h-341l4 30h390l-4 -30l-60 -340h-20v164q-37 -76 -102 -125t-158 -49z" />
    <glyph glyph-name="gbreve" unicode="&#x11f;" 
d="M240 790q-12 -51 12 -85.5t81 -34.5t96 34t51 86h30q-15 -66 -65.5 -113t-121.5 -47t-99.5 47t-13.5 113h30zM80 300q0 98 64 154t146 56q31 0 61 -10h179l-10 -50h-99q29 -38 29 -90q0 -80 -41 -130.5t-103 -69.5q-42 -15 -101.5 -21.5t-92 -11t-32.5 -17.5
q0 -12 30 -20l180 -40q26 -7 34 -9.5t30 -12.5t30.5 -19.5t17 -27.5t8.5 -41q0 -47 -25 -81.5t-67 -53t-89 -27t-99 -8.5q-37 0 -63.5 1.5t-56 8.5t-48 18t-30.5 32t-12 50q0 21 7 37.5t18 28.5t33 25.5t42 23l56 25.5q12 5 18 8l-14 2q-31 6 -50.5 22.5t-19.5 37.5
q0 9 3 17t10 13.5t14.5 9.5t20.5 7.5t23 5.5t27.5 3.5l28.5 2.5t31.5 2.5t31.5 2.5q-54 11 -87 50.5t-33 95.5zM120 350q0 -58 46 -104t124 -46q50 0 85 27t35 83q0 61 -48.5 105.5t-121.5 44.5q-54 0 -87 -29.5t-33 -80.5zM230 10l-108 14q-73 -28 -102.5 -55t-29.5 -69
q0 -80 190 -80q88 0 144 25t56 75q0 11 -3 21t-10.5 17.5l-14 13.5t-19 11.5t-20 8.5t-23 6.5t-21 4.5l-21.5 4t-18 3z" />
    <glyph glyph-name="Gdotaccent" unicode="&#x120;" horiz-adv-x="700" 
d="M420 940q0 29 18 44.5t42 15.5q25 0 42.5 -15.5t17.5 -44.5q0 -28 -18 -44t-42 -16t-42 16t-18 44zM300 -10q-59 0 -106 18t-77 47t-50 69t-28.5 81t-8.5 85q0 109 34.5 204t91.5 159t131 100.5t153 36.5q46 0 86 -12.5t57 -25.5l17 -12l51 50l21 -240l-21 -10
q-5 34 -19 67.5t-40 67t-70.5 54.5t-101.5 21q-142 0 -234.5 -112t-92.5 -278q0 -130 63.5 -220t183.5 -90q98 0 158.5 67t81.5 164l11 59h-341l4 30h390l-4 -30l-60 -340h-20v164q-37 -76 -102 -125t-158 -49z" />
    <glyph glyph-name="gdotaccent" unicode="&#x121;" 
d="M270 660q0 29 18 44.5t42 15.5q25 0 42.5 -15.5t17.5 -44.5q0 -28 -18 -44t-42 -16t-42 16t-18 44zM80 300q0 98 64 154t146 56q31 0 61 -10h179l-10 -50h-99q29 -38 29 -90q0 -80 -41 -130.5t-103 -69.5q-42 -15 -101.5 -21.5t-92 -11t-32.5 -17.5q0 -12 30 -20l180 -40
q26 -7 34 -9.5t30 -12.5t30.5 -19.5t17 -27.5t8.5 -41q0 -47 -25 -81.5t-67 -53t-89 -27t-99 -8.5q-37 0 -63.5 1.5t-56 8.5t-48 18t-30.5 32t-12 50q0 21 7 37.5t18 28.5t33 25.5t42 23l56 25.5q12 5 18 8l-14 2q-31 6 -50.5 22.5t-19.5 37.5q0 9 3 17t10 13.5t14.5 9.5
t20.5 7.5t23 5.5t27.5 3.5l28.5 2.5t31.5 2.5t31.5 2.5q-54 11 -87 50.5t-33 95.5zM120 350q0 -58 46 -104t124 -46q50 0 85 27t35 83q0 61 -48.5 105.5t-121.5 44.5q-54 0 -87 -29.5t-33 -80.5zM230 10l-108 14q-73 -28 -102.5 -55t-29.5 -69q0 -80 190 -80q88 0 144 25
t56 75q0 11 -3 21t-10.5 17.5l-14 13.5t-19 11.5t-20 8.5t-23 6.5t-21 4.5l-21.5 4t-18 3z" />
    <glyph glyph-name="Hcircumflex" unicode="&#x124;" horiz-adv-x="900" 
d="M369 841l215 189l127 -189l-26 -21l-111 170l-189 -170zM116 90l106 600q5 31 -29 46t-71 14h-37l5 30h371l-5 -30q-6 0 -17 0.5t-39 -1.5t-50 -7.5t-41.5 -18.5t-22.5 -33l-50 -280h437l49 280q5 31 -31.5 46t-76.5 14h-39l5 30h370l-5 -30q-6 0 -16 0.5t-36 -1.5
t-46.5 -7.5t-39 -18.5t-21.5 -33l-106 -600q-5 -31 29 -46t71 -14h36l-4 -30h-370l4 30q6 0 17 -0.5t39 1.5t50 7.5t41.5 18.5t22.5 33l51 290h-436l-52 -290q-5 -31 32 -46t77 -14h39l-4 -30h-371l4 30q6 0 16 -0.5t36 1.5t47 7.5t39.5 18.5t21.5 33z" />
    <glyph glyph-name="hcircumflex" unicode="&#x125;" horiz-adv-x="600" 
d="M40 841l215 189l126 -189l-26 -21l-109 170l-191 -170zM380 90l60 220q18 67 -6 103.5t-84 36.5q-56 0 -99.5 -42.5t-80.5 -157.5l-80 -250h-60l150 730h-100l10 50h180l-160 -600h14l46 130q71 200 230 200q43 0 71 -15.5t38.5 -40t10.5 -51t-10 -53.5l-80 -220
q-12 -29 -4 -44.5t17 -20.5t17 -5t35 29t55 71l20 -10q-120 -150 -130 -150h-20q-20 0 -35.5 24.5t-4.5 65.5z" />
    <glyph glyph-name="Itilde" unicode="&#x128;" horiz-adv-x="400" 
d="M141 941l15 19q1 0 0 -6t2 -15t8 -17.5t17 -14.5t29 -6q36 0 95 29.5t89 29.5q31 0 47 -17.5t16 -34.5v-18l-13 -19q0 7 -1 17t-15 26.5t-41 16.5q-29 0 -88 -30t-95 -30q-32 0 -48 17.5t-16 35.5zM220 690q5 31 -29 46t-71 14h-37l5 30h361l-6 -30q-6 0 -16 0.5
t-36 -1.5t-46.5 -7.5t-39 -18.5t-21.5 -33l-107 -600q-5 -31 29 -46t71 -14h37l-4 -30h-360l4 30q6 0 16 -0.5t36 1.5t47 7.5t39.5 18.5t21.5 33z" />
    <glyph glyph-name="itilde" unicode="&#x129;" horiz-adv-x="300" 
d="M20 701l15 19q1 0 0 -6t2 -15t8 -17.5t17 -14.5t29 -6q36 0 95.5 29.5t88.5 29.5q32 0 47.5 -17.5t15.5 -34.5v-18l-13 -19v6t-3 14.5t-8 18t-17 14t-29 6.5q-30 0 -89 -29.5t-94 -29.5q-31 0 -47.5 17.5t-17.5 35.5v17zM240 500l-130 -370q-12 -29 -4 -44.5t17 -20.5
t17 -5t35 29t55 71l20 -10q-120 -150 -130 -150h-20q-20 0 -35.5 24.5t-4.5 65.5l90 360h-110l10 50h190z" />
    <glyph glyph-name="Imacron" unicode="&#x12a;" horiz-adv-x="400" 
d="M124 870l7 30h321l-7 -30h-321zM220 690q5 31 -29 46t-71 14h-37l5 30h361l-6 -30q-6 0 -16 0.5t-36 -1.5t-46.5 -7.5t-39 -18.5t-21.5 -33l-107 -600q-5 -31 29 -46t71 -14h37l-4 -30h-360l4 30q6 0 16 -0.5t36 1.5t47 7.5t39.5 18.5t21.5 33z" />
    <glyph glyph-name="imacron" unicode="&#x12b;" horiz-adv-x="300" 
d="M18 660l7 30h321l-7 -30h-321zM240 500l-130 -370q-12 -29 -4 -44.5t17 -20.5t17 -5t35 29t55 71l20 -10q-120 -150 -130 -150h-20q-20 0 -35.5 24.5t-4.5 65.5l90 360h-110l10 50h190z" />
    <glyph glyph-name="Idotaccent" unicode="&#x130;" horiz-adv-x="400" 
d="M230 940q0 29 18 44.5t42 15.5q25 0 42.5 -15.5t17.5 -44.5q0 -28 -18 -44t-42 -16t-42 16t-18 44zM220 690q5 31 -29 46t-71 14h-37l5 30h361l-6 -30q-6 0 -16 0.5t-36 -1.5t-46.5 -7.5t-39 -18.5t-21.5 -33l-107 -600q-5 -31 29 -46t71 -14h37l-4 -30h-360l4 30
q6 0 16 -0.5t36 1.5t47 7.5t39.5 18.5t21.5 33z" />
    <glyph glyph-name="dotlessi" unicode="&#x131;" horiz-adv-x="300" 
d="M240 500l-130 -370q-12 -29 -4 -44.5t17 -20.5t17 -5t35 29t55 71l20 -10q-120 -150 -130 -150h-20q-20 0 -35.5 24.5t-4.5 65.5l90 360h-110l10 50h190z" />
    <glyph glyph-name="IJ" unicode="&#x132;" horiz-adv-x="800" 
d="M420 40q49 0 75 46t43 144l82 460q6 31 -33.5 46t-81.5 14h-42q-7 0 -18 0.5t-40.5 -1.5t-53 -7.5t-44 -18.5t-23.5 -33l-107 -600q-5 -31 29 -46t71 -14h37l-4 -30h-360l4 30q6 0 16 -0.5t36 1.5t47 7.5t39.5 18.5t21.5 33l106 600q5 31 -29 46t-71 14h-37l5 30h760
l-5 -30q-6 0 -16 0.5t-36 -1.5t-46.5 -7.5t-39 -18.5t-21.5 -33l-80 -450q-13 -74 -30.5 -124.5t-54.5 -88t-89 -37.5q-39 0 -67 20.5t-39.5 50t-17.5 59t-6 50.5v20l20 10q2 -1 0 -16.5t3.5 -40t14 -47.5t30 -39.5t52.5 -16.5z" />
    <glyph glyph-name="ij" unicode="&#x133;" 
d="M380 680q0 28 18 44t42 16t42 -16t18 -44t-18 -44t-42 -16t-42 16t-18 44zM150 680q0 28 18 44t42 16t42 -16t18 -44t-18 -44t-42 -16t-42 16t-18 44zM290 90l34 153q-196 -243 -204 -243h-20q-20 0 -35.5 24.5t-4.5 65.5l90 360h-110l10 50h410l-100 -360
q-44 -158 -138.5 -264t-221.5 -106q-40 0 -40 30q0 23 32 50h98q47 0 81 16.5t56.5 51.5t35.5 73.5t27 98.5zM110 130q-12 -29 -4 -44.5t17 -20.5t17 -5q6 0 18.5 13t53.5 63.5l122 153.5l36 160h-148z" />
    <glyph glyph-name="Jcircumflex" unicode="&#x134;" 
d="M199 841l215 189l127 -189l-26 -21l-111 170l-189 -170zM100 40q57 0 89 47.5t49 142.5l82 460q6 31 -28.5 46t-71.5 14h-37l5 30h360l-5 -30q-6 0 -16 0.5t-36 -1.5t-46.5 -7.5t-39 -18.5t-21.5 -33l-80 -450q-44 -250 -194 -250q-42 0 -73 20.5t-45 50t-22 59t-9 50.5
l-1 20l20 10q0 -7 0.5 -17.5t7 -38t18 -48.5t36 -38.5t58.5 -17.5z" />
    <glyph glyph-name="jcircumflex" unicode="&#x135;" horiz-adv-x="300" 
d="M40 601l215 189l126 -189l-26 -21l-109 170l-191 -170zM90 90l80 360h-100l10 50h180l-100 -360q-44 -158 -138.5 -264t-221.5 -106q-40 0 -40 30q0 23 32 50h98q47 0 81 16.5t56.5 51.5t35.5 73.5t27 98.5z" />
    <glyph glyph-name="Lacute" unicode="&#x139;" horiz-adv-x="700" 
d="M485 1040l10 -20l-240 -200l-10 20zM451 780l-6 -30q-6 0 -16 0.5t-36 -1.5t-46 -7.5t-38.5 -18.5t-22.5 -33l-107 -600q-3 -14 4.5 -25t24.5 -17t33 -10t41.5 -5.5t39 -2t35.5 -0.5h19q48 0 92 16.5t73 40t51.5 47t32.5 40.5l10 16l19 -10l-82 -180h-620l4 30
q6 0 16 -0.5t36 2t46.5 7.5t39 18.5t22.5 32.5l106 600q6 31 -28.5 46t-71.5 14h-37l5 30h361z" />
    <glyph glyph-name="lacute" unicode="&#x13a;" horiz-adv-x="300" 
d="M330 1030l10 -20l-240 -200l-10 20zM50 90l130 640h-100l10 50h180l-170 -651q-4 -23 -3 -36.5t8.5 -21t13.5 -9.5t11 -2q17 0 110 130l20 -10q-135 -180 -150 -180h-20q-19 0 -34 24t-6 66z" />
    <glyph glyph-name="Lcaron" unicode="&#x13d;" horiz-adv-x="700" 
d="M490 730q0 28 18 44t42 16t42 -16t18 -44q0 -23 -11 -36l-139 -174l-10 20l130 160q-20 -20 -40 -20q-19 0 -34.5 11.5t-15.5 38.5zM451 780l-6 -30q-6 0 -16 0.5t-36 -1.5t-46 -7.5t-38.5 -18.5t-22.5 -33l-107 -600q-3 -14 4.5 -25t24.5 -17t33 -10t41.5 -5.5t39 -2
t35.5 -0.5h19q48 0 92 16.5t73 40t51.5 47t32.5 40.5l10 16l19 -10l-82 -180h-620l4 30q6 0 16 -0.5t36 2t46.5 7.5t39 18.5t22.5 32.5l106 600q6 31 -28.5 46t-71.5 14h-37l5 30h361z" />
    <glyph glyph-name="lcaron" unicode="&#x13e;" 
d="M370 730q0 28 18 44t42 16t42 -16t18 -44q0 -23 -11 -36l-139 -174l-10 20l130 160q-20 -20 -40 -20q-19 0 -34.5 11.5t-15.5 38.5zM50 90l130 640h-100l10 50h180l-170 -651q-4 -23 -3 -36.5t8.5 -21t13.5 -9.5t11 -2q17 0 110 130l20 -10q-135 -180 -150 -180h-20
q-19 0 -34 24t-6 66z" />
    <glyph glyph-name="Ldot" unicode="&#x13f;" horiz-adv-x="700" 
d="M451 780l-6 -30q-6 0 -16 0.5t-36 -1.5t-46 -7.5t-38.5 -18.5t-22.5 -33l-107 -600q-3 -14 4.5 -25t24.5 -17t33 -10t41.5 -5.5t39 -2t35.5 -0.5h19q48 0 92 16.5t73 40t51.5 47t32.5 40.5l10 16l19 -10l-82 -180h-620l4 30q6 0 16 -0.5t36 2t46.5 7.5t39 18.5t22.5 32.5
l106 600q6 31 -28.5 46t-71.5 14h-37l5 30h361zM460 450q0 28 18 44t42 16t42 -16t18 -44t-18 -44t-42 -16t-42 16t-18 44z" />
    <glyph glyph-name="ldot" unicode="&#x140;" horiz-adv-x="400" 
d="M50 90l130 640h-100l10 50h180l-170 -651q-4 -23 -3 -36.5t8.5 -21t13.5 -9.5t11 -2q17 0 110 130l20 -10q-135 -180 -150 -180h-20q-19 0 -34 24t-6 66zM260 320q0 28 18 44t42 16t42 -16t18 -44t-18 -44t-42 -16t-42 16t-18 44z" />
    <glyph glyph-name="Nacute" unicode="&#x143;" horiz-adv-x="800" 
d="M615 1040l10 -20l-240 -200l-10 20zM96 90l106 600q5 31 -24 46t-61 14h-32l5 30h191l310 -662l101 572q5 31 -24 46t-61 14h-32l5 30h291l-5 -30q-5 0 -14 0.5t-31.5 -1.5t-40.5 -7.5t-34.5 -18.5t-19.5 -33l-122 -690h-34l-331 707l-109 -617q-5 -31 24 -46t60 -14h32
l-4 -30h-290l4 30q5 0 14 -0.5t31.5 1.5t40.5 7.5t34.5 18.5t19.5 33z" />
    <glyph glyph-name="nacute" unicode="&#x144;" horiz-adv-x="600" 
d="M475 790l10 -20l-240 -200l-10 20zM470 60q8 0 35 29t55 71l20 -10q-120 -150 -130 -150h-20q-20 0 -35.5 24.5t-4.5 65.5l60 220q18 67 -6 103.5t-84 36.5q-56 0 -99.5 -42.5t-80.5 -157.5l-80 -250h-60l110 450h-110l10 50h170l-100 -320h14l46 130q71 200 230 200
q43 0 71 -15.5t38.5 -40t10.5 -51t-10 -53.5l-80 -220q-12 -29 -4 -44.5t17 -20.5t17 -5z" />
    <glyph glyph-name="Ncaron" unicode="&#x147;" horiz-adv-x="800" 
d="M685 1009l-215 -189l-127 189l26 21l111 -170l189 170zM96 90l106 600q5 31 -24 46t-61 14h-32l5 30h191l310 -662l101 572q5 31 -24 46t-61 14h-32l5 30h291l-5 -30q-5 0 -14 0.5t-31.5 -1.5t-40.5 -7.5t-34.5 -18.5t-19.5 -33l-122 -690h-34l-331 707l-109 -617
q-5 -31 24 -46t60 -14h32l-4 -30h-290l4 30q5 0 14 -0.5t31.5 1.5t40.5 7.5t34.5 18.5t19.5 33z" />
    <glyph glyph-name="ncaron" unicode="&#x148;" horiz-adv-x="600" 
d="M571 769l-215 -189l-127 189l26 21l111 -170l189 170zM470 60q8 0 35 29t55 71l20 -10q-120 -150 -130 -150h-20q-20 0 -35.5 24.5t-4.5 65.5l60 220q18 67 -6 103.5t-84 36.5q-56 0 -99.5 -42.5t-80.5 -157.5l-80 -250h-60l110 450h-110l10 50h170l-100 -320h14l46 130
q71 200 230 200q43 0 71 -15.5t38.5 -40t10.5 -51t-10 -53.5l-80 -220q-12 -29 -4 -44.5t17 -20.5t17 -5z" />
    <glyph glyph-name="Omacron" unicode="&#x14c;" horiz-adv-x="800" 
d="M306 870l7 30h321l-7 -30h-321zM330 -10q-143 0 -221.5 88.5t-78.5 211.5q0 109 38 204t99.5 159t141 100.5t161.5 36.5q143 0 221.5 -88.5t78.5 -211.5q0 -109 -38 -204t-99.5 -159t-141 -100.5t-161.5 -36.5zM380 50q140 0 235 101t95 269q0 83 -30 151.5t-97 113.5
t-163 45q-140 0 -235 -101t-95 -269q0 -128 77 -219t213 -91z" />
    <glyph glyph-name="omacron" unicode="&#x14d;" 
d="M168 660l7 30h321l-7 -30h-321zM195 -10q-78 0 -124 48t-46 142q0 127 87 228.5t193 101.5q78 0 124 -48t46 -142q0 -127 -87 -228.5t-193 -101.5zM235 50q81 0 135.5 64.5t54.5 155.5q0 77 -43.5 128.5t-116.5 51.5q-81 0 -135.5 -64.5t-54.5 -155.5q0 -77 43.5 -128.5
t116.5 -51.5z" />
    <glyph glyph-name="Obreve" unicode="&#x14e;" horiz-adv-x="800" 
d="M390 1030q-12 -51 12 -85.5t81 -34.5t96 34t51 86h30q-15 -66 -65.5 -113t-121.5 -47t-99.5 47t-13.5 113h30zM330 -10q-143 0 -221.5 88.5t-78.5 211.5q0 109 38 204t99.5 159t141 100.5t161.5 36.5q143 0 221.5 -88.5t78.5 -211.5q0 -109 -38 -204t-99.5 -159
t-141 -100.5t-161.5 -36.5zM380 50q140 0 235 101t95 269q0 83 -30 151.5t-97 113.5t-163 45q-140 0 -235 -101t-95 -269q0 -128 77 -219t213 -91z" />
    <glyph glyph-name="obreve" unicode="&#x14f;" 
d="M220 790q-12 -51 12 -85.5t81 -34.5t96 34t51 86h30q-15 -66 -65.5 -113t-121.5 -47t-99.5 47t-13.5 113h30zM195 -10q-78 0 -124 48t-46 142q0 127 87 228.5t193 101.5q78 0 124 -48t46 -142q0 -127 -87 -228.5t-193 -101.5zM235 50q81 0 135.5 64.5t54.5 155.5
q0 77 -43.5 128.5t-116.5 51.5q-81 0 -135.5 -64.5t-54.5 -155.5q0 -77 43.5 -128.5t116.5 -51.5z" />
    <glyph glyph-name="Ohungarumlaut" unicode="&#x150;" horiz-adv-x="800" 
d="M580 1040l10 -20l-240 -200l-10 20zM780 1040l10 -20l-240 -200l-10 20zM330 -10q-143 0 -221.5 88.5t-78.5 211.5q0 109 38 204t99.5 159t141 100.5t161.5 36.5q143 0 221.5 -88.5t78.5 -211.5q0 -109 -38 -204t-99.5 -159t-141 -100.5t-161.5 -36.5zM380 50
q140 0 235 101t95 269q0 83 -30 151.5t-97 113.5t-163 45q-140 0 -235 -101t-95 -269q0 -128 77 -219t213 -91z" />
    <glyph glyph-name="ohungarumlaut" unicode="&#x151;" 
d="M375 790l10 -20l-240 -200l-10 20zM575 790l10 -20l-240 -200l-10 20zM195 -10q-78 0 -124 48t-46 142q0 127 87 228.5t193 101.5q78 0 124 -48t46 -142q0 -127 -87 -228.5t-193 -101.5zM235 50q81 0 135.5 64.5t54.5 155.5q0 77 -43.5 128.5t-116.5 51.5
q-81 0 -135.5 -64.5t-54.5 -155.5q0 -77 43.5 -128.5t116.5 -51.5z" />
    <glyph glyph-name="OE" unicode="&#x152;" horiz-adv-x="1000" 
d="M330 -10q-143 0 -221.5 88.5t-78.5 211.5q0 109 38 204t99.5 159t141 100.5t161.5 36.5q43 0 86 -10h446l18 -179l-21 -11q-1 7 -3.5 17.5t-14.5 38t-29.5 48.5t-50.5 38.5t-75 17.5h-195q68 -40 103.5 -110t35.5 -150q0 -37 -5 -80h71q44 0 75 35t40 70l9 35h21
l-59 -329h-20q1 6 2.5 17t1 38.5t-6.5 48.5t-23.5 38t-45.5 17h-70q-23 -121 -93 -212t-167 -138h229q42 0 80.5 16.5t64 40t45 47t28.5 40.5l9 16l17 -10l-80 -180h-477q-41 -10 -86 -10zM380 50q130 0 223 89.5t105 240.5h-289l7 30h284v10q0 83 -30 151.5t-97 113.5
t-163 45q-140 0 -235 -101t-95 -269q0 -128 77 -219t213 -91z" />
    <glyph glyph-name="oe" unicode="&#x153;" horiz-adv-x="900" 
d="M210 -10q-78 0 -124 48t-46 142q0 127 87 228.5t193 101.5q69 0 113.5 -37.5t53.5 -112.5q41 67 102.5 108.5t125.5 41.5q39 0 66.5 -15t38 -36t16 -43t-0.5 -36l-30 -120h-318q-2 -20 -2 -30q0 -77 43.5 -128.5t116.5 -51.5q45 0 83 17.5t60.5 42.5t38.5 50t22 42l6 18
l20 -10q-4 -9 -12 -24t-34 -52.5t-55.5 -66.5t-75 -53t-93.5 -24q-72 0 -115 39t-52 111q-41 -67 -102.5 -108.5t-125.5 -41.5zM250 50q81 0 135.5 64.5t54.5 155.5q0 77 -43.5 128.5t-116.5 51.5q-81 0 -135.5 -64.5t-54.5 -155.5q0 -77 43.5 -128.5t116.5 -51.5zM785 310
v30q0 110 -110 110q-62 0 -109.5 -39t-67.5 -101h287z" />
    <glyph glyph-name="Racute" unicode="&#x154;" horiz-adv-x="700" 
d="M535 1040l10 -20l-240 -200l-10 20zM516 110q16 -28 23.5 -39t22.5 -24t33.5 -16t48.5 -1l-4 -30h-136l-203 361h-74l-48 -271q-6 -31 28.5 -46t71.5 -14h37l-4 -30h-360l4 30q6 0 16 -0.5t36 1.5t47 7.5t39.5 18.5t21.5 33l106 600q5 31 -29 46t-71 14h-37l5 30h367
q283 0 283 -170q0 -63 -28.5 -112t-76.5 -77.5t-104.5 -43.5t-118.5 -16h-41zM393 750q-91 0 -106 -54l-54 -305h144q52 0 98 10.5t86.5 33.5t64.5 65.5t24 99.5q0 81 -50.5 115.5t-158.5 34.5h-48z" />
    <glyph glyph-name="racute" unicode="&#x155;" horiz-adv-x="400" 
d="M415 790l10 -20l-240 -200l-10 20zM210 500l-100 -320h14l46 130q34 96 85 148t105 52q50 0 50 -30q0 -60 -50 -60q-10 0 -25 5t-25 5q-38 0 -69 -29t-61 -121l-90 -280h-60l110 450h-100l10 50h160z" />
    <glyph glyph-name="Rcaron" unicode="&#x158;" horiz-adv-x="700" 
d="M595 1009l-215 -189l-127 189l26 21l111 -170l189 170zM516 110q16 -28 23.5 -39t22.5 -24t33.5 -16t48.5 -1l-4 -30h-136l-203 361h-74l-48 -271q-6 -31 28.5 -46t71.5 -14h37l-4 -30h-360l4 30q6 0 16 -0.5t36 1.5t47 7.5t39.5 18.5t21.5 33l106 600q5 31 -29 46
t-71 14h-37l5 30h367q283 0 283 -170q0 -63 -28.5 -112t-76.5 -77.5t-104.5 -43.5t-118.5 -16h-41zM393 750q-91 0 -106 -54l-54 -305h144q52 0 98 10.5t86.5 33.5t64.5 65.5t24 99.5q0 81 -50.5 115.5t-158.5 34.5h-48z" />
    <glyph glyph-name="rcaron" unicode="&#x159;" horiz-adv-x="400" 
d="M441 769l-215 -189l-127 189l26 21l111 -170l189 170zM210 500l-100 -320h14l46 130q34 96 85 148t105 52q50 0 50 -30q0 -60 -50 -60q-10 0 -25 5t-25 5q-38 0 -69 -29t-61 -121l-90 -280h-60l110 450h-100l10 50h160z" />
    <glyph glyph-name="Sacute" unicode="&#x15a;" horiz-adv-x="600" 
d="M515 1040l10 -20l-240 -200l-10 20zM280 -10q-53 0 -98 15t-64 30l-18 15l-40 -60l-40 250l20 10q14 -108 85 -169t165 -61q74 0 122 36.5t48 113.5q0 63 -34 106.5t-82.5 68.5l-97 50t-82.5 68.5t-34 106.5q0 102 65 161t165 59q53 0 95.5 -15t58.5 -30l16 -15l40 60
l30 -230l-20 -10q-16 88 -74 149t-144 61q-70 0 -121 -41.5t-51 -108.5q0 -47 24.5 -82.5t61 -56.5l79.5 -46t79.5 -49t61 -67t24.5 -99q0 -58 -22.5 -102.5t-59 -69t-76.5 -36.5t-82 -12z" />
    <glyph glyph-name="sacute" unicode="&#x15b;" 
d="M415 790l10 -20l-240 -200l-10 20zM260 -10q-43 0 -78.5 15t-49.5 30l-14 15l-55 -60l-30 220l22 10q2 -8 6.5 -21.5t21.5 -48t38.5 -61t59.5 -48t83 -21.5q52 0 81 21t29 59q0 36 -28 61t-67.5 42l-79 35.5t-67.5 51.5t-28 80q0 64 47.5 102t108.5 38q41 0 71 -12
t39 -24l10 -13l54 49l33 -200l-23 -10q-2 7 -6 19.5t-19.5 43.5t-33.5 54.5t-49 43t-66 19.5q-44 0 -70 -23t-26 -67q0 -36 26 -62t62.5 -43l73 -35t62.5 -48.5t26 -71.5q0 -64 -48.5 -102t-115.5 -38z" />
    <glyph glyph-name="Scircumflex" unicode="&#x15c;" horiz-adv-x="600" 
d="M209 841l215 189l127 -189l-26 -21l-111 170l-189 -170zM280 -10q-53 0 -98 15t-64 30l-18 15l-40 -60l-40 250l20 10q14 -108 85 -169t165 -61q74 0 122 36.5t48 113.5q0 63 -34 106.5t-82.5 68.5l-97 50t-82.5 68.5t-34 106.5q0 102 65 161t165 59q53 0 95.5 -15
t58.5 -30l16 -15l40 60l30 -230l-20 -10q-16 88 -74 149t-144 61q-70 0 -121 -41.5t-51 -108.5q0 -47 24.5 -82.5t61 -56.5l79.5 -46t79.5 -49t61 -67t24.5 -99q0 -58 -22.5 -102.5t-59 -69t-76.5 -36.5t-82 -12z" />
    <glyph glyph-name="scircumflex" unicode="&#x15d;" 
d="M130 601l215 189l126 -189l-26 -21l-109 170l-191 -170zM260 -10q-43 0 -78.5 15t-49.5 30l-14 15l-55 -60l-30 220l22 10q2 -8 6.5 -21.5t21.5 -48t38.5 -61t59.5 -48t83 -21.5q52 0 81 21t29 59q0 36 -28 61t-67.5 42l-79 35.5t-67.5 51.5t-28 80q0 64 47.5 102
t108.5 38q41 0 71 -12t39 -24l10 -13l54 49l33 -200l-23 -10q-2 7 -6 19.5t-19.5 43.5t-33.5 54.5t-49 43t-66 19.5q-44 0 -70 -23t-26 -67q0 -36 26 -62t62.5 -43l73 -35t62.5 -48.5t26 -71.5q0 -64 -48.5 -102t-115.5 -38z" />
    <glyph glyph-name="Scaron" unicode="&#x160;" horiz-adv-x="600" 
d="M573 1009l-215 -189l-127 189l26 21l111 -170l189 170zM280 -10q-53 0 -98 15t-64 30l-18 15l-40 -60l-40 250l20 10q14 -108 85 -169t165 -61q74 0 122 36.5t48 113.5q0 63 -34 106.5t-82.5 68.5l-97 50t-82.5 68.5t-34 106.5q0 102 65 161t165 59q53 0 95.5 -15
t58.5 -30l16 -15l40 60l30 -230l-20 -10q-16 88 -74 149t-144 61q-70 0 -121 -41.5t-51 -108.5q0 -47 24.5 -82.5t61 -56.5l79.5 -46t79.5 -49t61 -67t24.5 -99q0 -58 -22.5 -102.5t-59 -69t-76.5 -36.5t-82 -12z" />
    <glyph glyph-name="scaron" unicode="&#x161;" 
d="M491 769l-215 -189l-127 189l26 21l111 -170l189 170zM260 -10q-43 0 -78.5 15t-49.5 30l-14 15l-55 -60l-30 220l22 10q2 -8 6.5 -21.5t21.5 -48t38.5 -61t59.5 -48t83 -21.5q52 0 81 21t29 59q0 36 -28 61t-67.5 42l-79 35.5t-67.5 51.5t-28 80q0 64 47.5 102t108.5 38
q41 0 71 -12t39 -24l10 -13l54 49l33 -200l-23 -10q-2 7 -6 19.5t-19.5 43.5t-33.5 54.5t-49 43t-66 19.5q-44 0 -70 -23t-26 -67q0 -36 26 -62t62.5 -43l73 -35t62.5 -48.5t26 -71.5q0 -64 -48.5 -102t-115.5 -38z" />
    <glyph glyph-name="Tcaron" unicode="&#x164;" horiz-adv-x="800" 
d="M665 1009l-215 -189l-127 189l26 21l111 -170l189 170zM328 750h-30q-42 0 -81 -16.5t-64.5 -40t-45 -47t-28.5 -40.5l-9 -16l-20 11l83 179h640l18 -179l-22 -11q-1 7 -3 17.5t-14 38t-29 48.5t-50.5 38.5t-75.5 17.5h-22q-91 0 -106 -54l-108 -606q-6 -31 28.5 -46
t71.5 -14h37l-4 -30h-359l4 30q6 0 16 -0.5t35.5 1.5t46 7.5t38.5 18.5t22 33l109 608q3 27 -15.5 39.5t-62.5 12.5z" />
    <glyph glyph-name="tcaron" unicode="&#x165;" 
d="M360 730q0 28 18 44t42 16t42 -16t18 -44q0 -23 -11 -36l-139 -174l-10 20l130 160q-20 -20 -40 -20q-19 0 -34.5 11.5t-15.5 38.5zM170 50q86 0 170 180l20 -10q-32 -54 -54 -88t-52 -70.5t-61 -54t-63 -17.5q-13 0 -24.5 2t-27.5 11t-24.5 25t-8 47.5t14.5 74.5
l100 300h-130l11 50h130l9 230h80l-57 -230h157l-10 -50h-160l-70 -280q-14 -57 2 -88.5t48 -31.5z" />
    <glyph glyph-name="Utilde" unicode="&#x168;" horiz-adv-x="800" 
d="M341 941l15 19q1 0 0 -6t2 -15t8 -17.5t17 -14.5t29 -6q36 0 95 29.5t89 29.5q31 0 47 -17.5t16 -34.5v-18l-13 -19q0 7 -1 17t-15 26.5t-41 16.5q-30 0 -88.5 -30t-94.5 -30q-32 0 -48 17.5t-16 35.5zM680 690q6 31 -23.5 46t-61.5 14h-32l5 30h291l-6 -30
q-5 0 -13.5 0.5t-31 -1.5t-40.5 -7.5t-34 -18.5t-20 -33l-82 -460q-8 -48 -28.5 -89t-54.5 -76t-88.5 -55t-123.5 -20q-130 0 -179.5 66t-28.5 184l80 450q5 31 -29 46t-70 14h-37l6 30h359l-5 -30q-6 0 -16 0.5t-36 -1.5t-46.5 -7.5t-39 -18.5t-21.5 -33l-80 -450
q-18 -104 17.5 -157t143.5 -53q65 0 111 16.5t72 47t39 62t21 74.5z" />
    <glyph glyph-name="utilde" unicode="&#x169;" horiz-adv-x="600" 
d="M200 701l15 19q1 0 0 -6t2 -15t8 -17.5t17 -14.5t29 -6q36 0 95.5 29.5t88.5 29.5q32 0 47.5 -17.5t15.5 -34.5v-18l-13 -19v6t-3 14.5t-8 18t-17 14t-29 6.5q-30 0 -89 -29.5t-94 -29.5q-31 0 -47.5 17.5t-17.5 35.5v17zM390 90l60 230h-14l-26 -70q-54 -144 -111 -202
t-129 -58q-67 0 -93.5 49.5t-6.5 130.5l70 280h-110l10 50h190l-110 -310q-23 -63 1.5 -101.5t78.5 -38.5q27 0 49 7t39.5 24t29.5 31.5t25 43.5t19 44.5t18 49.5l90 250h60l-90 -371q-9 -30 -1 -45t15.5 -19.5t15.5 -4.5t35 29t55 71l20 -10q-120 -150 -130 -150h-20
q-19 0 -35 24.5t-5 65.5z" />
    <glyph glyph-name="Umacron" unicode="&#x16a;" horiz-adv-x="800" 
d="M336 870l7 30h321l-7 -30h-321zM680 690q6 31 -23.5 46t-61.5 14h-32l5 30h291l-6 -30q-5 0 -13.5 0.5t-31 -1.5t-40.5 -7.5t-34 -18.5t-20 -33l-82 -460q-8 -48 -28.5 -89t-54.5 -76t-88.5 -55t-123.5 -20q-130 0 -179.5 66t-28.5 184l80 450q5 31 -29 46t-70 14h-37
l6 30h359l-5 -30q-6 0 -16 0.5t-36 -1.5t-46.5 -7.5t-39 -18.5t-21.5 -33l-80 -450q-18 -104 17.5 -157t143.5 -53q65 0 111 16.5t72 47t39 62t21 74.5z" />
    <glyph glyph-name="umacron" unicode="&#x16b;" horiz-adv-x="600" 
d="M196 660l7 30h321l-7 -30h-321zM390 90l60 230h-14l-26 -70q-54 -144 -111 -202t-129 -58q-67 0 -93.5 49.5t-6.5 130.5l70 280h-110l10 50h190l-110 -310q-23 -63 1.5 -101.5t78.5 -38.5q27 0 49 7t39.5 24t29.5 31.5t25 43.5t19 44.5t18 49.5l90 250h60l-90 -371
q-9 -30 -1 -45t15.5 -19.5t15.5 -4.5t35 29t55 71l20 -10q-120 -150 -130 -150h-20q-19 0 -35 24.5t-5 65.5z" />
    <glyph glyph-name="Ubreve" unicode="&#x16c;" horiz-adv-x="800" 
d="M390 1030q-12 -51 12 -85.5t81 -34.5t96 34t51 86h30q-15 -66 -65.5 -113t-121.5 -47t-99.5 47t-13.5 113h30zM680 690q6 31 -23.5 46t-61.5 14h-32l5 30h291l-6 -30q-5 0 -13.5 0.5t-31 -1.5t-40.5 -7.5t-34 -18.5t-20 -33l-82 -460q-8 -48 -28.5 -89t-54.5 -76
t-88.5 -55t-123.5 -20q-130 0 -179.5 66t-28.5 184l80 450q5 31 -29 46t-70 14h-37l6 30h359l-5 -30q-6 0 -16 0.5t-36 -1.5t-46.5 -7.5t-39 -18.5t-21.5 -33l-80 -450q-18 -104 17.5 -157t143.5 -53q65 0 111 16.5t72 47t39 62t21 74.5z" />
    <glyph glyph-name="ubreve" unicode="&#x16d;" horiz-adv-x="600" 
d="M250 790q-12 -51 12 -85.5t81 -34.5t96 34t51 86h30q-15 -66 -65.5 -113t-121.5 -47t-99.5 47t-13.5 113h30zM390 90l60 230h-14l-26 -70q-54 -144 -111 -202t-129 -58q-67 0 -93.5 49.5t-6.5 130.5l70 280h-110l10 50h190l-110 -310q-23 -63 1.5 -101.5t78.5 -38.5
q27 0 49 7t39.5 24t29.5 31.5t25 43.5t19 44.5t18 49.5l90 250h60l-90 -371q-9 -30 -1 -45t15.5 -19.5t15.5 -4.5t35 29t55 71l20 -10q-120 -150 -130 -150h-20q-19 0 -35 24.5t-5 65.5z" />
    <glyph glyph-name="Uring" unicode="&#x16e;" horiz-adv-x="800" 
d="M610 981q-9 -45 -47.5 -72.5t-85.5 -27.5q-46 0 -71.5 27.5t-15.5 72.5t48.5 72.5t85.5 27.5t72 -27.5t14 -72.5zM570 981q8 34 -5.5 56.5t-45.5 22.5q-33 0 -57 -22.5t-32 -56.5q-7 -35 6 -58t46 -23q32 0 56.5 23t31.5 58zM680 690q6 31 -23.5 46t-61.5 14h-32l5 30
h291l-6 -30q-5 0 -13.5 0.5t-31 -1.5t-40.5 -7.5t-34 -18.5t-20 -33l-82 -460q-8 -48 -28.5 -89t-54.5 -76t-88.5 -55t-123.5 -20q-130 0 -179.5 66t-28.5 184l80 450q5 31 -29 46t-70 14h-37l6 30h359l-5 -30q-6 0 -16 0.5t-36 -1.5t-46.5 -7.5t-39 -18.5t-21.5 -33
l-80 -450q-18 -104 17.5 -157t143.5 -53q65 0 111 16.5t72 47t39 62t21 74.5z" />
    <glyph glyph-name="uring" unicode="&#x16f;" horiz-adv-x="600" 
d="M470 701q-9 -45 -47.5 -72.5t-85.5 -27.5q-46 0 -71.5 27.5t-15.5 72.5t48.5 72.5t85.5 27.5t72 -27.5t14 -72.5zM430 701q8 34 -5.5 56.5t-45.5 22.5q-33 0 -57 -22.5t-32 -56.5q-7 -35 6 -58t46 -23q32 0 56.5 23t31.5 58zM390 90l60 230h-14l-26 -70
q-54 -144 -111 -202t-129 -58q-67 0 -93.5 49.5t-6.5 130.5l70 280h-110l10 50h190l-110 -310q-23 -63 1.5 -101.5t78.5 -38.5q27 0 49 7t39.5 24t29.5 31.5t25 43.5t19 44.5t18 49.5l90 250h60l-90 -371q-9 -30 -1 -45t15.5 -19.5t15.5 -4.5t35 29t55 71l20 -10
q-120 -150 -130 -150h-20q-19 0 -35 24.5t-5 65.5z" />
    <glyph glyph-name="Uhungarumlaut" unicode="&#x170;" horiz-adv-x="800" 
d="M600 1040l10 -20l-240 -200l-10 20zM800 1040l10 -20l-240 -200l-10 20zM680 690q6 31 -23.5 46t-61.5 14h-32l5 30h291l-6 -30q-5 0 -13.5 0.5t-31 -1.5t-40.5 -7.5t-34 -18.5t-20 -33l-82 -460q-8 -48 -28.5 -89t-54.5 -76t-88.5 -55t-123.5 -20q-130 0 -179.5 66
t-28.5 184l80 450q5 31 -29 46t-70 14h-37l6 30h359l-5 -30q-6 0 -16 0.5t-36 -1.5t-46.5 -7.5t-39 -18.5t-21.5 -33l-80 -450q-18 -104 17.5 -157t143.5 -53q65 0 111 16.5t72 47t39 62t21 74.5z" />
    <glyph glyph-name="uhungarumlaut" unicode="&#x171;" horiz-adv-x="600" 
d="M415 790l10 -20l-240 -200l-10 20zM615 790l10 -20l-240 -200l-10 20zM390 90l60 230h-14l-26 -70q-54 -144 -111 -202t-129 -58q-67 0 -93.5 49.5t-6.5 130.5l70 280h-110l10 50h190l-110 -310q-23 -63 1.5 -101.5t78.5 -38.5q27 0 49 7t39.5 24t29.5 31.5t25 43.5
t19 44.5t18 49.5l90 250h60l-90 -371q-9 -30 -1 -45t15.5 -19.5t15.5 -4.5t35 29t55 71l20 -10q-120 -150 -130 -150h-20q-19 0 -35 24.5t-5 65.5z" />
    <glyph glyph-name="Wcircumflex" unicode="&#x174;" horiz-adv-x="1000" 
d="M409 841l215 189l127 -189l-26 -21l-111 170l-189 -170zM239 -10l-83 711q-4 29 -31.5 41.5t-52.5 9.5l-26 -2l5 30h319l-5 -30q-6 1 -16 1.5t-35.5 -0.5t-44 -6t-33 -19t-12.5 -36l58 -547l249 513l-5 45q-4 29 -31.5 41.5t-53.5 9.5l-26 -2l6 30h319l-5 -30
q-6 1 -16 1.5t-35.5 -0.5t-44 -6t-33 -19t-12.5 -36l54 -550l245 540q22 48 -1 61t-96 9l5 30h280l-5 -30q-69 4 -94.5 -8.5t-48.5 -61.5l-324 -690l-70 601z" />
    <glyph glyph-name="wcircumflex" unicode="&#x175;" horiz-adv-x="700" 
d="M280 601l215 189l126 -189l-26 -21l-109 170l-191 -170zM133 -10l12 400q1 27 -11 38.5t-24 11.5q-8 0 -35 -29t-55 -71l-20 10q120 150 130 150h20q24 0 49.5 -22t20.5 -68l-40 -350l194 326l6 114h70l-10 -90l-40 -357l235 347q11 16 15 28.5t2 17.5l-2 4h-95l10 50
h145l10 -10q0 -43 -35 -90l-305 -410h-27l17 314l-210 -314h-27z" />
    <glyph glyph-name="Ycircumflex" unicode="&#x176;" horiz-adv-x="800" 
d="M329 841l215 189l127 -189l-26 -21l-111 170l-189 -170zM321 90l37 210l-157 401q-11 28 -41.5 40.5t-55.5 10.5l-24 -2l5 30h320l-5 -30l-50 2q-80 -4 -76 -47q1 -7 4 -15l136 -355l244 345q24 31 17 47t-31.5 21t-73.5 2l5 30h281l-6 -30q-64 4 -90.5 -9t-61.5 -61
l-276 -380l-37 -210q-5 -31 29 -46t71 -14h37l-5 -30h-360l4 30q6 0 16 -0.5t36 1.5t47 7.5t39.5 18.5t21.5 33z" />
    <glyph glyph-name="ycircumflex" unicode="&#x177;" 
d="M160 601l215 189l126 -189l-26 -21l-109 170l-191 -170zM209 410l-40 -360l266 350q9 12 13 24t3 19t-6 7h-90l10 50h144l10 -10q0 -47 -35 -90l-230 -286q-109 -135 -234.5 -239.5t-214.5 -104.5q-40 0 -40 30q0 23 32 50h128q16 0 69.5 35.5t89.5 71.5q12 12 19.5 22.5
t14 34t7.5 56.5l9 320q1 27 -14.5 38.5t-29.5 11.5q-8 0 -35 -29t-55 -71l-20 10q120 150 130 150h20q25 0 54.5 -22.5t24.5 -67.5z" />
    <glyph glyph-name="Ydieresis" unicode="&#x178;" horiz-adv-x="800" 
d="M340 940q0 28 18 44t42 16t42 -16t18 -44t-18 -44t-42 -16t-42 16t-18 44zM540 940q0 28 18 44t42 16t42 -16t18 -44t-18 -44t-42 -16t-42 16t-18 44zM321 90l37 210l-157 401q-11 28 -41.5 40.5t-55.5 10.5l-24 -2l5 30h320l-5 -30l-50 2q-80 -4 -76 -47q1 -7 4 -15
l136 -355l244 345q24 31 17 47t-31.5 21t-73.5 2l5 30h281l-6 -30q-64 4 -90.5 -9t-61.5 -61l-276 -380l-37 -210q-5 -31 29 -46t71 -14h37l-5 -30h-360l4 30q6 0 16 -0.5t36 1.5t47 7.5t39.5 18.5t21.5 33z" />
    <glyph glyph-name="Zacute" unicode="&#x179;" horiz-adv-x="600" 
d="M615 1040l10 -20l-240 -200l-10 20zM550 750h-239q-36 0 -71.5 -16.5t-59.5 -40t-43 -47t-28 -40.5l-9 -16l-20 10l69 190l50 -10h461l-620 -750h281q36 0 71 16.5t59 40t42.5 47t27.5 40.5l9 16l20 -10l-70 -190l-50 10h-489z" />
    <glyph glyph-name="zacute" unicode="&#x17a;" 
d="M475 790l10 -20l-240 -200l-10 20zM500 490l-390 -440q-28 -30 0 -30h90q91 0 138 43.5t72 126.5l20 -10l-60 -190l-40 10h-330v10l390 440q5 6 8.5 11t4 9.5t-2.5 7t-10 2.5h-110q-77 0 -122 -43t-78 -127l-20 10l62 190l48 -10h330v-10z" />
    <glyph glyph-name="Zdotaccent" unicode="&#x17b;" horiz-adv-x="600" 
d="M340 940q0 29 18 44.5t42 15.5q25 0 42.5 -15.5t17.5 -44.5q0 -28 -18 -44t-42 -16t-42 16t-18 44zM550 750h-239q-36 0 -71.5 -16.5t-59.5 -40t-43 -47t-28 -40.5l-9 -16l-20 10l69 190l50 -10h461l-620 -750h281q36 0 71 16.5t59 40t42.5 47t27.5 40.5l9 16l20 -10
l-70 -190l-50 10h-489z" />
    <glyph glyph-name="zdotaccent" unicode="&#x17c;" 
d="M270 660q0 29 18 44.5t42 15.5q25 0 42.5 -15.5t17.5 -44.5q0 -28 -18 -44t-42 -16t-42 16t-18 44zM500 490l-390 -440q-28 -30 0 -30h90q91 0 138 43.5t72 126.5l20 -10l-60 -190l-40 10h-330v10l390 440q5 6 8.5 11t4 9.5t-2.5 7t-10 2.5h-110q-77 0 -122 -43t-78 -127
l-20 10l62 190l48 -10h330v-10z" />
    <glyph glyph-name="Zcaron" unicode="&#x17d;" horiz-adv-x="600" 
d="M635 1009l-215 -189l-127 189l26 21l111 -170l189 170zM550 750h-239q-36 0 -71.5 -16.5t-59.5 -40t-43 -47t-28 -40.5l-9 -16l-20 10l69 190l50 -10h461l-620 -750h281q36 0 71 16.5t59 40t42.5 47t27.5 40.5l9 16l20 -10l-70 -190l-50 10h-489z" />
    <glyph glyph-name="zcaron" unicode="&#x17e;" 
d="M521 769l-215 -189l-127 189l26 21l111 -170l189 170zM500 490l-390 -440q-28 -30 0 -30h90q91 0 138 43.5t72 126.5l20 -10l-60 -190l-40 10h-330v10l390 440q5 6 8.5 11t4 9.5t-2.5 7t-10 2.5h-110q-77 0 -122 -43t-78 -127l-20 10l62 190l48 -10h330v-10z" />
    <glyph glyph-name="circumflex" unicode="&#x2c6;" horiz-adv-x="834" 
d="M568 601l215 189l126 -189l-26 -21l-109 170l-191 -170z" />
    <glyph glyph-name="caron" unicode="&#x2c7;" horiz-adv-x="834" 
d="M765 769l-215 -189l-127 189l26 21l111 -170l189 170z" />
    <glyph glyph-name="breve" unicode="&#x2d8;" horiz-adv-x="834" 
d="M367 790q-12 -51 12 -85.5t81 -34.5t96 34t51 86h30q-15 -66 -65.5 -113t-121.5 -47t-99.5 47t-13.5 113h30z" />
    <glyph glyph-name="dotaccent" unicode="&#x2d9;" horiz-adv-x="300" 
d="M90 660q0 29 18 44.5t42 15.5q25 0 42.5 -15.5t17.5 -44.5q0 -28 -18 -44t-42 -16t-42 16t-18 44z" />
    <glyph glyph-name="ring" unicode="&#x2da;" horiz-adv-x="834" 
d="M621 701q-9 -45 -47.5 -72.5t-85.5 -27.5q-46 0 -71.5 27.5t-15.5 72.5t48.5 72.5t85.5 27.5t72 -27.5t14 -72.5zM581 701q8 34 -5.5 56.5t-45.5 22.5q-33 0 -57 -22.5t-32 -56.5q-7 -35 6 -58t46 -23q32 0 56.5 23t31.5 58z" />
    <glyph glyph-name="tilde" unicode="&#x2dc;" horiz-adv-x="400" 
d="M201 701l15 19q1 0 0 -6t2 -15t8 -17.5t17 -14.5t29 -6q36 0 95.5 29.5t88.5 29.5q32 0 47.5 -17.5t15.5 -34.5v-18l-13 -19v6t-3 14.5t-8 18t-17 14t-29 6.5q-29 0 -88 -29.5t-95 -29.5q-31 0 -47.5 17.5t-16.5 35.5z" />
    <glyph glyph-name="hungarumlaut" unicode="&#x2dd;" 
d="M250 790l10 -20l-240 -200l-10 20zM450 790l10 -20l-240 -200l-10 20z" />
    <glyph glyph-name="Wgrave" unicode="&#x1e80;" horiz-adv-x="1000" 
d="M655 840l-10 -20l-220 180l10 20zM239 -10l-83 711q-4 29 -31.5 41.5t-52.5 9.5l-26 -2l5 30h319l-5 -30q-6 1 -16 1.5t-35.5 -0.5t-44 -6t-33 -19t-12.5 -36l58 -547l249 513l-5 45q-4 29 -31.5 41.5t-53.5 9.5l-26 -2l6 30h319l-5 -30q-6 1 -16 1.5t-35.5 -0.5t-44 -6
t-33 -19t-12.5 -36l54 -550l245 540q22 48 -1 61t-96 9l5 30h280l-5 -30q-69 4 -94.5 -8.5t-48.5 -61.5l-324 -690l-70 601z" />
    <glyph glyph-name="wgrave" unicode="&#x1e81;" horiz-adv-x="700" 
d="M465 610l-10 -20l-220 180l10 20zM133 -10l12 400q1 27 -11 38.5t-24 11.5q-8 0 -35 -29t-55 -71l-20 10q120 150 130 150h20q24 0 49.5 -22t20.5 -68l-40 -350l194 326l6 114h70l-10 -90l-40 -357l235 347q11 16 15 28.5t2 17.5l-2 4h-95l10 50h145l10 -10
q0 -43 -35 -90l-305 -410h-27l17 314l-210 -314h-27z" />
    <glyph glyph-name="Wacute" unicode="&#x1e82;" horiz-adv-x="1000" 
d="M685 1040l10 -20l-240 -200l-10 20zM239 -10l-83 711q-4 29 -31.5 41.5t-52.5 9.5l-26 -2l5 30h319l-5 -30q-6 1 -16 1.5t-35.5 -0.5t-44 -6t-33 -19t-12.5 -36l58 -547l249 513l-5 45q-4 29 -31.5 41.5t-53.5 9.5l-26 -2l6 30h319l-5 -30q-6 1 -16 1.5t-35.5 -0.5
t-44 -6t-33 -19t-12.5 -36l54 -550l245 540q22 48 -1 61t-96 9l5 30h280l-5 -30q-69 4 -94.5 -8.5t-48.5 -61.5l-324 -690l-70 601z" />
    <glyph glyph-name="wacute" unicode="&#x1e83;" horiz-adv-x="700" 
d="M545 790l10 -20l-240 -200l-10 20zM133 -10l12 400q1 27 -11 38.5t-24 11.5q-8 0 -35 -29t-55 -71l-20 10q120 150 130 150h20q24 0 49.5 -22t20.5 -68l-40 -350l194 326l6 114h70l-10 -90l-40 -357l235 347q11 16 15 28.5t2 17.5l-2 4h-95l10 50h145l10 -10
q0 -43 -35 -90l-305 -410h-27l17 314l-210 -314h-27z" />
    <glyph glyph-name="Wdieresis" unicode="&#x1e84;" horiz-adv-x="1000" 
d="M420 940q0 28 18 44t42 16t42 -16t18 -44t-18 -44t-42 -16t-42 16t-18 44zM620 940q0 28 18 44t42 16t42 -16t18 -44t-18 -44t-42 -16t-42 16t-18 44zM239 -10l-83 711q-4 29 -31.5 41.5t-52.5 9.5l-26 -2l5 30h319l-5 -30q-6 1 -16 1.5t-35.5 -0.5t-44 -6t-33 -19
t-12.5 -36l58 -547l249 513l-5 45q-4 29 -31.5 41.5t-53.5 9.5l-26 -2l6 30h319l-5 -30q-6 1 -16 1.5t-35.5 -0.5t-44 -6t-33 -19t-12.5 -36l54 -550l245 540q22 48 -1 61t-96 9l5 30h280l-5 -30q-69 4 -94.5 -8.5t-48.5 -61.5l-324 -690l-70 601z" />
    <glyph glyph-name="wdieresis" unicode="&#x1e85;" horiz-adv-x="700" 
d="M260 680q0 28 18 44t42 16t42 -16t18 -44t-18 -44t-42 -16t-42 16t-18 44zM460 680q0 28 18 44t42 16t42 -16t18 -44t-18 -44t-42 -16t-42 16t-18 44zM133 -10l12 400q1 27 -11 38.5t-24 11.5q-8 0 -35 -29t-55 -71l-20 10q120 150 130 150h20q24 0 49.5 -22t20.5 -68
l-40 -350l194 326l6 114h70l-10 -90l-40 -357l235 347q11 16 15 28.5t2 17.5l-2 4h-95l10 50h145l10 -10q0 -43 -35 -90l-305 -410h-27l17 314l-210 -314h-27z" />
    <glyph glyph-name="thinspace" unicode="&#x2009;" horiz-adv-x="100" 
 />
    <glyph glyph-name="endash" unicode="&#x2013;" horiz-adv-x="600" 
d="M20 300l6 30h554l-6 -30h-554z" />
    <glyph glyph-name="emdash" unicode="&#x2014;" horiz-adv-x="800" 
d="M774 300h-754l6 30h754z" />
    <glyph glyph-name="quoteleft" unicode="&#x2018;" horiz-adv-x="300" 
d="M170 580q0 -28 -18 -44t-42 -16t-42 16t-18 44q0 23 11 36l139 174l10 -20l-130 -160q20 20 40 20q19 0 34.5 -11.5t15.5 -38.5z" />
    <glyph glyph-name="quoteright" unicode="&#x2019;" horiz-adv-x="300" 
d="M120 730q0 28 18 44t42 16t42 -16t18 -44q0 -23 -11 -36l-139 -174l-10 20l130 160q-20 -20 -40 -20q-19 0 -34.5 11.5t-15.5 38.5z" />
    <glyph glyph-name="quotesinglbase" unicode="&#x201a;" horiz-adv-x="300" 
d="M120 20q0 28 18 44t42 16t42 -16t18 -44q0 -23 -11 -36l-139 -174l-10 20l130 160q-20 -20 -40 -20q-19 0 -34.5 11.5t-15.5 38.5z" />
    <glyph glyph-name="quotedblleft" unicode="&#x201c;" 
d="M210 580q0 -28 -18 -44t-42 -16t-42 16t-18 44q0 23 11 36l139 174l10 -20l-130 -160q20 20 40 20q19 0 34.5 -11.5t15.5 -38.5zM410 580q0 -28 -18 -44t-42 -16t-42 16t-18 44q0 23 11 36l139 174l10 -20l-130 -160q20 20 40 20q19 0 34.5 -11.5t15.5 -38.5z" />
    <glyph glyph-name="quotedblright" unicode="&#x201d;" 
d="M290 730q0 28 18 44t42 16t42 -16t18 -44q0 -23 -11 -36l-139 -174l-10 20l130 160q-20 -20 -40 -20q-19 0 -34.5 11.5t-15.5 38.5zM90 730q0 28 18 44t42 16t42 -16t18 -44q0 -23 -11 -36l-139 -174l-10 20l130 160q-20 -20 -40 -20q-19 0 -34.5 11.5t-15.5 38.5z" />
    <glyph glyph-name="quotedblbase" unicode="&#x201e;" 
d="M290 20q0 28 18 44t42 16t42 -16t18 -44q0 -23 -11 -36l-139 -174l-10 20l130 160q-20 -20 -40 -20q-19 0 -34.5 11.5t-15.5 38.5zM90 20q0 28 18 44t42 16t42 -16t18 -44q0 -23 -11 -36l-139 -174l-10 20l130 160q-20 -20 -40 -20q-19 0 -34.5 11.5t-15.5 38.5z" />
    <glyph glyph-name="dagger" unicode="&#x2020;" horiz-adv-x="400" 
d="M104 470h-71l6 30h70l100 -4l20 105l18 79l27 100h20l-17 -100l-19 -79l-28 -105l100 4h70l-7 -30h-70l-99 5l-19 -105l-88 -380l-28 -100h-20l18 100l88 380l29 105z" />
    <glyph glyph-name="daggerdbl" unicode="&#x2021;" horiz-adv-x="400" 
d="M160 300l15 70l29 105l-100 -5h-71l6 30h70l100 -4l20 105l18 79l27 100h21l-18 -100l-19 -79l-28 -105l100 4h70l-7 -30h-70l-99 5l-19 -105l-16 -70l-29 -105l101 5h70l-7 -30h-70l-99 5l-19 -105l-19 -80l-28 -100h-20l18 100l19 80l29 105l-101 -5h-70l6 30h71l98 -5
z" />
    <glyph glyph-name="bullet" unicode="&#x2022;" horiz-adv-x="400" 
d="M60 300q13 60 63 100t109 40q60 0 91 -40t17 -100q-14 -59 -63.5 -99.5t-109.5 -40.5q-59 0 -90 40.5t-17 99.5z" />
    <glyph glyph-name="ellipsis" unicode="&#x2026;" horiz-adv-x="900" 
d="M91 50q0 28 18 44t42 16t42 -16t18 -44t-18 -44t-42 -16t-42 16t-18 44zM392 50q0 28 17.5 44t41.5 16t42 -16t18 -44t-18 -44t-42 -16t-41.5 16t-17.5 44zM691 50q0 28 18 44t42 16t42 -16t18 -44t-18 -44t-42 -16t-42 16t-18 44z" />
    <glyph glyph-name="perthousand" unicode="&#x2030;" horiz-adv-x="1000" 
d="M680 790l20 -20l-590 -780l-20 20zM473 610q-18 -81 -75 -130.5t-125 -49.5q-76 0 -116.5 52.5t-23.5 127.5q19 81 76 130.5t126 49.5q75 0 115 -52.5t23 -127.5zM423 610q16 71 -10 110.5t-75 39.5q-48 0 -93.5 -39.5t-61.5 -110.5q-14 -65 12.5 -107t73.5 -42
q49 0 93.5 39t60.5 110zM952 170q-19 -81 -76 -130.5t-126 -49.5q-47 0 -82.5 22.5t-50.5 61.5q-62 -84 -157 -84q-75 0 -115 52.5t-23 127.5q18 81 75 130.5t127 49.5q47 0 82 -22.5t50 -60.5q64 83 158 83q75 0 115 -52.5t23 -127.5zM612 170q16 71 -10.5 110.5
t-75.5 39.5t-93.5 -39.5t-60.5 -110.5q-15 -65 11.5 -107.5t73.5 -42.5q49 0 94 39.5t61 110.5zM902 170q16 71 -10.5 110.5t-75.5 39.5t-93.5 -39.5t-60.5 -110.5q-15 -65 11.5 -107.5t73.5 -42.5q49 0 94 39.5t61 110.5z" />
    <glyph glyph-name="fraction" unicode="&#x2044;" 
d="M500 795l20 -15l-520 -795l-20 15z" />
    <glyph glyph-name="Euro" unicode="&#x20ac;" horiz-adv-x="700" 
d="M-30 291l10 29h51q3 74 26 150h-47l10 30h48q52 133 157.5 211.5t224.5 78.5q49 0 91.5 -12.5t60.5 -25.5l18 -12l51 50l21 -240l-21 -10q-5 30 -19.5 63t-41 67.5t-73.5 57t-107 22.5q-111 0 -196.5 -68t-120.5 -182h407l-10 -30h-405q-12 -51 -12 -110q0 -14 2 -40h345
l-9 -29h-332q17 -105 82 -173t169 -68q62 0 115 22.5t85 55t55 65t33 55.5l9 22l19 -10q-4 -11 -12 -29t-39 -64.5t-68.5 -82.5t-101 -65t-135.5 -29q-59 0 -107 18t-79.5 47.5t-53 68.5t-31 80.5t-9.5 85.5v1h-60z" />
    <glyph glyph-name="minus" unicode="&#x2212;" 
d="M30 300l6 30h434l-6 -30h-434z" />
    <glyph glyph-name="CR" 
 />
    <glyph glyph-name="_0002" horiz-adv-x="900" 
d="M50 391q0 165 117 282t283 117t283 -117t117 -282q0 -166 -117 -283.5t-283 -117.5t-283 117.5t-117 283.5zM435 570v188q-39 -8 -76 -53.5t-60 -116.5q63 -17 136 -18zM601 588q-24 71 -60.5 116.5t-75.5 53.5v-188q75 2 136 18zM627 597q54 16 95 44q-77 83 -187 109
q55 -51 92 -153zM274 596q36 102 91 154q-110 -26 -187 -109q42 -29 96 -45zM265 567q-61 19 -106 52q-75 -94 -79 -214h160q1 83 25 162zM661 405h159q-4 120 -79 214q-48 -33 -105 -52q21 -80 25 -162zM465 540v-135h166q-1 77 -23 155q-61 -18 -143 -20zM270 405h165v135
q-77 2 -143 20q-21 -74 -22 -155zM636 215q63 -20 106 -51q72 92 78 211h-159q-5 -89 -25 -160zM240 375h-160q6 -119 78 -211q41 30 106 52q-23 79 -24 159zM465 375v-131q78 -3 144 -20q21 77 22 151h-166zM435 244v131h-165q2 -84 21 -151q60 17 144 20zM435 21v193
q-76 -3 -137 -19q23 -72 60 -119t77 -55zM465 214v-193q39 8 76 55t60 119q-59 16 -136 19zM272 189q-58 -20 -96 -47q77 -85 189 -112q-58 55 -93 159zM628 188q-36 -104 -93 -158q110 25 189 112q-42 28 -96 46z" />
    <glyph glyph-name="acute.case" horiz-adv-x="834" 
d="M850 1040l10 -20l-240 -200l-10 20z" />
    <glyph glyph-name="grave.case" horiz-adv-x="834" 
d="M810 840l-10 -20l-220 180l10 20z" />
    <glyph glyph-name="hungarumlaut.case" 
d="M250 1040l10 -20l-240 -200l-10 20zM450 1040l10 -20l-240 -200l-10 20z" />
    <glyph glyph-name="circumflex.case" horiz-adv-x="834" 
d="M623 841l215 189l127 -189l-26 -21l-111 170l-189 -170z" />
    <glyph glyph-name="caron.case" horiz-adv-x="834" 
d="M765 1009l-215 -189l-127 189l26 21l111 -170l189 170z" />
    <glyph glyph-name="breve.case" horiz-adv-x="834" 
d="M367 1030q-12 -51 12 -85.5t81 -34.5t96 34t51 86h30q-15 -66 -65.5 -113t-121.5 -47t-99.5 47t-13.5 113h30z" />
    <glyph glyph-name="tilde.case" horiz-adv-x="400" 
d="M257 941l15 19q1 0 0 -6t2 -15t8 -17.5t17 -14.5t29 -6q36 0 95 29.5t89 29.5q31 0 47 -17.5t16 -34.5v-18l-13 -19q0 7 -1 17t-15 26.5t-41 16.5q-29 0 -88 -30t-95 -30q-32 0 -48 17.5t-16 35.5z" />
    <glyph glyph-name="dieresis.case" horiz-adv-x="834" 
d="M240 940q0 28 18 44t42 16t42 -16t18 -44t-18 -44t-42 -16t-42 16t-18 44zM440 940q0 28 18 44t42 16t42 -16t18 -44t-18 -44t-42 -16t-42 16t-18 44z" />
    <glyph glyph-name="dotaccent.case" horiz-adv-x="300" 
d="M90 940q0 29 18 44.5t42 15.5q25 0 42.5 -15.5t17.5 -44.5q0 -28 -18 -44t-42 -16t-42 16t-18 44z" />
    <glyph glyph-name="ring.case" horiz-adv-x="834" 
d="M634 710q-13 -53 -54 -86.5t-94 -33.5t-79 33.5t-13 86.5q11 53 53 87t95 34t78 -33.5t14 -87.5zM594 710q10 44 -4.5 72t-52.5 28q-39 0 -66 -28t-37 -72q-10 -43 3.5 -71.5t52.5 -28.5t66.5 28.5t37.5 71.5z" />
    <glyph glyph-name="macron.case" horiz-adv-x="846" 
d="M50 870l7 30h321l-7 -30h-321z" />
    <glyph glyph-name="E.alt" horiz-adv-x="700" 
d="M440 750q-101 0 -170.5 -51.5t-69.5 -138.5q0 -65 52.5 -102.5t124.5 -37.5h190l-8 -29h-189q-48 0 -95 -10.5t-89.5 -32t-69 -60t-26.5 -88.5q0 -66 51 -113t149 -47q67 0 132.5 20.5t111 50t81 59t53.5 50.5l17 20l18 -10q-30 -32 -51.5 -53t-71.5 -60.5t-97 -63.5
t-116 -43.5t-140 -19.5q-118 0 -172.5 52t-54.5 128q0 45 15 82t37.5 60t52.5 40.5t56 26.5t53 14t39 6t17 1t6.5 2t-0.5 4.5t-6 3.5q-136 27 -149 130q-1 10 -1 20q0 68 48 121t125 81t167 28q50 0 92.5 -12.5t59.5 -25.5l18 -12l52 50l20 -240l-21 -10q-5 31 -19.5 63.5
t-41 67.5t-73.5 57t-107 22z" />
    <glyph glyph-name="a.alt" horiz-adv-x="600" 
d="M390 90l20 90q-12 -27 -31.5 -56t-50 -61t-75 -52.5t-93.5 -20.5q-62 0 -101 31t-39 89q0 23 6.5 43t15.5 33.5t27 26t31 19.5t39 15t39.5 11l43 10t40.5 9q86 20 132 47.5t46 75.5q0 33 -33.5 56.5t-96.5 23.5q-49 0 -80.5 -10.5t-42.5 -26t-17 -33.5t-7.5 -33.5
t-11.5 -26t-31 -10.5q-40 0 -40 30q0 53 78.5 96.5t181.5 43.5q87 0 133.5 -28.5t46.5 -81.5q0 -81 -109 -116q-36 -12 -148 -32q-98 -17 -127 -30q-56 -26 -56 -82q0 -39 29.5 -64.5t80.5 -25.5q52 0 95 22t68 55t38.5 61.5t18.5 51.5h70l-50 -140q-9 -23 1 -36.5t39 -13.5
q55 0 100 90l20 -10q-93 -140 -150 -140q-72 0 -50 100z" />
    </font>
</defs>
</svg>
